G04 ================== begin FILE IDENTIFICATION RECORD ==================*
G04 Layout Name:  transponderRC2_4-10.brd*
G04 Film Name:    1_TOP*
G04 File Format:  Gerber RS274X*
G04 File Origin:  Cadence Allegro 17.2-S042*
G04 Origin Date:  Fri Nov 23 21:07:11 2018*
G04 *
G04 Layer:  VIA CLASS/TOP*
G04 Layer:  PIN/TOP*
G04 Layer:  ETCH/TOP*
G04 *
G04 Offset:    (0.0000 0.0000)*
G04 Mirror:    No*
G04 Mode:      Positive*
G04 Rotation:  0*
G04 FullContactRelief:  No*
G04 UndefLineWidth:     0.1500*
G04 ================== end FILE IDENTIFICATION RECORD ====================*
%FSAX55Y55*MOMM*%
%IR0*IPPOS*OFA0.00000B0.00000*MIA0B0*SFA1.00000B1.00000*%
%ADD10R,.6X1.*%
%ADD17R,.9X2.*%
%ADD15C,.1*%
%ADD13R,1.8X.7*%
%ADD11C,.5*%
%ADD14R,2.X1.*%
%ADD12R,2.2X1.6*%
%ADD16C,1.2*%
%ADD18C,.3*%
%ADD19C,.15*%
G75*
%LPD*%
G75*
G54D10*
X0000195000Y0000230000D03*
X0000190000Y0001820000D03*
X0000335000Y0000230000D03*
X0000330000Y0001820000D03*
G54D11*
G01X0000555000Y0000687500D02*
X0000555000Y0000525000D01*
X0000525000Y0000495000D01*
G01X0000555000Y0001312500D02*
X0000610000Y0001312500D01*
X0000672500Y0001375000D01*
X0000715000Y0001375000D01*
G01X0000860000Y0001375000D02*
X0000715000Y0001375000D01*
G01X0000675000Y0001495000D02*
X0000675000Y0001635000D01*
X0000715000Y0001675000D01*
X0000860000Y0001675000D01*
G01X0002021020Y0000581020D02*
X0002153980Y0000581020D01*
X0002260000Y0000475000D01*
X0002460000Y0000475000D01*
G01X0002460000Y0001525000D02*
X0002310000Y0001525000D01*
G01X0003031000Y0000285000D02*
X0003031000Y0000151000D01*
X0003032000Y0000150000D01*
G01X0002904000Y0000285000D02*
X0002904000Y0000146500D01*
X0002902500Y0000145000D01*
G01X0002815000Y0001785000D02*
X0002904000Y0001785000D01*
G01X0003955000Y0000150000D02*
X0003942780Y0000137780D01*
X0003687220Y0000137780D01*
X0003666000Y0000159000D01*
X0003666000Y0000285000D01*
G01X0003666000Y0001785000D02*
X0003666000Y0001675000D01*
X0003716000Y0001625000D01*
X0003810000Y0001625000D01*
X0000125000Y0000230000D03*
X0000235000Y0001700000D03*
X0000145000Y0001667500D03*
X0000110000Y0001755000D03*
X0000510000Y0000230000D03*
X0000553980Y0000403980D03*
X0000525000Y0000495000D03*
X0000555000Y0001382500D03*
X0000550000Y0001645000D03*
X0000565000Y0001880000D03*
X0000690000Y0000568440D03*
X0000720000Y0000937500D03*
X0000711770Y0001219810D03*
X0000693950Y0001297810D03*
X0000715000Y0001375000D03*
X0000675000Y0001495000D03*
X0001085000Y0000195000D03*
X0001052500Y0000645000D03*
X0001240000Y0000675000D03*
X0001155000Y0000750000D03*
X0001005000Y0000860000D03*
X0001050000Y0000790000D03*
X0001130000Y0001185000D03*
X0001060000Y0001060000D03*
X0001030000Y0001550000D03*
X0001100000Y0001485000D03*
X0001005000Y0001435000D03*
X0001205000Y0001845000D03*
X0001380000Y0000610000D03*
X0001590000Y0000760000D03*
X0001412500Y0000717500D03*
X0001545000Y0001265000D03*
X0002021020Y0000581020D03*
X0001852500Y0000760000D03*
X0002008060Y0000788060D03*
X0001950000Y0001050000D03*
X0001782500Y0001602500D03*
X0001950000Y0001810000D03*
X0001785000Y0001810000D03*
X0002076020Y0000351020D03*
X0002185000Y0001050000D03*
X0002195000Y0001245000D03*
X0002320000Y0001340000D03*
X0002310000Y0001525000D03*
X0002030000Y0001317500D03*
X0002115000Y0001315000D03*
X0002115000Y0001620000D03*
X0002180000Y0001510000D03*
X0002045000Y0001795000D03*
X0002610000Y0000540000D03*
X0002615000Y0000420000D03*
X0002700000Y0000640000D03*
X0002600000Y0000980000D03*
X0002605700Y0001059800D03*
X0002650220Y0001342230D03*
X0002680000Y0001575000D03*
X0003032000Y0000150000D03*
X0002902500Y0000145000D03*
X0002777890Y0000281570D03*
X0002736090Y0000541090D03*
X0002786470Y0000361110D03*
X0002785680Y0000458710D03*
X0003010000Y0000545000D03*
X0002925000Y0000547500D03*
X0002805000Y0000735000D03*
X0002810000Y0001210000D03*
X0002974230Y0001409490D03*
X0002795000Y0001670000D03*
X0002815000Y0001785000D03*
X0003167500Y0000517500D03*
X0003321340Y0000517500D03*
X0003275000Y0000745000D03*
X0003275000Y0001205000D03*
X0003245000Y0001625000D03*
X0003265000Y0001515000D03*
X0003392500Y0001420000D03*
X0003476410Y0000898590D03*
X0003558630Y0000767780D03*
X0003555000Y0000670000D03*
X0003563530Y0000847640D03*
X0003491500Y0001060000D03*
X0003580000Y0001470000D03*
X0003568850Y0001390780D03*
X0003805000Y0000485000D03*
X0003855000Y0000950000D03*
X0003860000Y0000810000D03*
X0003940000Y0000775000D03*
X0003975000Y0001180000D03*
X0004040000Y0001360000D03*
X0003810000Y0001625000D03*
X0003810000Y0001525000D03*
X0003880000Y0001445000D03*
X0003935000Y0001710000D03*
X0003900000Y0001825000D03*
X0004160000Y0000940000D03*
X0004240000Y0001350000D03*
G54D12*
X0000225000Y0000452500D03*
X0000225000Y0001547500D03*
G54D13*
X0000555000Y0000937500D03*
X0000555000Y0000812500D03*
X0000555000Y0000687500D03*
X0000555000Y0001312500D03*
X0000555000Y0001187500D03*
X0000555000Y0001062500D03*
G54D14*
X0000860000Y0000325000D03*
X0000860000Y0000475000D03*
X0000860000Y0000625000D03*
X0000860000Y0000775000D03*
X0000860000Y0000925000D03*
X0000860000Y0001075000D03*
X0000860000Y0001225000D03*
X0000860000Y0001375000D03*
X0000860000Y0001525000D03*
X0000860000Y0001675000D03*
X0002460000Y0000625000D03*
X0002460000Y0000475000D03*
X0002460000Y0000325000D03*
X0002460000Y0000925000D03*
X0002460000Y0000775000D03*
X0002460000Y0001225000D03*
X0002460000Y0001075000D03*
X0002460000Y0001675000D03*
X0002460000Y0001525000D03*
X0002460000Y0001375000D03*
G54D15*
X0001680000Y0001080000D03*
G54D16*
X0002700000Y0000150000D03*
X0003955000Y0000150000D03*
G54D17*
X0003031000Y0000285000D03*
X0002904000Y0000285000D03*
X0002904000Y0001785000D03*
X0003031000Y0001785000D03*
X0003412000Y0000285000D03*
X0003285000Y0000285000D03*
X0003158000Y0000285000D03*
X0003158000Y0001785000D03*
X0003285000Y0001785000D03*
X0003412000Y0001785000D03*
X0003666000Y0000285000D03*
X0003539000Y0000285000D03*
X0003539000Y0001785000D03*
X0003666000Y0001785000D03*
X0003793000Y0000285000D03*
X0003793000Y0001785000D03*
G54D18*
G01X0000195000Y0000230000D02*
X0000125000Y0000230000D01*
G01X0000335000Y0000230000D02*
X0000510000Y0000230000D01*
G01X0000555000Y0000812500D02*
X0000402500Y0000812500D01*
X0000355000Y0000860000D01*
X0000355000Y0001395000D01*
X0000465000Y0001505000D01*
X0000465000Y0001755000D01*
X0000505000Y0001795000D01*
X0001035000Y0001795000D01*
X0001100000Y0001730000D01*
X0001100000Y0001485000D01*
G01X0000720000Y0000937500D02*
X0000555000Y0000937500D01*
G01X0000690000Y0000568440D02*
X0000690000Y0000580000D01*
X0000735000Y0000625000D01*
X0000860000Y0000625000D01*
G01X0000860000Y0000625000D02*
X0001032500Y0000625000D01*
X0001052500Y0000645000D01*
G01X0001005000Y0001435000D02*
X0001005000Y0000860000D01*
G01X0001050000Y0000790000D02*
X0001060000Y0000800000D01*
X0001060000Y0001060000D01*
G01X0003031000Y0000290000D02*
X0003031000Y0000285000D01*
G01X0002904000Y0000290000D02*
X0002904000Y0000285000D01*
G01X0002820000Y0001790000D02*
X0002815000Y0001785000D01*
G01X0003666000Y0000290000D02*
X0003666000Y0000285000D01*
G01X0003666000Y0001790000D02*
X0003666000Y0001785000D01*
G54D19*
G01X0000330000Y0001820000D02*
X0000330000Y0001762500D01*
X0000267500Y0001700000D01*
X0000235000Y0001700000D01*
G01X0000190000Y0001820000D02*
X0000152500Y0001820000D01*
X0000110000Y0001777500D01*
X0000110000Y0001755000D01*
G01X0000711770Y0001219810D02*
X0000688780Y0001196820D01*
X0000688780Y0001098780D01*
X0000652500Y0001062500D01*
X0000555000Y0001062500D01*
G01X0000693950Y0001297810D02*
X0000670960Y0001274820D01*
X0000670960Y0001248460D01*
X0000610000Y0001187500D01*
X0000555000Y0001187500D01*
G01X0000565000Y0001880000D02*
X0000600000Y0001915000D01*
X0001745000Y0001915000D01*
X0001785000Y0001875000D01*
X0001785000Y0001810000D01*
G01X0002786470Y0000361110D02*
X0002741110Y0000361110D01*
X0002710000Y0000330000D01*
X0002646820Y0000330000D01*
X0002516820Y0000200000D01*
X0002115000Y0000200000D01*
X0001840000Y0000475000D01*
X0000860000Y0000475000D01*
G01X0000860000Y0000325000D02*
X0001840000Y0000325000D01*
X0002035000Y0000130000D01*
X0002490010Y0000130000D01*
X0002660010Y0000300000D01*
X0002726960Y0000300000D01*
X0002745390Y0000281570D01*
X0002777890Y0000281570D01*
G01X0001130000Y0001185000D02*
X0001130000Y0000775000D01*
X0001155000Y0000750000D01*
G01X0003392500Y0001420000D02*
X0003332500Y0001420000D01*
X0003312500Y0001440000D01*
X0003125000Y0001440000D01*
X0003015000Y0001550000D01*
X0002820000Y0001550000D01*
X0002490000Y0001880000D01*
X0001930000Y0001880000D01*
X0001900000Y0001850000D01*
X0001900000Y0000670000D01*
X0001840000Y0000610000D01*
X0001380000Y0000610000D01*
G01X0003558630Y0000767780D02*
X0003635000Y0000844150D01*
X0003635000Y0000875000D01*
X0003800000Y0001040000D01*
X0003800000Y0001440000D01*
X0003855000Y0001495000D01*
X0004025000Y0001495000D01*
X0004070000Y0001540000D01*
X0004070000Y0001757080D01*
X0003950110Y0001907500D01*
X0002849680Y0001907500D01*
X0002836500Y0001894320D01*
X0002836500Y0001890000D01*
X0002821500Y0001875000D01*
X0002537430Y0001875000D01*
X0002502430Y0001910000D01*
X0001917570Y0001910000D01*
X0001870000Y0001862430D01*
X0001870000Y0001780000D01*
X0001715000Y0001625000D01*
X0001715000Y0001435000D01*
X0001545000Y0001265000D01*
G01X0001950000Y0001810000D02*
X0001950000Y0001135000D01*
X0002008060Y0001076940D01*
X0002008060Y0000788060D01*
G01X0002195000Y0001245000D02*
X0002180000Y0001260000D01*
X0002180000Y0001510000D01*
G01X0002030000Y0001317500D02*
X0002030000Y0001747500D01*
X0002045000Y0001762500D01*
X0002045000Y0001795000D01*
G01X0002115000Y0001315000D02*
X0002115000Y0001620000D01*
G01X0003412000Y0000285000D02*
X0003412000Y0000393500D01*
X0003370500Y0000435000D01*
X0003292570Y0000435000D01*
X0003260070Y0000467500D01*
X0002886500Y0000467500D01*
X0002813590Y0000540410D01*
X0002813590Y0000646420D01*
X0002760010Y0000700000D01*
X0002667500Y0000700000D01*
X0002652500Y0000685000D01*
X0002652500Y0000620320D01*
X0002680320Y0000592500D01*
X0002684680Y0000592500D01*
X0002736090Y0000541090D01*
G01X0002600000Y0000980000D02*
X0002600000Y0000625000D01*
X0002665000Y0000560000D01*
X0002665000Y0000470000D01*
X0002615000Y0000420000D01*
G01X0002605700Y0001059800D02*
X0002647500Y0001018000D01*
X0002647500Y0000982500D01*
X0002870000Y0000760000D01*
X0002870000Y0000526430D01*
X0002898930Y0000497500D01*
X0003029680Y0000497500D01*
X0003097180Y0000565000D01*
X0003205000Y0000565000D01*
X0003305000Y0000465000D01*
X0003490000Y0000465000D01*
X0003539000Y0000416000D01*
X0003539000Y0000285000D01*
G01X0003158000Y0000285000D02*
X0003158000Y0000118000D01*
X0003135000Y0000095000D01*
X0002860000Y0000095000D01*
X0002825390Y0000129610D01*
X0002825390Y0000332850D01*
X0002833970Y0000341430D01*
X0002833970Y0000410420D01*
X0002785680Y0000458710D01*
G01X0002700000Y0000640000D02*
X0002732500Y0000640000D01*
X0002783590Y0000588910D01*
X0002783590Y0000527980D01*
X0002886570Y0000425000D01*
X0003253500Y0000425000D01*
X0003285000Y0000393500D01*
X0003285000Y0000285000D01*
G01X0003539000Y0001785000D02*
X0003539000Y0001730000D01*
X0003484680Y0001675680D01*
X0003479500Y0001675680D01*
X0003471820Y0001668000D01*
X0003471820Y0001107500D01*
X0003444000Y0001079680D01*
X0003444000Y0001049000D01*
X0003010000Y0000615000D01*
X0003010000Y0000545000D01*
G01X0003412000Y0001785000D02*
X0003412000Y0001677500D01*
X0003440000Y0001649500D01*
X0003440000Y0001150000D01*
X0002925000Y0000635000D01*
X0002925000Y0000547500D01*
G01X0003805000Y0000485000D02*
X0003779390Y0000510610D01*
X0003360730Y0000510610D01*
X0003353840Y0000517500D01*
X0003321340Y0000517500D01*
G01X0003793000Y0000285000D02*
X0003845500Y0000285000D01*
X0003935000Y0000374500D01*
X0003935000Y0000530000D01*
X0003900000Y0000565000D01*
X0003550000Y0000565000D01*
X0003460000Y0000655000D01*
X0003460000Y0000815000D01*
X0003610000Y0000965000D01*
X0003610000Y0001349630D01*
X0003568850Y0001390780D01*
G01X0003580000Y0001470000D02*
X0003510000Y0001400000D01*
X0003510000Y0001160000D01*
X0003550000Y0001120000D01*
X0003550000Y0000972180D01*
X0003476410Y0000898590D01*
G01X0003880000Y0001445000D02*
X0003880000Y0001412500D01*
X0003875000Y0001407500D01*
X0003875000Y0001055000D01*
X0003770000Y0000950000D01*
X0003770000Y0000815000D01*
X0003625000Y0000670000D01*
X0003555000Y0000670000D01*
G01X0003793000Y0001785000D02*
X0003793000Y0001730000D01*
X0003857500Y0001665500D01*
X0003857500Y0001600320D01*
X0003829680Y0001572500D01*
X0003790320Y0001572500D01*
X0003787820Y0001570000D01*
X0003762820Y0001570000D01*
X0003740000Y0001547180D01*
X0003740000Y0001024110D01*
X0003563530Y0000847640D01*
G01X0003539000Y0001790000D02*
X0003539000Y0001785000D01*
G01X0003412000Y0001790000D02*
X0003412000Y0001785000D01*
G01X0003810000Y0001525000D02*
X0003999390Y0001525000D01*
X0004014390Y0001540000D01*
X0004014390Y0001710610D01*
X0003900000Y0001825000D01*
M02*
