G04 ================== begin FILE IDENTIFICATION RECORD ==================*
G04 Layout Name:  transponderRC2_4-10.brd*
G04 Film Name:    Silkscreen_bot*
G04 File Format:  Gerber RS274X*
G04 File Origin:  Cadence Allegro 17.2-S042*
G04 Origin Date:  Fri Nov 23 21:07:11 2018*
G04 *
G04 Layer:  PACKAGE GEOMETRY/SILKSCREEN_BOTTOM*
G04 Layer:  BOARD GEOMETRY/SILKSCREEN_BOTTOM*
G04 Layer:  REF DES/SILKSCREEN_BOTTOM*
G04 *
G04 Offset:    (0.0000 0.0000)*
G04 Mirror:    No*
G04 Mode:      Positive*
G04 Rotation:  0*
G04 FullContactRelief:  No*
G04 UndefLineWidth:     0.1500*
G04 ================== end FILE IDENTIFICATION RECORD ====================*
%FSAX55Y55*MOMM*%
%IR0*IPPOS*OFA0.00000B0.00000*MIA0B0*SFA1.00000B1.00000*%
%ADD10C,.1*%
%ADD11C,.13*%
%ADD12C,.15*%
%ADD13C,.1524*%
G75*
%LPD*%
G75*
G36*
G01X0002780000Y0000150000D02*
G03X0002780000Y0000150000I-0000080000J0D01*
G37*
G36*
G01X0004035000Y0000150000D02*
G03X0004035000Y0000150000I-0000080000J0D01*
G37*
G54D10*
G01X0000490000Y0000300000D02*
X0000230000Y0000300000D01*
X0000230000Y0000160000D01*
X0000490000Y0000160000D01*
X0000490000Y0000300000D01*
G01X0000205000Y0001510000D02*
X0000465000Y0001510000D01*
X0000465000Y0001650000D01*
X0000205000Y0001650000D01*
X0000205000Y0001510000D01*
G01X0000270000Y0001650000D02*
X0000450000Y0001650000D01*
X0000450000Y0001750000D01*
X0000270000Y0001750000D01*
X0000270000Y0001650000D01*
G01X0000125000Y0001765000D02*
X0000385000Y0001765000D01*
X0000385000Y0001905000D01*
X0000125000Y0001905000D01*
X0000125000Y0001765000D01*
G01X0000655000Y0000600000D02*
X0000655000Y0000780000D01*
X0000555000Y0000780000D01*
X0000555000Y0000600000D01*
X0000655000Y0000600000D01*
G01X0000915000Y0001030000D02*
X0000615000Y0001030000D01*
X0000615000Y0000890000D01*
X0000915000Y0000890000D01*
X0000915000Y0001030000D01*
G01X0000540000Y0001510000D02*
X0000720000Y0001510000D01*
X0000720000Y0001610000D01*
X0000540000Y0001610000D01*
X0000540000Y0001510000D01*
G01X0000675000Y0000120000D02*
X0000855000Y0000120000D01*
X0000855000Y0000220000D01*
X0000675000Y0000220000D01*
X0000675000Y0000120000D01*
G01X0001020000Y0000565000D02*
X0001020000Y0000745000D01*
X0000920000Y0000745000D01*
X0000920000Y0000565000D01*
X0001020000Y0000565000D01*
G01X0000660000Y0000615000D02*
X0000920000Y0000615000D01*
X0000920000Y0000755000D01*
X0000660000Y0000755000D01*
X0000660000Y0000615000D01*
G01X0000745000Y0001555000D02*
X0000745000Y0001805000D01*
X0000825000Y0001805000D01*
X0000825000Y0001545000D01*
X0000745000Y0001545000D01*
X0000745000Y0001555000D01*
G01X0000850010Y0001820000D02*
X0001029990Y0001820000D01*
X0001029990Y0001920000D01*
X0000850010Y0001920000D01*
X0000850010Y0001820000D01*
G01X0001115000Y0000145000D02*
X0001295000Y0000145000D01*
X0001295000Y0000245000D01*
X0001115000Y0000245000D01*
X0001115000Y0000145000D01*
G01X0001180000Y0000525000D02*
X0001180000Y0000275000D01*
X0001100000Y0000275000D01*
X0001100000Y0000535000D01*
X0001180000Y0000535000D01*
X0001180000Y0000525000D01*
G01X0001145000Y0001170000D02*
X0001125000Y0001170000D01*
X0001125000Y0001190000D01*
X0001145000Y0001190000D01*
X0001145000Y0001170000D01*
G01X0001010000Y0001780000D02*
X0001010000Y0001600000D01*
X0001110000Y0001600000D01*
X0001110000Y0001780000D01*
X0001010000Y0001780000D01*
G01X0001110000Y0001714990D02*
X0001110000Y0001535010D01*
X0001210000Y0001535010D01*
X0001210000Y0001714990D01*
X0001110000Y0001714990D01*
G01X0001550000Y0000595000D02*
X0001550000Y0000775000D01*
X0001450000Y0000775000D01*
X0001450000Y0000595000D01*
X0001550000Y0000595000D01*
G01X0001380000Y0000405000D02*
X0001630000Y0000405000D01*
X0001630000Y0000325000D01*
X0001370000Y0000325000D01*
X0001370000Y0000405000D01*
X0001380000Y0000405000D01*
G01X0001620000Y0000805000D02*
X0001620000Y0000625000D01*
X0001720000Y0000625000D01*
X0001720000Y0000805000D01*
X0001620000Y0000805000D01*
G01X0001650000Y0001870000D02*
X0001650000Y0001890000D01*
X0001670000Y0001890000D01*
X0001670000Y0001870000D01*
X0001650000Y0001870000D01*
G01X0001725000Y0000805000D02*
X0001725000Y0000625000D01*
X0001825000Y0000625000D01*
X0001825000Y0000805000D01*
X0001725000Y0000805000D01*
G01X0001980000Y0001000000D02*
X0002160000Y0001000000D01*
X0002160000Y0001100000D01*
X0001980000Y0001100000D01*
X0001980000Y0001000000D01*
G01X0002110000Y0000400000D02*
X0002360000Y0000400000D01*
X0002360000Y0000320000D01*
X0002100000Y0000320000D01*
X0002100000Y0000400000D01*
X0002110000Y0000400000D01*
G01X0002470000Y0000730000D02*
X0002220000Y0000730000D01*
X0002220000Y0000810000D01*
X0002480000Y0000810000D01*
X0002480000Y0000730000D01*
X0002470000Y0000730000D01*
G01X0002210000Y0000980000D02*
X0002390000Y0000980000D01*
X0002390000Y0001080000D01*
X0002210000Y0001080000D01*
X0002210000Y0000980000D01*
G01X0002385000Y0000225000D02*
X0002565000Y0000225000D01*
X0002565000Y0000325000D01*
X0002385000Y0000325000D01*
X0002385000Y0000225000D01*
G01X0002665000Y0000480000D02*
X0002665000Y0000300000D01*
X0002765000Y0000300000D01*
X0002765000Y0000480000D01*
X0002665000Y0000480000D01*
G01X0002385000Y0000330000D02*
X0002565000Y0000330000D01*
X0002565000Y0000430000D01*
X0002385000Y0000430000D01*
X0002385000Y0000330000D01*
G01X0002385000Y0001235000D02*
X0002645000Y0001235000D01*
X0002645000Y0001375000D01*
X0002385000Y0001375000D01*
X0002385000Y0001235000D01*
G01X0002915000Y0000275000D02*
X0003175000Y0000275000D01*
X0003175000Y0000415000D01*
X0002915000Y0000415000D01*
X0002915000Y0000275000D01*
G01X0002810000Y0001440000D02*
X0002810000Y0001620000D01*
X0002710000Y0001620000D01*
X0002710000Y0001440000D01*
X0002810000Y0001440000D01*
G01X0002950000Y0001685000D02*
X0002950000Y0001425000D01*
X0003090000Y0001425000D01*
X0003090000Y0001685000D01*
X0002950000Y0001685000D01*
G01X0002810000Y0001685000D02*
X0002810000Y0001425000D01*
X0002950000Y0001425000D01*
X0002950000Y0001685000D01*
X0002810000Y0001685000D01*
G01X0003090000Y0001685000D02*
X0003090000Y0001425000D01*
X0003230000Y0001425000D01*
X0003230000Y0001685000D01*
X0003090000Y0001685000D01*
G01X0003865000Y0000740000D02*
X0003605000Y0000740000D01*
X0003605000Y0000600000D01*
X0003865000Y0000600000D01*
X0003865000Y0000740000D01*
G01X0003845000Y0001020000D02*
X0003585000Y0001020000D01*
X0003585000Y0000880000D01*
X0003845000Y0000880000D01*
X0003845000Y0001020000D01*
G01X0003845000Y0000880000D02*
X0003585000Y0000880000D01*
X0003585000Y0000740000D01*
X0003845000Y0000740000D01*
X0003845000Y0000880000D01*
G01X0003825000Y0001030000D02*
X0003825000Y0001430000D01*
X0003585000Y0001430000D01*
X0003585000Y0001030000D01*
X0003825000Y0001030000D01*
G01X0003485000Y0001315000D02*
X0003445000Y0001315000D01*
X0003445000Y0001365000D01*
X0003485000Y0001365000D01*
X0003485000Y0001315000D01*
G01X0003790000Y0001575000D02*
X0003610000Y0001575000D01*
X0003610000Y0001475000D01*
X0003790000Y0001475000D01*
X0003790000Y0001575000D01*
G01X0003610000Y0001575000D02*
X0003790000Y0001575000D01*
X0003790000Y0001675000D01*
X0003610000Y0001675000D01*
X0003610000Y0001575000D01*
G01X0003890000Y0000985000D02*
X0003890000Y0000805000D01*
X0003990000Y0000805000D01*
X0003990000Y0000985000D01*
X0003890000Y0000985000D01*
G01X0004265000Y0000790000D02*
X0004015000Y0000790000D01*
X0004015000Y0000870000D01*
X0004275000Y0000870000D01*
X0004275000Y0000790000D01*
X0004265000Y0000790000D01*
G01X0003840000Y0001055000D02*
X0004020000Y0001055000D01*
X0004020000Y0001155000D01*
X0003840000Y0001155000D01*
X0003840000Y0001055000D01*
G01X0004300000Y0001170000D02*
X0004040000Y0001170000D01*
X0004040000Y0001030000D01*
X0004300000Y0001030000D01*
X0004300000Y0001170000D01*
G01X0004300000Y0001315000D02*
X0004040000Y0001315000D01*
X0004040000Y0001175000D01*
X0004300000Y0001175000D01*
X0004300000Y0001315000D01*
G01X0003835000Y0001310000D02*
X0004015000Y0001310000D01*
X0004015000Y0001410000D01*
X0003835000Y0001410000D01*
X0003835000Y0001310000D01*
G01X0004015000Y0001575000D02*
X0003835000Y0001575000D01*
X0003835000Y0001475000D01*
X0004015000Y0001475000D01*
X0004015000Y0001575000D01*
G01X0003835000Y0001575000D02*
X0004015000Y0001575000D01*
X0004015000Y0001675000D01*
X0003835000Y0001675000D01*
X0003835000Y0001575000D01*
G54D11*
G01X0002455670Y0001590000D02*
X0002455670Y0001670000D01*
X0002432330Y0001670000D01*
X0002424870Y0001666000D01*
X0002420200Y0001660670D01*
X0002418330Y0001650000D01*
X0002420200Y0001639330D01*
X0002425800Y0001632670D01*
X0002432330Y0001628670D01*
X0002455670Y0001628670D01*
G01X0002432330Y0001628670D02*
X0002418330Y0001590000D01*
G01X0002354330Y0001590000D02*
X0002391670Y0001590000D01*
X0002391670Y0001670000D01*
X0002354330Y0001670000D01*
G01X0002369270Y0001631330D02*
X0002391670Y0001631330D01*
G01X0002328600Y0001600660D02*
X0002321130Y0001594000D01*
X0002312730Y0001590000D01*
X0002305270Y0001590000D01*
X0002297800Y0001594000D01*
X0002292200Y0001600660D01*
X0002289400Y0001610000D01*
X0002291270Y0001619330D01*
X0002295930Y0001627330D01*
X0002304330Y0001632670D01*
X0002315530Y0001635330D01*
X0002322070Y0001640670D01*
X0002324870Y0001650000D01*
X0002323000Y0001659330D01*
X0002318330Y0001666000D01*
X0002311800Y0001670000D01*
X0002305270Y0001670000D01*
X0002298730Y0001667330D01*
X0002293130Y0001660670D01*
G01X0002226330Y0001590000D02*
X0002263670Y0001590000D01*
X0002263670Y0001670000D01*
X0002226330Y0001670000D01*
G01X0002241270Y0001631330D02*
X0002263670Y0001631330D01*
G01X0002181000Y0001670000D02*
X0002181000Y0001590000D01*
G01X0002202470Y0001670000D02*
X0002159530Y0001670000D01*
G01X0003341600Y0001733480D02*
X0003331610Y0001734050D01*
X0003322840Y0001737160D01*
X0003317560Y0001742440D01*
X0003315110Y0001750550D01*
X0003315860Y0001759220D01*
X0003320480Y0001767800D01*
X0003328400Y0001773080D01*
X0003337360Y0001775440D01*
X0003347070Y0001773270D01*
X0003356880Y0001767240D01*
X0003365270Y0001766390D01*
X0003373850Y0001771000D01*
X0003379130Y0001778930D01*
X0003380540Y0001786940D01*
X0003378750Y0001794390D01*
X0003374130Y0001799010D01*
X0003367620Y0001801740D01*
X0003358950Y0001800990D01*
G01X0003351320Y0001821820D02*
X0003285510Y0001774490D01*
X0003331520Y0001841620D01*
X0003264390Y0001795610D01*
X0003311720Y0001861420D01*
G01X0003267040Y0001896670D02*
X0003273830Y0001895540D01*
X0003280330Y0001892810D01*
X0003285610Y0001887530D01*
X0003288720Y0001878760D01*
X0003288630Y0001869430D01*
X0003286270Y0001860470D01*
X0003279480Y0001848400D01*
X0003271660Y0001839250D01*
X0003261850Y0001832090D01*
X0003254210Y0001828410D01*
X0003244600Y0001826720D01*
X0003236210Y0001827560D01*
X0003229700Y0001830300D01*
X0003225080Y0001834920D01*
X0003222350Y0001841420D01*
X0003221210Y0001848210D01*
X0003221680Y0001855280D01*
G01X0003254220Y0001918920D02*
X0003197650Y0001862350D01*
X0003171250Y0001888750D01*
G01X0003153720Y0001906280D02*
X0003210290Y0001962850D01*
G01X0003185210Y0001987930D02*
X0003175400Y0001927960D01*
G01X0003124680Y0001935320D02*
X0003180210Y0001955210D01*
G01X0003470660Y0001673400D02*
X0003464000Y0001680870D01*
X0003460000Y0001689270D01*
X0003460000Y0001696730D01*
X0003464000Y0001704200D01*
X0003470660Y0001709800D01*
X0003480000Y0001712600D01*
X0003489330Y0001710730D01*
X0003497330Y0001706070D01*
X0003502670Y0001697670D01*
X0003505330Y0001686470D01*
X0003510670Y0001679930D01*
X0003520000Y0001677130D01*
X0003529330Y0001679000D01*
X0003536000Y0001683670D01*
X0003540000Y0001690200D01*
X0003540000Y0001696730D01*
X0003537330Y0001703270D01*
X0003530670Y0001708870D01*
G01X0003540000Y0001729000D02*
X0003460000Y0001742070D01*
X0003540000Y0001757000D01*
X0003460000Y0001771930D01*
X0003540000Y0001785000D01*
G01X0003460000Y0001800470D02*
X0003540000Y0001800470D01*
X0003540000Y0001819130D01*
X0003536000Y0001826600D01*
X0003530670Y0001832200D01*
X0003522670Y0001836870D01*
X0003513330Y0001840600D01*
X0003500000Y0001841530D01*
X0003486670Y0001840600D01*
X0003477330Y0001836870D01*
X0003469330Y0001832200D01*
X0003464000Y0001826600D01*
X0003460000Y0001819130D01*
X0003460000Y0001800470D01*
G01X0003540000Y0001873800D02*
X0003540000Y0001896200D01*
G01X0003540000Y0001885000D02*
X0003460000Y0001885000D01*
G01X0003460000Y0001873800D02*
X0003460000Y0001896200D01*
G01X0003460000Y0001949000D02*
X0003461330Y0001941530D01*
X0003466670Y0001935000D01*
X0003474670Y0001929400D01*
X0003484000Y0001925670D01*
X0003494670Y0001923800D01*
X0003505330Y0001923800D01*
X0003516000Y0001925670D01*
X0003525330Y0001929400D01*
X0003533330Y0001935000D01*
X0003538670Y0001941530D01*
X0003540000Y0001949000D01*
X0003538670Y0001956470D01*
X0003533330Y0001963000D01*
X0003525330Y0001968600D01*
X0003516000Y0001972330D01*
X0003505330Y0001974200D01*
X0003494670Y0001974200D01*
X0003484000Y0001972330D01*
X0003474670Y0001968600D01*
X0003466670Y0001963000D01*
X0003461330Y0001956470D01*
X0003460000Y0001949000D01*
G54D12*
G01X0002579440Y0000142330D02*
X0002540840Y0000142330D01*
G01X0002561750Y0000169850D02*
X0002561750Y0000114810D01*
G01X0003822660Y0000152330D02*
X0003780840Y0000152330D01*
G01X0000110750Y0000354740D02*
X0000102870Y0000359610D01*
X0000097620Y0000365450D01*
X0000095000Y0000372260D01*
X0000097620Y0000380050D01*
X0000102870Y0000385890D01*
X0000110750Y0000391740D01*
X0000121250Y0000393680D01*
X0000173740Y0000393680D01*
G01X0000110750Y0000431530D02*
X0000101560Y0000437370D01*
X0000096310Y0000445160D01*
X0000095000Y0000453920D01*
X0000096310Y0000461710D01*
X0000102870Y0000469500D01*
X0000110750Y0000474370D01*
X0000118620Y0000475340D01*
X0000127810Y0000473400D01*
X0000134370Y0000466580D01*
X0000137000Y0000459770D01*
X0000137000Y0000451000D01*
G01X0000137000Y0000459770D02*
X0000140930Y0000465610D01*
X0000147490Y0000470480D01*
X0000155370Y0000472420D01*
X0000163240Y0000470480D01*
X0000169800Y0000465610D01*
X0000173740Y0000456840D01*
X0000172430Y0000448080D01*
X0000167180Y0000439320D01*
G01X0000159780Y0001608210D02*
X0000163840Y0001611380D01*
X0000168580Y0001613500D01*
X0000174000Y0001613500D01*
X0000180100Y0001610320D01*
X0000184840Y0001605030D01*
X0000188230Y0001598680D01*
X0000190940Y0001588100D01*
X0000191610Y0001578570D01*
X0000190260Y0001569050D01*
X0000188230Y0001562700D01*
X0000184160Y0001556350D01*
X0000179420Y0001552120D01*
X0000174680Y0001550000D01*
X0000169940Y0001550000D01*
X0000165200Y0001552120D01*
X0000161130Y0001555290D01*
X0000157750Y0001559520D01*
G01X0000118800Y0001550000D02*
X0000118800Y0001613500D01*
X0000126930Y0001600800D01*
G01X0000126930Y0001550000D02*
X0000110670Y0001550000D01*
G01X0000074440Y0001557410D02*
X0000069690Y0001552120D01*
X0000064270Y0001550000D01*
X0000058860Y0001552120D01*
X0000054110Y0001558460D01*
X0000050730Y0001567990D01*
X0000049370Y0001577520D01*
X0000049370Y0001589160D01*
X0000050730Y0001598680D01*
X0000054110Y0001607150D01*
X0000058180Y0001611380D01*
X0000062920Y0001613500D01*
X0000068340Y0001611380D01*
X0000072400Y0001607150D01*
X0000075110Y0001600800D01*
X0000076470Y0001592330D01*
X0000075110Y0001584930D01*
X0000071730Y0001577520D01*
X0000067660Y0001573280D01*
X0000062920Y0001572220D01*
X0000057500Y0001574340D01*
X0000053440Y0001579630D01*
X0000049370Y0001589160D01*
G01X0000653230Y0000140000D02*
X0000653230Y0000203500D01*
X0000636290Y0000203500D01*
X0000630870Y0000200320D01*
X0000627490Y0000196090D01*
X0000626130Y0000187620D01*
X0000627490Y0000179160D01*
X0000631550Y0000173870D01*
X0000636290Y0000170690D01*
X0000653230Y0000170690D01*
G01X0000636290Y0000170690D02*
X0000626130Y0000140000D01*
G01X0000583800Y0000140000D02*
X0000583800Y0000203500D01*
X0000591930Y0000190800D01*
G01X0000591930Y0000140000D02*
X0000575670Y0000140000D01*
G01X0000453230Y0000320000D02*
X0000453230Y0000383500D01*
X0000436290Y0000383500D01*
X0000430870Y0000380320D01*
X0000427490Y0000376090D01*
X0000426130Y0000367620D01*
X0000427490Y0000359160D01*
X0000431550Y0000353870D01*
X0000436290Y0000350690D01*
X0000453230Y0000350690D01*
G01X0000436290Y0000350690D02*
X0000426130Y0000320000D01*
G01X0000383800Y0000320000D02*
X0000383800Y0000383500D01*
X0000391930Y0000370800D01*
G01X0000391930Y0000320000D02*
X0000375670Y0000320000D01*
G01X0000342820Y0000332700D02*
X0000338760Y0000325290D01*
X0000333340Y0000321060D01*
X0000327240Y0000320000D01*
X0000321820Y0000321060D01*
X0000316400Y0000326350D01*
X0000313020Y0000332700D01*
X0000312340Y0000339050D01*
X0000313700Y0000346460D01*
X0000318440Y0000351750D01*
X0000323180Y0000353870D01*
X0000329270Y0000353870D01*
G01X0000323180Y0000353870D02*
X0000319110Y0000357040D01*
X0000315730Y0000362330D01*
X0000314370Y0000368680D01*
X0000315730Y0000375030D01*
X0000319110Y0000380320D01*
X0000325210Y0000383500D01*
X0000331310Y0000382440D01*
X0000337400Y0000378210D01*
G01X0000588210Y0000825220D02*
X0000591380Y0000821160D01*
X0000593500Y0000816420D01*
X0000593500Y0000811000D01*
X0000590320Y0000804900D01*
X0000585030Y0000800160D01*
X0000578680Y0000796770D01*
X0000568100Y0000794060D01*
X0000558570Y0000793390D01*
X0000549050Y0000794740D01*
X0000542700Y0000796770D01*
X0000536350Y0000800840D01*
X0000532120Y0000805580D01*
X0000530000Y0000810320D01*
X0000530000Y0000815060D01*
X0000532120Y0000819800D01*
X0000535290Y0000823870D01*
X0000539520Y0000827250D01*
G01X0000530000Y0000866200D02*
X0000593500Y0000866200D01*
X0000580800Y0000858070D01*
G01X0000530000Y0000858070D02*
X0000530000Y0000874330D01*
G01X0000556460Y0000909210D02*
X0000563870Y0000913950D01*
X0000568100Y0000918020D01*
X0000570220Y0000923430D01*
X0000568100Y0000928180D01*
X0000563870Y0000931560D01*
X0000557520Y0000934270D01*
X0000550110Y0000934950D01*
X0000543760Y0000934270D01*
X0000537410Y0000931560D01*
X0000532120Y0000927500D01*
X0000530000Y0000922760D01*
X0000532120Y0000917340D01*
X0000538460Y0000912600D01*
X0000547990Y0000909890D01*
X0000558570Y0000909210D01*
X0000572330Y0000910560D01*
X0000579740Y0000912600D01*
X0000587150Y0000915980D01*
X0000592440Y0000920730D01*
X0000593500Y0000925470D01*
X0000591380Y0000930210D01*
X0000586090Y0000933600D01*
G01X0000604780Y0001498210D02*
X0000608840Y0001501380D01*
X0000613580Y0001503500D01*
X0000619000Y0001503500D01*
X0000625100Y0001500320D01*
X0000629840Y0001495030D01*
X0000633230Y0001488680D01*
X0000635940Y0001478100D01*
X0000636610Y0001468570D01*
X0000635260Y0001459050D01*
X0000633230Y0001452700D01*
X0000629160Y0001446350D01*
X0000624420Y0001442120D01*
X0000619680Y0001440000D01*
X0000614940Y0001440000D01*
X0000610200Y0001442120D01*
X0000606130Y0001445290D01*
X0000602750Y0001449520D01*
G01X0000563800Y0001440000D02*
X0000563800Y0001503500D01*
X0000571930Y0001490800D01*
G01X0000571930Y0001440000D02*
X0000555670Y0001440000D01*
G01X0000499790Y0001440000D02*
X0000499790Y0001503500D01*
X0000524850Y0001457990D01*
X0000490990Y0001457990D01*
G01X0000598230Y0001690000D02*
X0000598230Y0001753500D01*
X0000581290Y0001753500D01*
X0000575870Y0001750320D01*
X0000572490Y0001746090D01*
X0000571130Y0001737620D01*
X0000572490Y0001729160D01*
X0000576550Y0001723870D01*
X0000581290Y0001720690D01*
X0000598230Y0001720690D01*
G01X0000581290Y0001720690D02*
X0000571130Y0001690000D01*
G01X0000528800Y0001690000D02*
X0000528800Y0001753500D01*
X0000536930Y0001740800D01*
G01X0000536930Y0001690000D02*
X0000520670Y0001690000D01*
G01X0000474270Y0001690000D02*
X0000472920Y0001703760D01*
X0000470890Y0001715400D01*
X0000468180Y0001725980D01*
X0000464790Y0001737620D01*
X0000459370Y0001753500D01*
X0000486470Y0001753500D01*
G01X0000405000Y0001776770D02*
X0000468500Y0001776770D01*
X0000468500Y0001793710D01*
X0000465320Y0001799130D01*
X0000461090Y0001802510D01*
X0000452620Y0001803870D01*
X0000444160Y0001802510D01*
X0000438870Y0001798450D01*
X0000435690Y0001793710D01*
X0000435690Y0001776770D01*
G01X0000435690Y0001793710D02*
X0000405000Y0001803870D01*
G01X0000457920Y0001833330D02*
X0000464270Y0001837390D01*
X0000467440Y0001842140D01*
X0000468500Y0001847550D01*
X0000466380Y0001854330D01*
X0000461090Y0001859070D01*
X0000454740Y0001860420D01*
X0000448390Y0001859750D01*
X0000443100Y0001857040D01*
X0000432520Y0001843490D01*
X0000425110Y0001837390D01*
X0000414520Y0001833330D01*
X0000405000Y0001831980D01*
X0000405000Y0001860420D01*
G01X0000468500Y0001902080D02*
X0000466380Y0001896660D01*
X0000461090Y0001892600D01*
X0000454740Y0001889890D01*
X0000446270Y0001887860D01*
X0000436750Y0001887180D01*
X0000427220Y0001887860D01*
X0000418760Y0001889890D01*
X0000412410Y0001892600D01*
X0000407120Y0001896660D01*
X0000405000Y0001902080D01*
X0000407120Y0001907500D01*
X0000412410Y0001911560D01*
X0000418760Y0001914270D01*
X0000427220Y0001916300D01*
X0000436750Y0001916980D01*
X0000446270Y0001916300D01*
X0000454740Y0001914270D01*
X0000461090Y0001911560D01*
X0000466380Y0001907500D01*
X0000468500Y0001902080D01*
G01X0000954580Y0000263500D02*
X0000954580Y0000217990D01*
X0000951870Y0000208460D01*
X0000946450Y0000202120D01*
X0000939680Y0000200000D01*
X0000932910Y0000202120D01*
X0000927490Y0000208460D01*
X0000924780Y0000217990D01*
X0000924780Y0000263500D01*
G01X0000896670Y0000252920D02*
X0000892610Y0000259270D01*
X0000887860Y0000262440D01*
X0000882450Y0000263500D01*
X0000875670Y0000261380D01*
X0000870930Y0000256090D01*
X0000869580Y0000249740D01*
X0000870250Y0000243390D01*
X0000872960Y0000238100D01*
X0000886510Y0000227520D01*
X0000892610Y0000220110D01*
X0000896670Y0000209520D01*
X0000898020Y0000200000D01*
X0000869580Y0000200000D01*
G01X0000983210Y0000790220D02*
X0000986380Y0000786160D01*
X0000988500Y0000781420D01*
X0000988500Y0000776000D01*
X0000985320Y0000769900D01*
X0000980030Y0000765160D01*
X0000973680Y0000761770D01*
X0000963100Y0000759060D01*
X0000953570Y0000758390D01*
X0000944050Y0000759740D01*
X0000937700Y0000761770D01*
X0000931350Y0000765840D01*
X0000927120Y0000770580D01*
X0000925000Y0000775320D01*
X0000925000Y0000780060D01*
X0000927120Y0000784800D01*
X0000930290Y0000788870D01*
X0000934520Y0000792250D01*
G01X0000925000Y0000831200D02*
X0000988500Y0000831200D01*
X0000975800Y0000823070D01*
G01X0000925000Y0000823070D02*
X0000925000Y0000839330D01*
G01X0000934520Y0000872180D02*
X0000929230Y0000876240D01*
X0000926060Y0000880980D01*
X0000925000Y0000887080D01*
X0000927120Y0000893180D01*
X0000931350Y0000897920D01*
X0000938760Y0000901300D01*
X0000947220Y0000901980D01*
X0000955690Y0000900630D01*
X0000960980Y0000897240D01*
X0000965220Y0000892500D01*
X0000966270Y0000887760D01*
X0000965220Y0000883020D01*
X0000960980Y0000876920D01*
X0000988500Y0000878950D01*
X0000988500Y0000897240D01*
G01X0000802550Y0000760000D02*
X0000802550Y0000823500D01*
X0000776810Y0000823500D01*
G01X0000786290Y0000792810D02*
X0000802550Y0000792810D01*
G01X0000728380Y0000793870D02*
X0000725670Y0000797040D01*
X0000723640Y0000802330D01*
X0000722280Y0000809740D01*
X0000723640Y0000816090D01*
X0000726350Y0000820320D01*
X0000731090Y0000823500D01*
X0000749380Y0000823500D01*
X0000749380Y0000760000D01*
X0000727030Y0000760000D01*
X0000722280Y0000764230D01*
X0000719580Y0000770580D01*
X0000718220Y0000777990D01*
X0000719580Y0000785400D01*
X0000723640Y0000791750D01*
X0000728380Y0000793870D01*
X0000749380Y0000793870D01*
G01X0000690790Y0000812920D02*
X0000686730Y0000819270D01*
X0000681980Y0000822440D01*
X0000676570Y0000823500D01*
X0000669790Y0000821380D01*
X0000665050Y0000816090D01*
X0000663700Y0000809740D01*
X0000664370Y0000803390D01*
X0000667080Y0000798100D01*
X0000680630Y0000787520D01*
X0000686730Y0000780110D01*
X0000690790Y0000769520D01*
X0000692140Y0000760000D01*
X0000663700Y0000760000D01*
G01X0000899580Y0001115000D02*
X0000899580Y0001178500D01*
X0000886030Y0001178500D01*
X0000880620Y0001175320D01*
X0000876550Y0001171090D01*
X0000873160Y0001164740D01*
X0000870460Y0001157330D01*
X0000869780Y0001146750D01*
X0000870460Y0001136170D01*
X0000873160Y0001128760D01*
X0000876550Y0001122410D01*
X0000880620Y0001118170D01*
X0000886030Y0001115000D01*
X0000899580Y0001115000D01*
G01X0000843700Y0001124520D02*
X0000839640Y0001119230D01*
X0000834900Y0001116060D01*
X0000828800Y0001115000D01*
X0000822700Y0001117120D01*
X0000817960Y0001121350D01*
X0000814580Y0001128760D01*
X0000813900Y0001137220D01*
X0000815250Y0001145690D01*
X0000818640Y0001150980D01*
X0000823380Y0001155220D01*
X0000828120Y0001156270D01*
X0000832860Y0001155220D01*
X0000838960Y0001150980D01*
X0000836930Y0001178500D01*
X0000818640Y0001178500D01*
G01X0000824680Y0001465000D02*
X0000830100Y0001466060D01*
X0000834840Y0001470290D01*
X0000838900Y0001476640D01*
X0000841610Y0001484050D01*
X0000842970Y0001492520D01*
X0000842970Y0001500980D01*
X0000841610Y0001509450D01*
X0000838900Y0001516860D01*
X0000834840Y0001523210D01*
X0000830100Y0001527440D01*
X0000824680Y0001528500D01*
X0000819260Y0001527440D01*
X0000814520Y0001523210D01*
X0000810460Y0001516860D01*
X0000807750Y0001509450D01*
X0000806390Y0001500980D01*
X0000806390Y0001492520D01*
X0000807750Y0001484050D01*
X0000810460Y0001476640D01*
X0000814520Y0001470290D01*
X0000819260Y0001466060D01*
X0000824680Y0001465000D01*
G01X0000819260Y0001481930D02*
X0000811130Y0001465000D01*
G01X0000783700Y0001477700D02*
X0000779640Y0001470290D01*
X0000774220Y0001466060D01*
X0000768120Y0001465000D01*
X0000762700Y0001466060D01*
X0000757280Y0001471350D01*
X0000753900Y0001477700D01*
X0000753220Y0001484050D01*
X0000754580Y0001491460D01*
X0000759320Y0001496750D01*
X0000764060Y0001498870D01*
X0000770150Y0001498870D01*
G01X0000764060Y0001498870D02*
X0000759990Y0001502040D01*
X0000756610Y0001507330D01*
X0000755250Y0001513680D01*
X0000756610Y0001520030D01*
X0000759990Y0001525320D01*
X0000766090Y0001528500D01*
X0000772190Y0001527440D01*
X0000778280Y0001523210D01*
G01X0000818230Y0001855000D02*
X0000818230Y0001918500D01*
X0000801290Y0001918500D01*
X0000795870Y0001915320D01*
X0000792490Y0001911090D01*
X0000791130Y0001902620D01*
X0000792490Y0001894160D01*
X0000796550Y0001888870D01*
X0000801290Y0001885690D01*
X0000818230Y0001885690D01*
G01X0000801290Y0001885690D02*
X0000791130Y0001855000D01*
G01X0000748800Y0001855000D02*
X0000748800Y0001918500D01*
X0000756930Y0001905800D01*
G01X0000756930Y0001855000D02*
X0000740670Y0001855000D01*
G01X0000707820Y0001864520D02*
X0000703760Y0001859230D01*
X0000699020Y0001856060D01*
X0000692920Y0001855000D01*
X0000686820Y0001857120D01*
X0000682080Y0001861350D01*
X0000678700Y0001868760D01*
X0000678020Y0001877220D01*
X0000679370Y0001885690D01*
X0000682760Y0001890980D01*
X0000687500Y0001895220D01*
X0000692240Y0001896270D01*
X0000696980Y0001895220D01*
X0000703080Y0001890980D01*
X0000701050Y0001918500D01*
X0000682760Y0001918500D01*
G01X0001269780Y0000128210D02*
X0001273840Y0000131380D01*
X0001278580Y0000133500D01*
X0001284000Y0000133500D01*
X0001290100Y0000130320D01*
X0001294840Y0000125030D01*
X0001298230Y0000118680D01*
X0001300940Y0000108100D01*
X0001301610Y0000098570D01*
X0001300260Y0000089050D01*
X0001298230Y0000082700D01*
X0001294160Y0000076350D01*
X0001289420Y0000072120D01*
X0001284680Y0000070000D01*
X0001279940Y0000070000D01*
X0001275200Y0000072120D01*
X0001271130Y0000075290D01*
X0001267750Y0000079520D01*
G01X0001228800Y0000070000D02*
X0001228800Y0000133500D01*
X0001236930Y0000120800D01*
G01X0001236930Y0000070000D02*
X0001220670Y0000070000D01*
G01X0001294580Y0000475000D02*
X0001294580Y0000538500D01*
X0001281030Y0000538500D01*
X0001275620Y0000535320D01*
X0001271550Y0000531090D01*
X0001268160Y0000524740D01*
X0001265460Y0000517330D01*
X0001264780Y0000506750D01*
X0001265460Y0000496170D01*
X0001268160Y0000488760D01*
X0001271550Y0000482410D01*
X0001275620Y0000478170D01*
X0001281030Y0000475000D01*
X0001294580Y0000475000D01*
G01X0001223800Y0000475000D02*
X0001223800Y0000538500D01*
X0001231930Y0000525800D01*
G01X0001231930Y0000475000D02*
X0001215670Y0000475000D01*
G01X0001127210Y0001008740D02*
X0001127210Y0000952310D01*
X0001123320Y0000940500D01*
X0001115530Y0000932620D01*
X0001105790Y0000930000D01*
X0001096050Y0000932620D01*
X0001088260Y0000940500D01*
X0001084370Y0000952310D01*
X0001084370Y0001008740D01*
G01X0001045550Y0000962810D02*
X0001038730Y0000972000D01*
X0001032890Y0000977240D01*
X0001025100Y0000979870D01*
X0001018290Y0000977240D01*
X0001013420Y0000972000D01*
X0001009520Y0000964120D01*
X0001008550Y0000954930D01*
X0001009520Y0000947060D01*
X0001013420Y0000939180D01*
X0001019260Y0000932620D01*
X0001026080Y0000930000D01*
X0001033870Y0000932620D01*
X0001040680Y0000940500D01*
X0001044580Y0000952310D01*
X0001045550Y0000965430D01*
X0001043600Y0000982490D01*
X0001040680Y0000991680D01*
X0001035810Y0001000870D01*
X0001029000Y0001007430D01*
X0001022180Y0001008740D01*
X0001015370Y0001006120D01*
X0001010500Y0000999550D01*
G01X0001472500Y0001145000D02*
X0001472500Y0000855000D01*
X0001157500Y0000855000D01*
X0001157500Y0001145000D01*
X0001472500Y0001145000D01*
G01X0001145000Y0001376770D02*
X0001208500Y0001376770D01*
X0001208500Y0001393710D01*
X0001205320Y0001399130D01*
X0001201090Y0001402510D01*
X0001192620Y0001403870D01*
X0001184160Y0001402510D01*
X0001178870Y0001398450D01*
X0001175690Y0001393710D01*
X0001175690Y0001376770D01*
G01X0001175690Y0001393710D02*
X0001145000Y0001403870D01*
G01X0001145000Y0001446200D02*
X0001208500Y0001446200D01*
X0001195800Y0001438070D01*
G01X0001145000Y0001438070D02*
X0001145000Y0001454330D01*
G01X0001152410Y0001490560D02*
X0001147120Y0001495310D01*
X0001145000Y0001500730D01*
X0001147120Y0001506140D01*
X0001153460Y0001510890D01*
X0001162990Y0001514270D01*
X0001172520Y0001515630D01*
X0001184160Y0001515630D01*
X0001193680Y0001514270D01*
X0001202150Y0001510890D01*
X0001206380Y0001506820D01*
X0001208500Y0001502080D01*
X0001206380Y0001496660D01*
X0001202150Y0001492600D01*
X0001195800Y0001489890D01*
X0001187330Y0001488530D01*
X0001179930Y0001489890D01*
X0001172520Y0001493270D01*
X0001168280Y0001497340D01*
X0001167220Y0001502080D01*
X0001169340Y0001507500D01*
X0001174630Y0001511560D01*
X0001184160Y0001515630D01*
G01X0001055000Y0001801770D02*
X0001118500Y0001801770D01*
X0001118500Y0001818710D01*
X0001115320Y0001824130D01*
X0001111090Y0001827510D01*
X0001102620Y0001828870D01*
X0001094160Y0001827510D01*
X0001088870Y0001823450D01*
X0001085690Y0001818710D01*
X0001085690Y0001801770D01*
G01X0001085690Y0001818710D02*
X0001055000Y0001828870D01*
G01X0001055000Y0001871200D02*
X0001118500Y0001871200D01*
X0001105800Y0001863070D01*
G01X0001055000Y0001863070D02*
X0001055000Y0001879330D01*
G01X0001055000Y0001927080D02*
X0001056060Y0001931820D01*
X0001059230Y0001937240D01*
X0001064520Y0001940630D01*
X0001071930Y0001941980D01*
X0001079340Y0001940630D01*
X0001085690Y0001936560D01*
X0001088870Y0001930470D01*
X0001088870Y0001923690D01*
X0001090980Y0001919630D01*
X0001096270Y0001916240D01*
X0001103680Y0001914890D01*
X0001111090Y0001916920D01*
X0001116380Y0001921660D01*
X0001118500Y0001927080D01*
X0001116380Y0001932500D01*
X0001111090Y0001937240D01*
X0001103680Y0001939270D01*
X0001096270Y0001937920D01*
X0001090980Y0001934530D01*
X0001088870Y0001930470D01*
X0001088870Y0001923690D01*
X0001085690Y0001917600D01*
X0001079340Y0001913530D01*
X0001071930Y0001912180D01*
X0001064520Y0001913530D01*
X0001059230Y0001916920D01*
X0001056060Y0001922340D01*
X0001055000Y0001927080D01*
G01X0001539580Y0000100000D02*
X0001539580Y0000163500D01*
X0001526030Y0000163500D01*
X0001520620Y0000160320D01*
X0001516550Y0000156090D01*
X0001513160Y0000149740D01*
X0001510460Y0000142330D01*
X0001509780Y0000131750D01*
X0001510460Y0000121170D01*
X0001513160Y0000113760D01*
X0001516550Y0000107410D01*
X0001520620Y0000103170D01*
X0001526030Y0000100000D01*
X0001539580Y0000100000D01*
G01X0001481670Y0000152920D02*
X0001477610Y0000159270D01*
X0001472860Y0000162440D01*
X0001467450Y0000163500D01*
X0001460670Y0000161380D01*
X0001455930Y0000156090D01*
X0001454580Y0000149740D01*
X0001455250Y0000143390D01*
X0001457960Y0000138100D01*
X0001471510Y0000127520D01*
X0001477610Y0000120110D01*
X0001481670Y0000109520D01*
X0001483020Y0000100000D01*
X0001454580Y0000100000D01*
G01X0001385000Y0000496770D02*
X0001448500Y0000496770D01*
X0001448500Y0000513710D01*
X0001445320Y0000519130D01*
X0001441090Y0000522510D01*
X0001432620Y0000523870D01*
X0001424160Y0000522510D01*
X0001418870Y0000518450D01*
X0001415690Y0000513710D01*
X0001415690Y0000496770D01*
G01X0001415690Y0000513710D02*
X0001385000Y0000523870D01*
G01X0001394520Y0000551300D02*
X0001389230Y0000555360D01*
X0001386060Y0000560100D01*
X0001385000Y0000566200D01*
X0001387120Y0000572300D01*
X0001391350Y0000577040D01*
X0001398760Y0000580420D01*
X0001407220Y0000581100D01*
X0001415690Y0000579750D01*
X0001420980Y0000576360D01*
X0001425220Y0000571620D01*
X0001426270Y0000566880D01*
X0001425220Y0000562140D01*
X0001420980Y0000556040D01*
X0001448500Y0000558070D01*
X0001448500Y0000576360D01*
G01X0001718230Y0000830000D02*
X0001718230Y0000893500D01*
X0001701290Y0000893500D01*
X0001695870Y0000890320D01*
X0001692490Y0000886090D01*
X0001691130Y0000877620D01*
X0001692490Y0000869160D01*
X0001696550Y0000863870D01*
X0001701290Y0000860690D01*
X0001718230Y0000860690D01*
G01X0001701290Y0000860690D02*
X0001691130Y0000830000D01*
G01X0001663700Y0000842700D02*
X0001659640Y0000835290D01*
X0001654220Y0000831060D01*
X0001648120Y0000830000D01*
X0001642700Y0000831060D01*
X0001637280Y0000836350D01*
X0001633900Y0000842700D01*
X0001633220Y0000849050D01*
X0001634580Y0000856460D01*
X0001639320Y0000861750D01*
X0001644060Y0000863870D01*
X0001650150Y0000863870D01*
G01X0001644060Y0000863870D02*
X0001639990Y0000867040D01*
X0001636610Y0000872330D01*
X0001635250Y0000878680D01*
X0001636610Y0000885030D01*
X0001639990Y0000890320D01*
X0001646090Y0000893500D01*
X0001652190Y0000892440D01*
X0001658280Y0000888210D01*
G01X0001625000Y0001542500D02*
X0001335000Y0001542500D01*
X0001335000Y0001857500D01*
X0001625000Y0001857500D01*
X0001625000Y0001542500D01*
G01X0001527210Y0001953740D02*
X0001527210Y0001897310D01*
X0001523320Y0001885500D01*
X0001515530Y0001877620D01*
X0001505790Y0001875000D01*
X0001496050Y0001877620D01*
X0001488260Y0001885500D01*
X0001484370Y0001897310D01*
X0001484370Y0001953740D01*
G01X0001429000Y0001875000D02*
X0001427050Y0001892060D01*
X0001424130Y0001906490D01*
X0001420230Y0001919620D01*
X0001415370Y0001934050D01*
X0001407580Y0001953740D01*
X0001446520Y0001953740D01*
G01X0001874580Y0000173500D02*
X0001874580Y0000127990D01*
X0001871870Y0000118460D01*
X0001866450Y0000112120D01*
X0001859680Y0000110000D01*
X0001852910Y0000112120D01*
X0001847490Y0000118460D01*
X0001844780Y0000127990D01*
X0001844780Y0000173500D01*
G01X0001803800Y0000110000D02*
X0001803800Y0000173500D01*
X0001811930Y0000160800D01*
G01X0001811930Y0000110000D02*
X0001795670Y0000110000D01*
G01X0001798210Y0000555220D02*
X0001801380Y0000551160D01*
X0001803500Y0000546420D01*
X0001803500Y0000541000D01*
X0001800320Y0000534900D01*
X0001795030Y0000530160D01*
X0001788680Y0000526770D01*
X0001778100Y0000524060D01*
X0001768570Y0000523390D01*
X0001759050Y0000524740D01*
X0001752700Y0000526770D01*
X0001746350Y0000530840D01*
X0001742120Y0000535580D01*
X0001740000Y0000540320D01*
X0001740000Y0000545060D01*
X0001742120Y0000549800D01*
X0001745290Y0000553870D01*
X0001749520Y0000557250D01*
G01X0001766460Y0000583330D02*
X0001773870Y0000588070D01*
X0001778100Y0000592140D01*
X0001780220Y0000597550D01*
X0001778100Y0000602300D01*
X0001773870Y0000605680D01*
X0001767520Y0000608390D01*
X0001760110Y0000609070D01*
X0001753760Y0000608390D01*
X0001747410Y0000605680D01*
X0001742120Y0000601620D01*
X0001740000Y0000596880D01*
X0001742120Y0000591460D01*
X0001748460Y0000586720D01*
X0001757990Y0000584010D01*
X0001768570Y0000583330D01*
X0001782330Y0000584680D01*
X0001789740Y0000586720D01*
X0001797150Y0000590100D01*
X0001802440Y0000594850D01*
X0001803500Y0000599590D01*
X0001801380Y0000604330D01*
X0001796090Y0000607720D01*
G01X0001869580Y0000933500D02*
X0001869580Y0000887990D01*
X0001866870Y0000878460D01*
X0001861450Y0000872120D01*
X0001854680Y0000870000D01*
X0001847910Y0000872120D01*
X0001842490Y0000878460D01*
X0001839780Y0000887990D01*
X0001839780Y0000933500D01*
G01X0001813700Y0000882700D02*
X0001809640Y0000875290D01*
X0001804220Y0000871060D01*
X0001798120Y0000870000D01*
X0001792700Y0000871060D01*
X0001787280Y0000876350D01*
X0001783900Y0000882700D01*
X0001783220Y0000889050D01*
X0001784580Y0000896460D01*
X0001789320Y0000901750D01*
X0001794060Y0000903870D01*
X0001800150Y0000903870D01*
G01X0001794060Y0000903870D02*
X0001789990Y0000907040D01*
X0001786610Y0000912330D01*
X0001785250Y0000918680D01*
X0001786610Y0000925030D01*
X0001789990Y0000930320D01*
X0001796090Y0000933500D01*
X0001802190Y0000932440D01*
X0001808280Y0000928210D01*
G01X0002244680Y0000125000D02*
X0002250100Y0000126060D01*
X0002254840Y0000130290D01*
X0002258900Y0000136640D01*
X0002261610Y0000144050D01*
X0002262970Y0000152520D01*
X0002262970Y0000160980D01*
X0002261610Y0000169450D01*
X0002258900Y0000176860D01*
X0002254840Y0000183210D01*
X0002250100Y0000187440D01*
X0002244680Y0000188500D01*
X0002239260Y0000187440D01*
X0002234520Y0000183210D01*
X0002230460Y0000176860D01*
X0002227750Y0000169450D01*
X0002226390Y0000160980D01*
X0002226390Y0000152520D01*
X0002227750Y0000144050D01*
X0002230460Y0000136640D01*
X0002234520Y0000130290D01*
X0002239260Y0000126060D01*
X0002244680Y0000125000D01*
G01X0002239260Y0000141930D02*
X0002231130Y0000125000D01*
G01X0002188800Y0000125000D02*
X0002188800Y0000188500D01*
X0002196930Y0000175800D01*
G01X0002196930Y0000125000D02*
X0002180670Y0000125000D01*
G01X0002388230Y0001100000D02*
X0002388230Y0001163500D01*
X0002371290Y0001163500D01*
X0002365870Y0001160320D01*
X0002362490Y0001156090D01*
X0002361130Y0001147620D01*
X0002362490Y0001139160D01*
X0002366550Y0001133870D01*
X0002371290Y0001130690D01*
X0002388230Y0001130690D01*
G01X0002371290Y0001130690D02*
X0002361130Y0001100000D01*
G01X0002320150Y0001100000D02*
X0002318800Y0001113760D01*
X0002316770Y0001125400D01*
X0002314060Y0001135980D01*
X0002310670Y0001147620D01*
X0002305250Y0001163500D01*
X0002332350Y0001163500D01*
G01X0002089780Y0001183210D02*
X0002093840Y0001186380D01*
X0002098580Y0001188500D01*
X0002104000Y0001188500D01*
X0002110100Y0001185320D01*
X0002114840Y0001180030D01*
X0002118230Y0001173680D01*
X0002120940Y0001163100D01*
X0002121610Y0001153570D01*
X0002120260Y0001144050D01*
X0002118230Y0001137700D01*
X0002114160Y0001131350D01*
X0002109420Y0001127120D01*
X0002104680Y0001125000D01*
X0002099940Y0001125000D01*
X0002095200Y0001127120D01*
X0002091130Y0001130290D01*
X0002087750Y0001134520D01*
G01X0002040670Y0001125000D02*
X0002040670Y0001188500D01*
X0002065730Y0001142990D01*
X0002031870Y0001142990D01*
G01X0002648210Y0000270220D02*
X0002651380Y0000266160D01*
X0002653500Y0000261420D01*
X0002653500Y0000256000D01*
X0002650320Y0000249900D01*
X0002645030Y0000245160D01*
X0002638680Y0000241770D01*
X0002628100Y0000239060D01*
X0002618570Y0000238390D01*
X0002609050Y0000239740D01*
X0002602700Y0000241770D01*
X0002596350Y0000245840D01*
X0002592120Y0000250580D01*
X0002590000Y0000255320D01*
X0002590000Y0000260060D01*
X0002592120Y0000264800D01*
X0002595290Y0000268870D01*
X0002599520Y0000272250D01*
G01X0002602700Y0000296300D02*
X0002595290Y0000300360D01*
X0002591060Y0000305780D01*
X0002590000Y0000311880D01*
X0002591060Y0000317300D01*
X0002596350Y0000322720D01*
X0002602700Y0000326100D01*
X0002609050Y0000326780D01*
X0002616460Y0000325420D01*
X0002621750Y0000320680D01*
X0002623870Y0000315940D01*
X0002623870Y0000309850D01*
G01X0002623870Y0000315940D02*
X0002627040Y0000320010D01*
X0002632330Y0000323390D01*
X0002638680Y0000324750D01*
X0002645030Y0000323390D01*
X0002650320Y0000320010D01*
X0002653500Y0000313910D01*
X0002652440Y0000307810D01*
X0002648210Y0000301720D01*
G01X0002468230Y0000150000D02*
X0002468230Y0000213500D01*
X0002451290Y0000213500D01*
X0002445870Y0000210320D01*
X0002442490Y0000206090D01*
X0002441130Y0000197620D01*
X0002442490Y0000189160D01*
X0002446550Y0000183870D01*
X0002451290Y0000180690D01*
X0002468230Y0000180690D01*
G01X0002451290Y0000180690D02*
X0002441130Y0000150000D01*
G01X0002411670Y0000202920D02*
X0002407610Y0000209270D01*
X0002402860Y0000212440D01*
X0002397450Y0000213500D01*
X0002390670Y0000211380D01*
X0002385930Y0000206090D01*
X0002384580Y0000199740D01*
X0002385250Y0000193390D01*
X0002387960Y0000188100D01*
X0002401510Y0000177520D01*
X0002407610Y0000170110D01*
X0002411670Y0000159520D01*
X0002413020Y0000150000D01*
X0002384580Y0000150000D01*
G01X0002488230Y0000450000D02*
X0002488230Y0000513500D01*
X0002471290Y0000513500D01*
X0002465870Y0000510320D01*
X0002462490Y0000506090D01*
X0002461130Y0000497620D01*
X0002462490Y0000489160D01*
X0002466550Y0000483870D01*
X0002471290Y0000480690D01*
X0002488230Y0000480690D01*
G01X0002471290Y0000480690D02*
X0002461130Y0000450000D01*
G01X0002410670Y0000450000D02*
X0002410670Y0000513500D01*
X0002435730Y0000467990D01*
X0002401870Y0000467990D01*
G01X0002569680Y0000740000D02*
X0002575100Y0000741060D01*
X0002579840Y0000745290D01*
X0002583900Y0000751640D01*
X0002586610Y0000759050D01*
X0002587970Y0000767520D01*
X0002587970Y0000775980D01*
X0002586610Y0000784450D01*
X0002583900Y0000791860D01*
X0002579840Y0000798210D01*
X0002575100Y0000802440D01*
X0002569680Y0000803500D01*
X0002564260Y0000802440D01*
X0002559520Y0000798210D01*
X0002555460Y0000791860D01*
X0002552750Y0000784450D01*
X0002551390Y0000775980D01*
X0002551390Y0000767520D01*
X0002552750Y0000759050D01*
X0002555460Y0000751640D01*
X0002559520Y0000745290D01*
X0002564260Y0000741060D01*
X0002569680Y0000740000D01*
G01X0002564260Y0000756930D02*
X0002556130Y0000740000D01*
G01X0002526670Y0000792920D02*
X0002522610Y0000799270D01*
X0002517860Y0000802440D01*
X0002512450Y0000803500D01*
X0002505670Y0000801380D01*
X0002500930Y0000796090D01*
X0002499580Y0000789740D01*
X0002500250Y0000783390D01*
X0002502960Y0000778100D01*
X0002516510Y0000767520D01*
X0002522610Y0000760110D01*
X0002526670Y0000749520D01*
X0002528020Y0000740000D01*
X0002499580Y0000740000D01*
G01X0002564780Y0001443210D02*
X0002568840Y0001446380D01*
X0002573580Y0001448500D01*
X0002579000Y0001448500D01*
X0002585100Y0001445320D01*
X0002589840Y0001440030D01*
X0002593230Y0001433680D01*
X0002595940Y0001423100D01*
X0002596610Y0001413570D01*
X0002595260Y0001404050D01*
X0002593230Y0001397700D01*
X0002589160Y0001391350D01*
X0002584420Y0001387120D01*
X0002579680Y0001385000D01*
X0002574940Y0001385000D01*
X0002570200Y0001387120D01*
X0002566130Y0001390290D01*
X0002562750Y0001394520D01*
G01X0002523800Y0001385000D02*
X0002523800Y0001448500D01*
X0002531930Y0001435800D01*
G01X0002531930Y0001385000D02*
X0002515670Y0001385000D01*
G01X0002467920Y0001448500D02*
X0002473340Y0001446380D01*
X0002477400Y0001441090D01*
X0002480110Y0001434740D01*
X0002482140Y0001426270D01*
X0002482820Y0001416750D01*
X0002482140Y0001407220D01*
X0002480110Y0001398760D01*
X0002477400Y0001392410D01*
X0002473340Y0001387120D01*
X0002467920Y0001385000D01*
X0002462500Y0001387120D01*
X0002458440Y0001392410D01*
X0002455730Y0001398760D01*
X0002453700Y0001407220D01*
X0002453020Y0001416750D01*
X0002453700Y0001426270D01*
X0002455730Y0001434740D01*
X0002458440Y0001441090D01*
X0002462500Y0001446380D01*
X0002467920Y0001448500D01*
G01X0002603500Y0001556500D02*
X0002476500Y0001556500D01*
X0002476500Y0001683500D01*
X0002603500Y0001683500D01*
X0002603500Y0001556500D01*
G01X0002700000Y0001641770D02*
X0002763500Y0001641770D01*
X0002763500Y0001658710D01*
X0002760320Y0001664130D01*
X0002756090Y0001667510D01*
X0002747620Y0001668870D01*
X0002739160Y0001667510D01*
X0002733870Y0001663450D01*
X0002730690Y0001658710D01*
X0002730690Y0001641770D01*
G01X0002730690Y0001658710D02*
X0002700000Y0001668870D01*
G01X0002700000Y0001711200D02*
X0002763500Y0001711200D01*
X0002750800Y0001703070D01*
G01X0002700000Y0001703070D02*
X0002700000Y0001719330D01*
G01X0002726460Y0001754210D02*
X0002733870Y0001758950D01*
X0002738100Y0001763020D01*
X0002740220Y0001768430D01*
X0002738100Y0001773180D01*
X0002733870Y0001776560D01*
X0002727520Y0001779270D01*
X0002720110Y0001779950D01*
X0002713760Y0001779270D01*
X0002707410Y0001776560D01*
X0002702120Y0001772500D01*
X0002700000Y0001767760D01*
X0002702120Y0001762340D01*
X0002708460Y0001757600D01*
X0002717990Y0001754890D01*
X0002728570Y0001754210D01*
X0002742330Y0001755560D01*
X0002749740Y0001757600D01*
X0002757150Y0001760980D01*
X0002762440Y0001765730D01*
X0002763500Y0001770470D01*
X0002761380Y0001775210D01*
X0002756090Y0001778600D01*
G01X0003395000Y0000625000D02*
X0002695000Y0000625000D01*
X0002695000Y0001325000D01*
X0003395000Y0001325000D01*
X0003395000Y0000625000D01*
G01X0003053210Y0001745220D02*
X0003056380Y0001741160D01*
X0003058500Y0001736420D01*
X0003058500Y0001731000D01*
X0003055320Y0001724900D01*
X0003050030Y0001720160D01*
X0003043680Y0001716770D01*
X0003033100Y0001714060D01*
X0003023570Y0001713390D01*
X0003014050Y0001714740D01*
X0003007700Y0001716770D01*
X0003001350Y0001720840D01*
X0002997120Y0001725580D01*
X0002995000Y0001730320D01*
X0002995000Y0001735060D01*
X0002997120Y0001739800D01*
X0003000290Y0001743870D01*
X0003004520Y0001747250D01*
G01X0002995000Y0001786200D02*
X0003058500Y0001786200D01*
X0003045800Y0001778070D01*
G01X0002995000Y0001778070D02*
X0002995000Y0001794330D01*
G01X0002995000Y0001842080D02*
X0003058500Y0001842080D01*
X0003045800Y0001833950D01*
G01X0002995000Y0001833950D02*
X0002995000Y0001850210D01*
G01X0002918210Y0001750220D02*
X0002921380Y0001746160D01*
X0002923500Y0001741420D01*
X0002923500Y0001736000D01*
X0002920320Y0001729900D01*
X0002915030Y0001725160D01*
X0002908680Y0001721770D01*
X0002898100Y0001719060D01*
X0002888570Y0001718390D01*
X0002879050Y0001719740D01*
X0002872700Y0001721770D01*
X0002866350Y0001725840D01*
X0002862120Y0001730580D01*
X0002860000Y0001735320D01*
X0002860000Y0001740060D01*
X0002862120Y0001744800D01*
X0002865290Y0001748870D01*
X0002869520Y0001752250D01*
G01X0002860000Y0001791200D02*
X0002923500Y0001791200D01*
X0002910800Y0001783070D01*
G01X0002860000Y0001783070D02*
X0002860000Y0001799330D01*
G01X0002860000Y0001847080D02*
X0002861060Y0001851820D01*
X0002864230Y0001857240D01*
X0002869520Y0001860630D01*
X0002876930Y0001861980D01*
X0002884340Y0001860630D01*
X0002890690Y0001856560D01*
X0002893870Y0001850470D01*
X0002893870Y0001843690D01*
X0002895980Y0001839630D01*
X0002901270Y0001836240D01*
X0002908680Y0001834890D01*
X0002916090Y0001836920D01*
X0002921380Y0001841660D01*
X0002923500Y0001847080D01*
X0002921380Y0001852500D01*
X0002916090Y0001857240D01*
X0002908680Y0001859270D01*
X0002901270Y0001857920D01*
X0002895980Y0001854530D01*
X0002893870Y0001850470D01*
X0002893870Y0001843690D01*
X0002890690Y0001837600D01*
X0002884340Y0001833530D01*
X0002876930Y0001832180D01*
X0002869520Y0001833530D01*
X0002864230Y0001836920D01*
X0002861060Y0001842340D01*
X0002860000Y0001847080D01*
G01X0003144780Y0000258210D02*
X0003148840Y0000261380D01*
X0003153580Y0000263500D01*
X0003159000Y0000263500D01*
X0003165100Y0000260320D01*
X0003169840Y0000255030D01*
X0003173230Y0000248680D01*
X0003175940Y0000238100D01*
X0003176610Y0000228570D01*
X0003175260Y0000219050D01*
X0003173230Y0000212700D01*
X0003169160Y0000206350D01*
X0003164420Y0000202120D01*
X0003159680Y0000200000D01*
X0003154940Y0000200000D01*
X0003150200Y0000202120D01*
X0003146130Y0000205290D01*
X0003142750Y0000209520D01*
G01X0003115320Y0000207410D02*
X0003110570Y0000202120D01*
X0003105150Y0000200000D01*
X0003099740Y0000202120D01*
X0003094990Y0000208460D01*
X0003091610Y0000217990D01*
X0003090250Y0000227520D01*
X0003090250Y0000239160D01*
X0003091610Y0000248680D01*
X0003094990Y0000257150D01*
X0003099060Y0000261380D01*
X0003103800Y0000263500D01*
X0003109220Y0000261380D01*
X0003113280Y0000257150D01*
X0003115990Y0000250800D01*
X0003117350Y0000242330D01*
X0003115990Y0000234930D01*
X0003112610Y0000227520D01*
X0003108540Y0000223280D01*
X0003103800Y0000222220D01*
X0003098380Y0000224340D01*
X0003094320Y0000229630D01*
X0003090250Y0000239160D01*
G01X0003362210Y0001468740D02*
X0003362210Y0001412310D01*
X0003358320Y0001400500D01*
X0003350530Y0001392620D01*
X0003340790Y0001390000D01*
X0003331050Y0001392620D01*
X0003323260Y0001400500D01*
X0003319370Y0001412310D01*
X0003319370Y0001468740D01*
G01X0003250370Y0001390000D02*
X0003250370Y0001468740D01*
X0003286390Y0001412310D01*
X0003237710Y0001412310D01*
G01X0003398500Y0001576500D02*
X0003271500Y0001576500D01*
X0003271500Y0001703500D01*
X0003398500Y0001703500D01*
X0003398500Y0001576500D01*
G01X0003183210Y0001740220D02*
X0003186380Y0001736160D01*
X0003188500Y0001731420D01*
X0003188500Y0001726000D01*
X0003185320Y0001719900D01*
X0003180030Y0001715160D01*
X0003173680Y0001711770D01*
X0003163100Y0001709060D01*
X0003153570Y0001708390D01*
X0003144050Y0001709740D01*
X0003137700Y0001711770D01*
X0003131350Y0001715840D01*
X0003127120Y0001720580D01*
X0003125000Y0001725320D01*
X0003125000Y0001730060D01*
X0003127120Y0001734800D01*
X0003130290Y0001738870D01*
X0003134520Y0001742250D01*
G01X0003125000Y0001781200D02*
X0003188500Y0001781200D01*
X0003175800Y0001773070D01*
G01X0003125000Y0001773070D02*
X0003125000Y0001789330D01*
G01X0003125000Y0001835730D02*
X0003138760Y0001837080D01*
X0003150400Y0001839110D01*
X0003160980Y0001841820D01*
X0003172620Y0001845210D01*
X0003188500Y0001850630D01*
X0003188500Y0001823530D01*
G01X0003852550Y0000525000D02*
X0003852550Y0000588500D01*
X0003826810Y0000588500D01*
G01X0003836290Y0000557810D02*
X0003852550Y0000557810D01*
G01X0003778380Y0000558870D02*
X0003775670Y0000562040D01*
X0003773640Y0000567330D01*
X0003772280Y0000574740D01*
X0003773640Y0000581090D01*
X0003776350Y0000585320D01*
X0003781090Y0000588500D01*
X0003799380Y0000588500D01*
X0003799380Y0000525000D01*
X0003777030Y0000525000D01*
X0003772280Y0000529230D01*
X0003769580Y0000535580D01*
X0003768220Y0000542990D01*
X0003769580Y0000550400D01*
X0003773640Y0000556750D01*
X0003778380Y0000558870D01*
X0003799380Y0000558870D01*
G01X0003727920Y0000525000D02*
X0003727920Y0000588500D01*
X0003736050Y0000575800D01*
G01X0003736050Y0000525000D02*
X0003719790Y0000525000D01*
G01X0003568210Y0000920220D02*
X0003571380Y0000916160D01*
X0003573500Y0000911420D01*
X0003573500Y0000906000D01*
X0003570320Y0000899900D01*
X0003565030Y0000895160D01*
X0003558680Y0000891770D01*
X0003548100Y0000889060D01*
X0003538570Y0000888390D01*
X0003529050Y0000889740D01*
X0003522700Y0000891770D01*
X0003516350Y0000895840D01*
X0003512120Y0000900580D01*
X0003510000Y0000905320D01*
X0003510000Y0000910060D01*
X0003512120Y0000914800D01*
X0003515290Y0000918870D01*
X0003519520Y0000922250D01*
G01X0003510000Y0000961200D02*
X0003573500Y0000961200D01*
X0003560800Y0000953070D01*
G01X0003510000Y0000953070D02*
X0003510000Y0000969330D01*
G01X0003562920Y0001004210D02*
X0003569270Y0001008270D01*
X0003572440Y0001013020D01*
X0003573500Y0001018430D01*
X0003571380Y0001025210D01*
X0003566090Y0001029950D01*
X0003559740Y0001031300D01*
X0003553390Y0001030630D01*
X0003548100Y0001027920D01*
X0003537520Y0001014370D01*
X0003530110Y0001008270D01*
X0003519520Y0001004210D01*
X0003510000Y0001002860D01*
X0003510000Y0001031300D01*
G01X0003518210Y0000730220D02*
X0003521380Y0000726160D01*
X0003523500Y0000721420D01*
X0003523500Y0000716000D01*
X0003520320Y0000709900D01*
X0003515030Y0000705160D01*
X0003508680Y0000701770D01*
X0003498100Y0000699060D01*
X0003488570Y0000698390D01*
X0003479050Y0000699740D01*
X0003472700Y0000701770D01*
X0003466350Y0000705840D01*
X0003462120Y0000710580D01*
X0003460000Y0000715320D01*
X0003460000Y0000720060D01*
X0003462120Y0000724800D01*
X0003465290Y0000728870D01*
X0003469520Y0000732250D01*
G01X0003460000Y0000771200D02*
X0003523500Y0000771200D01*
X0003510800Y0000763070D01*
G01X0003460000Y0000763070D02*
X0003460000Y0000779330D01*
G01X0003472700Y0000812180D02*
X0003465290Y0000816240D01*
X0003461060Y0000821660D01*
X0003460000Y0000827760D01*
X0003461060Y0000833180D01*
X0003466350Y0000838600D01*
X0003472700Y0000841980D01*
X0003479050Y0000842660D01*
X0003486460Y0000841300D01*
X0003491750Y0000836560D01*
X0003493870Y0000831820D01*
X0003493870Y0000825730D01*
G01X0003493870Y0000831820D02*
X0003497040Y0000835890D01*
X0003502330Y0000839270D01*
X0003508680Y0000840630D01*
X0003515030Y0000839270D01*
X0003520320Y0000835890D01*
X0003523500Y0000829790D01*
X0003522440Y0000823690D01*
X0003518210Y0000817600D01*
G01X0003505000Y0001210320D02*
X0003533570Y0001210320D01*
X0003568500Y0001196770D01*
G01X0003568500Y0001223870D02*
X0003533570Y0001210320D01*
G01X0003505000Y0001266200D02*
X0003568500Y0001266200D01*
X0003555800Y0001258070D01*
G01X0003505000Y0001258070D02*
X0003505000Y0001274330D01*
G01X0003558500Y0001521500D02*
X0003431500Y0001521500D01*
X0003431500Y0001648500D01*
X0003558500Y0001648500D01*
X0003558500Y0001521500D01*
G01X0003773230Y0001685000D02*
X0003773230Y0001748500D01*
X0003756290Y0001748500D01*
X0003750870Y0001745320D01*
X0003747490Y0001741090D01*
X0003746130Y0001732620D01*
X0003747490Y0001724160D01*
X0003751550Y0001718870D01*
X0003756290Y0001715690D01*
X0003773230Y0001715690D01*
G01X0003756290Y0001715690D02*
X0003746130Y0001685000D01*
G01X0003715320Y0001692410D02*
X0003710570Y0001687120D01*
X0003705150Y0001685000D01*
X0003699740Y0001687120D01*
X0003694990Y0001693460D01*
X0003691610Y0001702990D01*
X0003690250Y0001712520D01*
X0003690250Y0001724160D01*
X0003691610Y0001733680D01*
X0003694990Y0001742150D01*
X0003699060Y0001746380D01*
X0003703800Y0001748500D01*
X0003709220Y0001746380D01*
X0003713280Y0001742150D01*
X0003715990Y0001735800D01*
X0003717350Y0001727330D01*
X0003715990Y0001719930D01*
X0003712610Y0001712520D01*
X0003708540Y0001708280D01*
X0003703800Y0001707220D01*
X0003698380Y0001709340D01*
X0003694320Y0001714630D01*
X0003690250Y0001724160D01*
G01X0003773230Y0001760000D02*
X0003773230Y0001823500D01*
X0003756290Y0001823500D01*
X0003750870Y0001820320D01*
X0003747490Y0001816090D01*
X0003746130Y0001807620D01*
X0003747490Y0001799160D01*
X0003751550Y0001793870D01*
X0003756290Y0001790690D01*
X0003773230Y0001790690D01*
G01X0003756290Y0001790690D02*
X0003746130Y0001760000D01*
G01X0003703800Y0001760000D02*
X0003703800Y0001823500D01*
X0003711930Y0001810800D01*
G01X0003711930Y0001760000D02*
X0003695670Y0001760000D01*
G01X0003647920Y0001823500D02*
X0003653340Y0001821380D01*
X0003657400Y0001816090D01*
X0003660110Y0001809740D01*
X0003662140Y0001801270D01*
X0003662820Y0001791750D01*
X0003662140Y0001782220D01*
X0003660110Y0001773760D01*
X0003657400Y0001767410D01*
X0003653340Y0001762120D01*
X0003647920Y0001760000D01*
X0003642500Y0001762120D01*
X0003638440Y0001767410D01*
X0003635730Y0001773760D01*
X0003633700Y0001782220D01*
X0003633020Y0001791750D01*
X0003633700Y0001801270D01*
X0003635730Y0001809740D01*
X0003638440Y0001816090D01*
X0003642500Y0001821380D01*
X0003647920Y0001823500D01*
G01X0003905000Y0000656770D02*
X0003968500Y0000656770D01*
X0003968500Y0000673710D01*
X0003965320Y0000679130D01*
X0003961090Y0000682510D01*
X0003952620Y0000683870D01*
X0003944160Y0000682510D01*
X0003938870Y0000678450D01*
X0003935690Y0000673710D01*
X0003935690Y0000656770D01*
G01X0003935690Y0000673710D02*
X0003905000Y0000683870D01*
G01X0003931460Y0000713330D02*
X0003938870Y0000718070D01*
X0003943100Y0000722140D01*
X0003945220Y0000727550D01*
X0003943100Y0000732300D01*
X0003938870Y0000735680D01*
X0003932520Y0000738390D01*
X0003925110Y0000739070D01*
X0003918760Y0000738390D01*
X0003912410Y0000735680D01*
X0003907120Y0000731620D01*
X0003905000Y0000726880D01*
X0003907120Y0000721460D01*
X0003913460Y0000716720D01*
X0003922990Y0000714010D01*
X0003933570Y0000713330D01*
X0003947330Y0000714680D01*
X0003954740Y0000716720D01*
X0003962150Y0000720100D01*
X0003967440Y0000724850D01*
X0003968500Y0000729590D01*
X0003966380Y0000734330D01*
X0003961090Y0000737720D01*
G01X0003899780Y0001298210D02*
X0003903840Y0001301380D01*
X0003908580Y0001303500D01*
X0003914000Y0001303500D01*
X0003920100Y0001300320D01*
X0003924840Y0001295030D01*
X0003928230Y0001288680D01*
X0003930940Y0001278100D01*
X0003931610Y0001268570D01*
X0003930260Y0001259050D01*
X0003928230Y0001252700D01*
X0003924160Y0001246350D01*
X0003919420Y0001242120D01*
X0003914680Y0001240000D01*
X0003909940Y0001240000D01*
X0003905200Y0001242120D01*
X0003901130Y0001245290D01*
X0003897750Y0001249520D01*
G01X0003871670Y0001292920D02*
X0003867610Y0001299270D01*
X0003862860Y0001302440D01*
X0003857450Y0001303500D01*
X0003850670Y0001301380D01*
X0003845930Y0001296090D01*
X0003844580Y0001289740D01*
X0003845250Y0001283390D01*
X0003847960Y0001278100D01*
X0003861510Y0001267520D01*
X0003867610Y0001260110D01*
X0003871670Y0001249520D01*
X0003873020Y0001240000D01*
X0003844580Y0001240000D01*
G01X0003899780Y0001223210D02*
X0003903840Y0001226380D01*
X0003908580Y0001228500D01*
X0003914000Y0001228500D01*
X0003920100Y0001225320D01*
X0003924840Y0001220030D01*
X0003928230Y0001213680D01*
X0003930940Y0001203100D01*
X0003931610Y0001193570D01*
X0003930260Y0001184050D01*
X0003928230Y0001177700D01*
X0003924160Y0001171350D01*
X0003919420Y0001167120D01*
X0003914680Y0001165000D01*
X0003909940Y0001165000D01*
X0003905200Y0001167120D01*
X0003901130Y0001170290D01*
X0003897750Y0001174520D01*
G01X0003873700Y0001174520D02*
X0003869640Y0001169230D01*
X0003864900Y0001166060D01*
X0003858800Y0001165000D01*
X0003852700Y0001167120D01*
X0003847960Y0001171350D01*
X0003844580Y0001178760D01*
X0003843900Y0001187220D01*
X0003845250Y0001195690D01*
X0003848640Y0001200980D01*
X0003853380Y0001205220D01*
X0003858120Y0001206270D01*
X0003862860Y0001205220D01*
X0003868960Y0001200980D01*
X0003866930Y0001228500D01*
X0003848640Y0001228500D01*
G01X0004113230Y0001495000D02*
X0004113230Y0001558500D01*
X0004096290Y0001558500D01*
X0004090870Y0001555320D01*
X0004087490Y0001551090D01*
X0004086130Y0001542620D01*
X0004087490Y0001534160D01*
X0004091550Y0001528870D01*
X0004096290Y0001525690D01*
X0004113230Y0001525690D01*
G01X0004096290Y0001525690D02*
X0004086130Y0001495000D01*
G01X0004043800Y0001495000D02*
X0004039060Y0001496060D01*
X0004033640Y0001499230D01*
X0004030250Y0001504520D01*
X0004028900Y0001511930D01*
X0004030250Y0001519340D01*
X0004034320Y0001525690D01*
X0004040410Y0001528870D01*
X0004047190Y0001528870D01*
X0004051250Y0001530980D01*
X0004054640Y0001536270D01*
X0004055990Y0001543680D01*
X0004053960Y0001551090D01*
X0004049220Y0001556380D01*
X0004043800Y0001558500D01*
X0004038380Y0001556380D01*
X0004033640Y0001551090D01*
X0004031610Y0001543680D01*
X0004032960Y0001536270D01*
X0004036350Y0001530980D01*
X0004040410Y0001528870D01*
X0004047190Y0001528870D01*
X0004053280Y0001525690D01*
X0004057350Y0001519340D01*
X0004058700Y0001511930D01*
X0004057350Y0001504520D01*
X0004053960Y0001499230D01*
X0004048540Y0001496060D01*
X0004043800Y0001495000D01*
G01X0004173230Y0001595000D02*
X0004173230Y0001658500D01*
X0004156290Y0001658500D01*
X0004150870Y0001655320D01*
X0004147490Y0001651090D01*
X0004146130Y0001642620D01*
X0004147490Y0001634160D01*
X0004151550Y0001628870D01*
X0004156290Y0001625690D01*
X0004173230Y0001625690D01*
G01X0004156290Y0001625690D02*
X0004146130Y0001595000D01*
G01X0004103800Y0001595000D02*
X0004103800Y0001658500D01*
X0004111930Y0001645800D01*
G01X0004111930Y0001595000D02*
X0004095670Y0001595000D01*
G01X0004047920Y0001595000D02*
X0004047920Y0001658500D01*
X0004056050Y0001645800D01*
G01X0004056050Y0001595000D02*
X0004039790Y0001595000D01*
G01X0004169780Y0001018210D02*
X0004173840Y0001021380D01*
X0004178580Y0001023500D01*
X0004184000Y0001023500D01*
X0004190100Y0001020320D01*
X0004194840Y0001015030D01*
X0004198230Y0001008680D01*
X0004200940Y0000998100D01*
X0004201610Y0000988570D01*
X0004200260Y0000979050D01*
X0004198230Y0000972700D01*
X0004194160Y0000966350D01*
X0004189420Y0000962120D01*
X0004184680Y0000960000D01*
X0004179940Y0000960000D01*
X0004175200Y0000962120D01*
X0004171130Y0000965290D01*
X0004167750Y0000969520D01*
G01X0004130150Y0000960000D02*
X0004128800Y0000973760D01*
X0004126770Y0000985400D01*
X0004124060Y0000995980D01*
X0004120670Y0001007620D01*
X0004115250Y0001023500D01*
X0004142350Y0001023500D01*
G01X0004294580Y0000700000D02*
X0004294580Y0000763500D01*
X0004281030Y0000763500D01*
X0004275620Y0000760320D01*
X0004271550Y0000756090D01*
X0004268160Y0000749740D01*
X0004265460Y0000742330D01*
X0004264780Y0000731750D01*
X0004265460Y0000721170D01*
X0004268160Y0000713760D01*
X0004271550Y0000707410D01*
X0004275620Y0000703170D01*
X0004281030Y0000700000D01*
X0004294580Y0000700000D01*
G01X0004238700Y0000712700D02*
X0004234640Y0000705290D01*
X0004229220Y0000701060D01*
X0004223120Y0000700000D01*
X0004217700Y0000701060D01*
X0004212280Y0000706350D01*
X0004208900Y0000712700D01*
X0004208220Y0000719050D01*
X0004209580Y0000726460D01*
X0004214320Y0000731750D01*
X0004219060Y0000733870D01*
X0004225150Y0000733870D01*
G01X0004219060Y0000733870D02*
X0004214990Y0000737040D01*
X0004211610Y0000742330D01*
X0004210250Y0000748680D01*
X0004211610Y0000755030D01*
X0004214990Y0000760320D01*
X0004221090Y0000763500D01*
X0004227190Y0000762440D01*
X0004233280Y0000758210D01*
G01X0004164780Y0001393210D02*
X0004168840Y0001396380D01*
X0004173580Y0001398500D01*
X0004179000Y0001398500D01*
X0004185100Y0001395320D01*
X0004189840Y0001390030D01*
X0004193230Y0001383680D01*
X0004195940Y0001373100D01*
X0004196610Y0001363570D01*
X0004195260Y0001354050D01*
X0004193230Y0001347700D01*
X0004189160Y0001341350D01*
X0004184420Y0001337120D01*
X0004179680Y0001335000D01*
X0004174940Y0001335000D01*
X0004170200Y0001337120D01*
X0004166130Y0001340290D01*
X0004162750Y0001344520D01*
G01X0004123800Y0001335000D02*
X0004119060Y0001336060D01*
X0004113640Y0001339230D01*
X0004110250Y0001344520D01*
X0004108900Y0001351930D01*
X0004110250Y0001359340D01*
X0004114320Y0001365690D01*
X0004120410Y0001368870D01*
X0004127190Y0001368870D01*
X0004131250Y0001370980D01*
X0004134640Y0001376270D01*
X0004135990Y0001383680D01*
X0004133960Y0001391090D01*
X0004129220Y0001396380D01*
X0004123800Y0001398500D01*
X0004118380Y0001396380D01*
X0004113640Y0001391090D01*
X0004111610Y0001383680D01*
X0004112960Y0001376270D01*
X0004116350Y0001370980D01*
X0004120410Y0001368870D01*
X0004127190Y0001368870D01*
X0004133280Y0001365690D01*
X0004137350Y0001359340D01*
X0004138700Y0001351930D01*
X0004137350Y0001344520D01*
X0004133960Y0001339230D01*
X0004128540Y0001336060D01*
X0004123800Y0001335000D01*
G54D13*
G01X0000767000Y0000246500D02*
X0000767000Y0000251580D01*
G01X0000767000Y0000251580D02*
X0000817800Y0000251580D01*
G01X0000817800Y0000251580D02*
X0000817800Y0000317620D01*
G01X0000817800Y0000490340D02*
X0000817800Y0000556380D01*
G01X0000817800Y0000556380D02*
X0000741600Y0000556380D01*
G01X0001802200Y0000264660D02*
X0001802200Y0000198620D01*
G01X0001802200Y0000198620D02*
X0001878400Y0000198620D01*
G01X0001853000Y0000508500D02*
X0001853000Y0000503420D01*
G01X0001853000Y0000503420D02*
X0001802200Y0000503420D01*
G01X0001802200Y0000503420D02*
X0001802200Y0000437380D01*
G01X0001934660Y0000847800D02*
X0001868620Y0000847800D01*
G01X0001868620Y0000847800D02*
X0001868620Y0000771600D01*
G01X0002178500Y0000797000D02*
X0002173420Y0000797000D01*
G01X0002173420Y0000797000D02*
X0002173420Y0000847800D01*
G01X0002173420Y0000847800D02*
X0002107380Y0000847800D01*
M02*
