M48
METRIC
T01C.3
T02C.6
T03C3.
;LEADER: 12 
;HEADER: 
;CODE  : ASCII 
;FILE  : transponderRC2_4-10-1-4.drl for board C:/USERS/KLO/DESKTOP/KUGLEN/MODELFLYVNING/TRANSPONDER 2.4GHZ/VERSION 10/HARDWARE/allegro/#Taaabri15464.tmp ... layers TOP and BOTTOM
;T01 Holesize 1. = 0.300000 Tolerance = +0.050000/-0.050000 PLATED MM Quantity = 96
;T02 Holesize 2. = 0.600000 Tolerance = +0.080000/-0.080000 PLATED MM Quantity = 2
;T03 Holesize 3. = 3.000000 Tolerance = +0.100000/-0.100000 PLATED MM Quantity = 1
%
G90
T01
X0000125000Y0000230000
X0000145000Y0001667500
X0000235000Y0001700000
X0000110000Y0001755000
X0000565000Y0001880000
X0000550000Y0001645000
X0000675000Y0001495000
X0000555000Y0001382500
X0000715000Y0001375000
X0000693950Y0001297810
X0000711770Y0001219810
X0000720000Y0000937500
X0000690000Y0000568440
X0000525000Y0000495000
X0000553980Y0000403980
X0000510000Y0000230000
X0001005000Y0000860000
X0001005000Y0001435000
X0001205000Y0001845000
X0001030000Y0001550000
X0001100000Y0001485000
X0001130000Y0001185000
X0001060000Y0001060000
X0001050000Y0000790000
X0001155000Y0000750000
X0001240000Y0000675000
X0001052500Y0000645000
X0001085000Y0000195000
X0001380000Y0000610000
X0001412500Y0000717500
X0001590000Y0000760000
X0001545000Y0001265000
X0001950000Y0001810000
X0001785000Y0001810000
X0001782500Y0001602500
X0002030000Y0001317500
X0001950000Y0001050000
X0002008060Y0000788060
X0001852500Y0000760000
X0002021020Y0000581020
X0002076020Y0000351020
X0002185000Y0001050000
X0002195000Y0001245000
X0002115000Y0001315000
X0002180000Y0001510000
X0002115000Y0001620000
X0002045000Y0001795000
X0002310000Y0001525000
X0002320000Y0001340000
X0002680000Y0001575000
X0002650220Y0001342230
X0002605700Y0001059800
X0002600000Y0000980000
X0002700000Y0000640000
X0002736090Y0000541090
X0002610000Y0000540000
X0002785680Y0000458710
X0002615000Y0000420000
X0002786470Y0000361110
X0002777890Y0000281570
X0002902500Y0000145000
X0003032000Y0000150000
X0003010000Y0000545000
X0002925000Y0000547500
X0002805000Y0000735000
X0002810000Y0001210000
X0002974230Y0001409490
X0002795000Y0001670000
X0002815000Y0001785000
X0003245000Y0001625000
X0003265000Y0001515000
X0003275000Y0001205000
X0003275000Y0000745000
X0003167500Y0000517500
X0003321340Y0000517500
X0003476410Y0000898590
X0003491500Y0001060000
X0003392500Y0001420000
X0003580000Y0001470000
X0003568850Y0001390780
X0003563530Y0000847640
X0003558630Y0000767780
X0003555000Y0000670000
X0003805000Y0000485000
X0003940000Y0000775000
X0003860000Y0000810000
X0003855000Y0000950000
X0003975000Y0001180000
X0004040000Y0001360000
X0003880000Y0001445000
X0003810000Y0001525000
X0003810000Y0001625000
X0003935000Y0001710000
X0003900000Y0001825000
X0004240000Y0001350000
X0004160000Y0000940000
T02
X0002700000Y0000150000
X0003955000Y0000150000
T03
X0001680000Y0001080000
M30
