G04 ================== begin FILE IDENTIFICATION RECORD ==================*
G04 Layout Name:  transponderRC2_4-10.brd*
G04 Film Name:    Soldermask_bot*
G04 File Format:  Gerber RS274X*
G04 File Origin:  Cadence Allegro 17.2-S042*
G04 Origin Date:  Fri Nov 23 21:07:11 2018*
G04 *
G04 Layer:  PACKAGE GEOMETRY/SOLDERMASK_BOTTOM*
G04 Layer:  BOARD GEOMETRY/SOLDERMASK_BOTTOM*
G04 Layer:  PIN/SOLDERMASK_BOTTOM*
G04 Layer:  VIA CLASS/SOLDERMASK_BOTTOM*
G04 *
G04 Offset:    (0.0000 0.0000)*
G04 Mirror:    No*
G04 Mode:      Positive*
G04 Rotation:  0*
G04 FullContactRelief:  No*
G04 UndefLineWidth:     0.1500*
G04 ================== end FILE IDENTIFICATION RECORD ====================*
%FSAX55Y55*MOMM*%
%IR0*IPPOS*OFA0.00000B0.00000*MIA0B0*SFA1.00000B1.00000*%
%ADD23O,.8X1.3*%
%ADD19R,1.X.7*%
%ADD18O,1.3X.8*%
%ADD31R,1.2X.8*%
%ADD10R,.8X1.2*%
%ADD17R,1.45X.5*%
%ADD21R,.45X1.7*%
%ADD22R,1.7X.45*%
%ADD11C,.45*%
%ADD14R,.75X.75*%
%ADD16R,1.0922X.6096*%
%ADD25R,.6096X1.0922*%
%ADD12R,2.1X2.*%
%ADD13R,2.1X2.1*%
%ADD32R,2.1X1.3*%
%ADD15R,1.8X2.3*%
%ADD24C,3.2*%
%ADD20R,.6X.7*%
%ADD30R,5.5X5.5*%
%ADD28C,1.15*%
%ADD29R,.4X.95*%
%ADD26C,1.35*%
%ADD27R,.95X.4*%
%LPD*%
G75*
G54D10*
X0000290000Y0000230000D03*
X0000265000Y0001580000D03*
X0000185000Y0001835000D03*
X0000325000Y0001835000D03*
X0000430000Y0000230000D03*
X0000405000Y0001580000D03*
X0000720000Y0000685000D03*
X0000860000Y0000685000D03*
X0002445000Y0001305000D03*
X0002585000Y0001305000D03*
X0002975000Y0000345000D03*
X0003115000Y0000345000D03*
X0003645000Y0000950000D03*
X0003645000Y0000810000D03*
X0003665000Y0000670000D03*
X0003785000Y0000950000D03*
X0003785000Y0000810000D03*
X0003805000Y0000670000D03*
X0004240000Y0001100000D03*
X0004100000Y0001100000D03*
X0004240000Y0001245000D03*
X0004100000Y0001245000D03*
G54D20*
X0000670000Y0000860000D03*
X0000670000Y0001060000D03*
X0000860000Y0001060000D03*
G54D11*
X0000125000Y0000230000D03*
X0000235000Y0001700000D03*
X0000145000Y0001667500D03*
X0000110000Y0001755000D03*
X0000510000Y0000230000D03*
X0000553980Y0000403980D03*
X0000525000Y0000495000D03*
X0000555000Y0001382500D03*
X0000550000Y0001645000D03*
X0000565000Y0001880000D03*
X0000690000Y0000568440D03*
X0000720000Y0000937500D03*
X0000711770Y0001219810D03*
X0000693950Y0001297810D03*
X0000715000Y0001375000D03*
X0000675000Y0001495000D03*
X0001085000Y0000195000D03*
X0001052500Y0000645000D03*
X0001240000Y0000675000D03*
X0001155000Y0000750000D03*
X0001005000Y0000860000D03*
X0001050000Y0000790000D03*
X0001130000Y0001185000D03*
X0001060000Y0001060000D03*
X0001030000Y0001550000D03*
X0001100000Y0001485000D03*
X0001005000Y0001435000D03*
X0001205000Y0001845000D03*
X0001380000Y0000610000D03*
X0001590000Y0000760000D03*
X0001412500Y0000717500D03*
X0001545000Y0001265000D03*
X0002021020Y0000581020D03*
X0001852500Y0000760000D03*
X0002008060Y0000788060D03*
X0001950000Y0001050000D03*
X0001782500Y0001602500D03*
X0001950000Y0001810000D03*
X0001785000Y0001810000D03*
X0002076020Y0000351020D03*
X0002185000Y0001050000D03*
X0002195000Y0001245000D03*
X0002320000Y0001340000D03*
X0002310000Y0001525000D03*
X0002030000Y0001317500D03*
X0002115000Y0001315000D03*
X0002115000Y0001620000D03*
X0002180000Y0001510000D03*
X0002045000Y0001795000D03*
X0002610000Y0000540000D03*
X0002615000Y0000420000D03*
X0002700000Y0000640000D03*
X0002600000Y0000980000D03*
X0002605700Y0001059800D03*
X0002650220Y0001342230D03*
X0002680000Y0001575000D03*
X0003032000Y0000150000D03*
X0002902500Y0000145000D03*
X0002777890Y0000281570D03*
X0002736090Y0000541090D03*
X0002786470Y0000361110D03*
X0002785680Y0000458710D03*
X0003010000Y0000545000D03*
X0002925000Y0000547500D03*
X0002805000Y0000735000D03*
X0002810000Y0001210000D03*
X0002974230Y0001409490D03*
X0002795000Y0001670000D03*
X0002815000Y0001785000D03*
X0003167500Y0000517500D03*
X0003321340Y0000517500D03*
X0003275000Y0000745000D03*
X0003275000Y0001205000D03*
X0003245000Y0001625000D03*
X0003265000Y0001515000D03*
X0003392500Y0001420000D03*
X0003476410Y0000898590D03*
X0003558630Y0000767780D03*
X0003555000Y0000670000D03*
X0003563530Y0000847640D03*
X0003491500Y0001060000D03*
X0003580000Y0001470000D03*
X0003568850Y0001390780D03*
X0003805000Y0000485000D03*
X0003855000Y0000950000D03*
X0003860000Y0000810000D03*
X0003940000Y0000775000D03*
X0003975000Y0001180000D03*
X0004040000Y0001360000D03*
X0003810000Y0001625000D03*
X0003810000Y0001525000D03*
X0003880000Y0001445000D03*
X0003935000Y0001710000D03*
X0003900000Y0001825000D03*
X0004160000Y0000940000D03*
X0004240000Y0001350000D03*
G54D30*
X0003045000Y0000975000D03*
G54D12*
X0000150000Y0000600000D03*
X0000150000Y0001400000D03*
G54D21*
X0001217500Y0000830000D03*
X0001282500Y0000830000D03*
X0001282500Y0001170000D03*
X0001217500Y0001170000D03*
X0001347500Y0000830000D03*
X0001412500Y0000830000D03*
X0001412500Y0001170000D03*
X0001347500Y0001170000D03*
G54D13*
X0000150000Y0000880000D03*
X0000150000Y0001120000D03*
G54D22*
X0001310000Y0001602500D03*
X0001310000Y0001797500D03*
X0001310000Y0001732500D03*
X0001310000Y0001667500D03*
X0001650000Y0001602500D03*
X0001650000Y0001667500D03*
X0001650000Y0001732500D03*
X0001650000Y0001797500D03*
G54D31*
X0003020000Y0001625000D03*
X0003020000Y0001485000D03*
X0002880000Y0001625000D03*
X0002880000Y0001485000D03*
X0003160000Y0001625000D03*
X0003160000Y0001485000D03*
G54D32*
X0003705000Y0001105000D03*
X0003705000Y0001355000D03*
G54D14*
X0000315000Y0001700000D03*
X0000605000Y0000645000D03*
X0000605000Y0000735000D03*
X0000585000Y0001560000D03*
X0000405000Y0001700000D03*
X0000720000Y0000170000D03*
X0000810000Y0000170000D03*
X0000970000Y0000610000D03*
X0000970000Y0000700000D03*
X0000675000Y0001560000D03*
X0000895000Y0001870000D03*
X0000985000Y0001870000D03*
X0001160000Y0000195000D03*
X0001250000Y0000195000D03*
X0001060000Y0001645000D03*
X0001160000Y0001580000D03*
X0001060000Y0001735000D03*
X0001160000Y0001670000D03*
X0001500000Y0000640000D03*
X0001670000Y0000760000D03*
X0001670000Y0000670000D03*
X0001500000Y0000730000D03*
X0001775000Y0000760000D03*
X0001775000Y0000670000D03*
X0002025000Y0001050000D03*
X0002255000Y0001030000D03*
X0002345000Y0001030000D03*
X0002115000Y0001050000D03*
X0002430000Y0000275000D03*
X0002520000Y0000275000D03*
X0002715000Y0000435000D03*
X0002715000Y0000345000D03*
X0002430000Y0000380000D03*
X0002520000Y0000380000D03*
X0002760000Y0001485000D03*
X0002760000Y0001575000D03*
X0003745000Y0001525000D03*
X0003655000Y0001525000D03*
X0003655000Y0001625000D03*
X0003745000Y0001625000D03*
X0003940000Y0000940000D03*
X0003940000Y0000850000D03*
X0003885000Y0001105000D03*
X0003975000Y0001105000D03*
X0003880000Y0001360000D03*
X0003970000Y0001360000D03*
X0003970000Y0001525000D03*
X0003880000Y0001525000D03*
X0003880000Y0001625000D03*
X0003970000Y0001625000D03*
G54D23*
X0001595000Y0000255000D03*
X0001405000Y0000255000D03*
X0001500000Y0000475000D03*
X0002325000Y0000250000D03*
X0002135000Y0000250000D03*
X0002230000Y0000470000D03*
X0002350000Y0000660000D03*
X0002255000Y0000880000D03*
X0002445000Y0000880000D03*
X0004050000Y0000940000D03*
X0004240000Y0000940000D03*
X0004145000Y0000720000D03*
G54D24*
X0001680000Y0001080000D03*
G54D15*
X0000405000Y0000690000D03*
X0000405000Y0001310000D03*
G54D25*
X0002021020Y0000670000D03*
X0001927040Y0000670000D03*
X0001927040Y0000918920D03*
X0002115000Y0000670000D03*
X0002115000Y0000918920D03*
G54D16*
X0000640000Y0000310000D03*
X0000640000Y0000403980D03*
X0000640000Y0000497960D03*
X0000888920Y0000497960D03*
X0000888920Y0000310000D03*
X0001980000Y0000257040D03*
X0001731080Y0000257040D03*
X0001980000Y0000445000D03*
X0001980000Y0000351020D03*
X0001731080Y0000445000D03*
G54D26*
X0002700000Y0000150000D03*
X0003955000Y0000150000D03*
G54D17*
X0000417500Y0000870000D03*
X0000417500Y0000935000D03*
X0000417500Y0001130000D03*
X0000417500Y0001065000D03*
X0000417500Y0001000000D03*
G54D27*
X0002700000Y0000950000D03*
X0002700000Y0000900000D03*
X0002700000Y0000850000D03*
X0002700000Y0000800000D03*
X0002700000Y0000750000D03*
X0002700000Y0000700000D03*
X0002700000Y0001250000D03*
X0002700000Y0001200000D03*
X0002700000Y0001150000D03*
X0002700000Y0001100000D03*
X0002700000Y0001050000D03*
X0002700000Y0001000000D03*
X0003390000Y0000700000D03*
X0003390000Y0000750000D03*
X0003390000Y0000800000D03*
X0003390000Y0000850000D03*
X0003390000Y0000900000D03*
X0003390000Y0000950000D03*
X0003390000Y0001000000D03*
X0003390000Y0001050000D03*
X0003390000Y0001100000D03*
X0003390000Y0001150000D03*
X0003390000Y0001200000D03*
X0003390000Y0001250000D03*
G54D18*
X0000675000Y0001675000D03*
X0001030000Y0000310000D03*
X0001030000Y0000500000D03*
X0000895000Y0001580000D03*
X0000895000Y0001770000D03*
X0001250000Y0000405000D03*
G54D28*
X0002540000Y0001620000D03*
X0003335000Y0001640000D03*
X0003495000Y0001585000D03*
G54D19*
X0000840000Y0000860000D03*
G54D29*
X0002770000Y0000630000D03*
X0002820000Y0000630000D03*
X0002870000Y0000630000D03*
X0002920000Y0000630000D03*
X0002970000Y0000630000D03*
X0003020000Y0000630000D03*
X0003020000Y0001320000D03*
X0002970000Y0001320000D03*
X0002920000Y0001320000D03*
X0002870000Y0001320000D03*
X0002820000Y0001320000D03*
X0002770000Y0001320000D03*
X0003070000Y0000630000D03*
X0003120000Y0000630000D03*
X0003170000Y0000630000D03*
X0003220000Y0000630000D03*
X0003270000Y0000630000D03*
X0003320000Y0000630000D03*
X0003320000Y0001320000D03*
X0003270000Y0001320000D03*
X0003220000Y0001320000D03*
X0003170000Y0001320000D03*
X0003120000Y0001320000D03*
X0003070000Y0001320000D03*
M02*
