G04 ================== begin FILE IDENTIFICATION RECORD ==================*
G04 Layout Name:  transponderRC2_4-10.brd*
G04 Film Name:    2_INNER_LAYER_2*
G04 File Format:  Gerber RS274X*
G04 File Origin:  Cadence Allegro 17.2-S042*
G04 Origin Date:  Fri Nov 23 21:07:11 2018*
G04 *
G04 Layer:  VIA CLASS/INNER_LAYER_2*
G04 Layer:  PIN/INNER_LAYER_2*
G04 Layer:  ETCH/INNER_LAYER_2*
G04 *
G04 Offset:    (0.0000 0.0000)*
G04 Mirror:    No*
G04 Mode:      Positive*
G04 Rotation:  0*
G04 FullContactRelief:  No*
G04 UndefLineWidth:     0.1500*
G04 ================== end FILE IDENTIFICATION RECORD ====================*
%FSAX55Y55*MOMM*%
%IR0*IPPOS*OFA0.00000B0.00000*MIA0B0*SFA1.00000B1.00000*%
%ADD11C,.1*%
%ADD10C,.5*%
%ADD12C,1.2*%
%ADD13C,.25*%
%ADD14C,.8004*%
%ADD16C,1.5004*%
%ADD15C,3.4004*%
G75*
%LPD*%
G75*
G36*
G01X0000050010Y0001949990D02*
X0004349990Y0001949990D01*
X0004349990Y0000050010D01*
X0000050010Y0000050010D01*
X0000050010Y0001949990D01*
G37*
%LPC*%
G75*
G36*
G01X0002757290Y0000315880D02*
G03X0002759020Y0000331980I-0000005235J0000008705D01*
G02X0002746450Y0000361110I0000027468J0000029130D01*
G02X0002826490Y0000361110I0000040020J0D01*
G02X0002807070Y0000326800I-0000040018J0D01*
G03X0002805340Y0000310700I0000005235J-0000008705D01*
G02X0002817910Y0000281570I-0000027468J-0000029130D01*
G02X0002737870Y0000281570I-0000040020J0D01*
G02X0002757290Y0000315880I0000040018J0D01*
G37*
G36*
G01X0003536470Y0000801110D02*
G03X0003537460Y0000817270I-0000005627J0000008455D01*
G02X0003523510Y0000847640I0000026084J0000030370D01*
G02X0003603550Y0000847640I0000040020J0D01*
G02X0003585690Y0000814310I-0000040030J0D01*
G03X0003584700Y0000798150I0000005627J-0000008455D01*
G02X0003598650Y0000767780I-0000026084J-0000030370D01*
G02X0003518610Y0000767780I-0000040020J0D01*
G02X0003536470Y0000801110I0000040030J0D01*
G37*
G36*
G01X0002578170Y0001013540D02*
G03X0002579330Y0001029700I-0000005538J0000008519D01*
G02X0002565680Y0001059800I0000026362J0000030100D01*
G02X0002645720Y0001059800I0000040020J0D01*
G02X0002627530Y0001026260I-0000040017J0D01*
G03X0002626370Y0001010100I0000005538J-0000008519D01*
G02X0002640020Y0000980000I-0000026362J-0000030100D01*
G02X0002559980Y0000980000I-0000040020J0D01*
G02X0002578170Y0001013540I0000040017J0D01*
G37*
G36*
G01X0000681110Y0001245530D02*
G03X0000677500Y0001261330I-0000007781J0000006535D01*
G02X0000653930Y0001297810I0000016446J0000036480D01*
G02X0000733970Y0001297810I0000040020J0D01*
G02X0000724610Y0001272090I-0000040018J0D01*
G03X0000728220Y0001256290I0000007781J-0000006535D01*
G02X0000751790Y0001219810I-0000016446J-0000036480D01*
G02X0000671750Y0001219810I-0000040020J0D01*
G02X0000681110Y0001245530I0000040018J0D01*
G37*
G36*
G01X0003549370Y0001425740D02*
G03X0003551630Y0001441780I-0000004946J0000008876D01*
G02X0003539980Y0001470000I0000028368J0000028226D01*
G02X0003620020Y0001470000I0000040020J0D01*
G02X0003599480Y0001435040I-0000040022J0D01*
G03X0003597220Y0001419000I0000004946J-0000008876D01*
G02X0003608870Y0001390780I-0000028368J-0000028226D01*
G02X0003528830Y0001390780I-0000040020J0D01*
G02X0003549370Y0001425740I0000040022J0D01*
G37*
G36*
G01X0002958270Y0000525260D02*
G02X0002925000Y0000587520I-0000033270J0000022241D01*
G02X0002959520Y0000567750I0J-0000040022D01*
G03X0002976730Y0000567240I0000008765J0000005138D01*
G02X0003010000Y0000585020I0000033270J-0000022237D01*
G02X0003010000Y0000504980I0J-0000040020D01*
G02X0002975480Y0000524750I0J0000040022D01*
G03X0002958270Y0000525260I-0000008765J-0000005138D01*
G37*
G36*
G01X0001004130Y0000819990D02*
G02X0001045020Y0000860000I0000000871J0000040010D01*
G02X0001041760Y0000844180I-0000040015J0D01*
G03X0001050870Y0000830010I0000009334J-0000004012D01*
G02X0001090020Y0000790000I-0000000869J-0000040010D01*
G02X0001009980Y0000790000I-0000040020J0D01*
G02X0001013240Y0000805820I0000040015J0D01*
G03X0001004130Y0000819990I-0000009334J0000004012D01*
G37*
G36*
G01X0002063270Y0001295260D02*
G02X0002030000Y0001357520I-0000033270J0000022241D01*
G02X0002064520Y0001337750I0J-0000040022D01*
G03X0002081730Y0001337240I0000008765J0000005138D01*
G02X0002115000Y0001355020I0000033270J-0000022237D01*
G02X0002115000Y0001274980I0J-0000040020D01*
G02X0002080480Y0001294750I0J0000040022D01*
G03X0002063270Y0001295260I-0000008765J-0000005138D01*
G37*
G54D14*
X0000110000Y0001755000D03*
X0000510000Y0000230000D03*
X0000525000Y0000495000D03*
X0000565000Y0001880000D03*
X0000720000Y0000937500D03*
X0000675000Y0001495000D03*
X0001240000Y0000675000D03*
X0001155000Y0000750000D03*
X0001130000Y0001185000D03*
X0001060000Y0001060000D03*
X0001030000Y0001550000D03*
X0001100000Y0001485000D03*
X0001005000Y0001435000D03*
X0001205000Y0001845000D03*
X0001380000Y0000610000D03*
X0001545000Y0001265000D03*
X0002008060Y0000788060D03*
X0001950000Y0001810000D03*
X0001785000Y0001810000D03*
X0002185000Y0001050000D03*
X0002195000Y0001245000D03*
X0002115000Y0001620000D03*
X0002180000Y0001510000D03*
X0002045000Y0001795000D03*
X0002615000Y0000420000D03*
X0002700000Y0000640000D03*
X0002650220Y0001342230D03*
X0002680000Y0001575000D03*
X0002902500Y0000145000D03*
X0002736090Y0000541090D03*
X0002785680Y0000458710D03*
X0003167500Y0000517500D03*
X0003321340Y0000517500D03*
X0003265000Y0001515000D03*
X0003392500Y0001420000D03*
X0003476410Y0000898590D03*
X0003555000Y0000670000D03*
X0003805000Y0000485000D03*
X0003940000Y0000775000D03*
X0003810000Y0001525000D03*
X0003880000Y0001445000D03*
X0003900000Y0001825000D03*
G54D16*
X0002700000Y0000150000D03*
X0003955000Y0000150000D03*
G54D15*
X0001680000Y0001080000D03*
%LPD*%
G75*
G54D10*
X0000125000Y0000230000D03*
X0000235000Y0001700000D03*
X0000145000Y0001667500D03*
X0000110000Y0001755000D03*
X0000510000Y0000230000D03*
X0000553980Y0000403980D03*
X0000525000Y0000495000D03*
X0000555000Y0001382500D03*
X0000550000Y0001645000D03*
X0000565000Y0001880000D03*
X0000690000Y0000568440D03*
X0000720000Y0000937500D03*
X0000711770Y0001219810D03*
X0000693950Y0001297810D03*
X0000715000Y0001375000D03*
X0000675000Y0001495000D03*
X0001085000Y0000195000D03*
X0001052500Y0000645000D03*
X0001240000Y0000675000D03*
X0001155000Y0000750000D03*
X0001005000Y0000860000D03*
X0001050000Y0000790000D03*
X0001130000Y0001185000D03*
X0001060000Y0001060000D03*
X0001030000Y0001550000D03*
X0001100000Y0001485000D03*
X0001005000Y0001435000D03*
X0001205000Y0001845000D03*
X0001380000Y0000610000D03*
X0001590000Y0000760000D03*
X0001412500Y0000717500D03*
X0001545000Y0001265000D03*
X0002021020Y0000581020D03*
X0001852500Y0000760000D03*
X0002008060Y0000788060D03*
X0001950000Y0001050000D03*
X0001782500Y0001602500D03*
X0001950000Y0001810000D03*
X0001785000Y0001810000D03*
X0002076020Y0000351020D03*
X0002185000Y0001050000D03*
X0002195000Y0001245000D03*
X0002320000Y0001340000D03*
X0002310000Y0001525000D03*
X0002030000Y0001317500D03*
X0002115000Y0001315000D03*
X0002115000Y0001620000D03*
X0002180000Y0001510000D03*
X0002045000Y0001795000D03*
X0002610000Y0000540000D03*
X0002615000Y0000420000D03*
X0002700000Y0000640000D03*
X0002600000Y0000980000D03*
X0002605700Y0001059800D03*
X0002650220Y0001342230D03*
X0002680000Y0001575000D03*
X0003032000Y0000150000D03*
X0002902500Y0000145000D03*
X0002777890Y0000281570D03*
X0002736090Y0000541090D03*
X0002786470Y0000361110D03*
X0002785680Y0000458710D03*
X0003010000Y0000545000D03*
X0002925000Y0000547500D03*
X0002805000Y0000735000D03*
X0002810000Y0001210000D03*
X0002974230Y0001409490D03*
X0002795000Y0001670000D03*
X0002815000Y0001785000D03*
X0003167500Y0000517500D03*
X0003321340Y0000517500D03*
X0003275000Y0000745000D03*
X0003275000Y0001205000D03*
X0003245000Y0001625000D03*
X0003265000Y0001515000D03*
X0003392500Y0001420000D03*
X0003476410Y0000898590D03*
X0003558630Y0000767780D03*
X0003555000Y0000670000D03*
X0003563530Y0000847640D03*
X0003491500Y0001060000D03*
X0003580000Y0001470000D03*
X0003568850Y0001390780D03*
X0003805000Y0000485000D03*
X0003855000Y0000950000D03*
X0003860000Y0000810000D03*
X0003940000Y0000775000D03*
X0003975000Y0001180000D03*
X0004040000Y0001360000D03*
X0003810000Y0001625000D03*
X0003810000Y0001525000D03*
X0003880000Y0001445000D03*
X0003935000Y0001710000D03*
X0003900000Y0001825000D03*
X0004160000Y0000940000D03*
X0004240000Y0001350000D03*
G54D11*
X0001680000Y0001080000D03*
G54D12*
X0002700000Y0000150000D03*
X0003955000Y0000150000D03*
G54D13*
G01X0003955000Y0000069900D02*
X0003955000Y0000150000D01*
G01X0003955000Y0000150000D02*
X0003955000Y0000230100D01*
G01X0003874900Y0000150000D02*
X0003955000Y0000150000D01*
G01X0003955000Y0000150000D02*
X0004035100Y0000150000D01*
M02*
