G04 ================== begin FILE IDENTIFICATION RECORD ==================*
G04 Layout Name:  transponderRC2_4-10.brd*
G04 Film Name:    Solderpaste_bot*
G04 File Format:  Gerber RS274X*
G04 File Origin:  Cadence Allegro 17.2-S042*
G04 Origin Date:  Fri Nov 23 21:07:11 2018*
G04 *
G04 Layer:  PACKAGE GEOMETRY/PASTEMASK_BOTTOM*
G04 Layer:  PIN/PASTEMASK_BOTTOM*
G04 Layer:  VIA CLASS/PASTEMASK_BOTTOM*
G04 *
G04 Offset:    (0.0000 0.0000)*
G04 Mirror:    No*
G04 Mode:      Positive*
G04 Rotation:  0*
G04 FullContactRelief:  No*
G04 UndefLineWidth:     0.1500*
G04 ================== end FILE IDENTIFICATION RECORD ====================*
%FSAX55Y55*MOMM*%
%IR0*IPPOS*OFA0.00000B0.00000*MIA0B0*SFA1.00000B1.00000*%
%ADD22O,.6X1.1*%
%ADD17O,1.1X.6*%
%ADD26R,1.X.6*%
%ADD10R,.6X1.*%
%ADD16R,1.35X.4*%
%ADD20R,.3X1.55*%
%ADD21R,1.55X.3*%
%ADD13R,.6X.6*%
%ADD15R,1.0922X.6096*%
%ADD23R,.6096X1.0922*%
%ADD14R,1.6X2.1*%
%ADD27R,1.9X1.1*%
%ADD19R,.5X.6*%
%ADD11R,1.9X1.8*%
%ADD12R,1.9X1.9*%
%ADD25R,.3X.85*%
%ADD18R,.9X.6*%
%ADD24R,.85X.3*%
G75*
%LPD*%
G75*
G36*
G01X0002995000Y0000800000D02*
X0002995000Y0000900000D01*
X0003095000Y0000900000D01*
X0003095000Y0000800000D01*
X0002995000Y0000800000D01*
G37*
G36*
G01X0002870000Y0000800000D02*
X0002870000Y0000900000D01*
X0002970000Y0000900000D01*
X0002970000Y0000800000D01*
X0002870000Y0000800000D01*
G37*
G36*
G01X0002870000Y0000925000D02*
X0002870000Y0001025000D01*
X0002970000Y0001025000D01*
X0002970000Y0000925000D01*
X0002870000Y0000925000D01*
G37*
G36*
G01X0002995000Y0000925000D02*
X0002995000Y0001025000D01*
X0003095000Y0001025000D01*
X0003095000Y0000925000D01*
X0002995000Y0000925000D01*
G37*
G36*
G01X0002870000Y0001050000D02*
X0002870000Y0001150000D01*
X0002970000Y0001150000D01*
X0002970000Y0001050000D01*
X0002870000Y0001050000D01*
G37*
G36*
G01X0002995000Y0001050000D02*
X0002995000Y0001150000D01*
X0003095000Y0001150000D01*
X0003095000Y0001050000D01*
X0002995000Y0001050000D01*
G37*
G36*
G01X0003120000Y0000800000D02*
X0003120000Y0000900000D01*
X0003220000Y0000900000D01*
X0003220000Y0000800000D01*
X0003120000Y0000800000D01*
G37*
G36*
G01X0003120000Y0000925000D02*
X0003120000Y0001025000D01*
X0003220000Y0001025000D01*
X0003220000Y0000925000D01*
X0003120000Y0000925000D01*
G37*
G36*
G01X0003120000Y0001050000D02*
X0003120000Y0001150000D01*
X0003220000Y0001150000D01*
X0003220000Y0001050000D01*
X0003120000Y0001050000D01*
G37*
G54D10*
X0000290000Y0000230000D03*
X0000265000Y0001580000D03*
X0000185000Y0001835000D03*
X0000325000Y0001835000D03*
X0000430000Y0000230000D03*
X0000405000Y0001580000D03*
X0000720000Y0000685000D03*
X0000860000Y0000685000D03*
X0002445000Y0001305000D03*
X0002585000Y0001305000D03*
X0002975000Y0000345000D03*
X0003115000Y0000345000D03*
X0003645000Y0000950000D03*
X0003645000Y0000810000D03*
X0003665000Y0000670000D03*
X0003785000Y0000950000D03*
X0003785000Y0000810000D03*
X0003805000Y0000670000D03*
X0004240000Y0001100000D03*
X0004100000Y0001100000D03*
X0004240000Y0001245000D03*
X0004100000Y0001245000D03*
G54D11*
X0000150000Y0000600000D03*
X0000150000Y0001400000D03*
G54D20*
X0001217500Y0000830000D03*
X0001282500Y0000830000D03*
X0001282500Y0001170000D03*
X0001217500Y0001170000D03*
X0001347500Y0000830000D03*
X0001412500Y0000830000D03*
X0001412500Y0001170000D03*
X0001347500Y0001170000D03*
G54D12*
X0000150000Y0000880000D03*
X0000150000Y0001120000D03*
G54D21*
X0001310000Y0001602500D03*
X0001310000Y0001797500D03*
X0001310000Y0001732500D03*
X0001310000Y0001667500D03*
X0001650000Y0001602500D03*
X0001650000Y0001667500D03*
X0001650000Y0001732500D03*
X0001650000Y0001797500D03*
G54D13*
X0000315000Y0001700000D03*
X0000605000Y0000645000D03*
X0000605000Y0000735000D03*
X0000585000Y0001560000D03*
X0000405000Y0001700000D03*
X0000720000Y0000170000D03*
X0000810000Y0000170000D03*
X0000970000Y0000610000D03*
X0000970000Y0000700000D03*
X0000675000Y0001560000D03*
X0000895000Y0001870000D03*
X0000985000Y0001870000D03*
X0001160000Y0000195000D03*
X0001250000Y0000195000D03*
X0001060000Y0001645000D03*
X0001160000Y0001580000D03*
X0001060000Y0001735000D03*
X0001160000Y0001670000D03*
X0001500000Y0000640000D03*
X0001670000Y0000760000D03*
X0001670000Y0000670000D03*
X0001500000Y0000730000D03*
X0001775000Y0000760000D03*
X0001775000Y0000670000D03*
X0002025000Y0001050000D03*
X0002255000Y0001030000D03*
X0002345000Y0001030000D03*
X0002115000Y0001050000D03*
X0002430000Y0000275000D03*
X0002520000Y0000275000D03*
X0002715000Y0000435000D03*
X0002715000Y0000345000D03*
X0002430000Y0000380000D03*
X0002520000Y0000380000D03*
X0002760000Y0001485000D03*
X0002760000Y0001575000D03*
X0003745000Y0001525000D03*
X0003655000Y0001525000D03*
X0003655000Y0001625000D03*
X0003745000Y0001625000D03*
X0003940000Y0000940000D03*
X0003940000Y0000850000D03*
X0003885000Y0001105000D03*
X0003975000Y0001105000D03*
X0003880000Y0001360000D03*
X0003970000Y0001360000D03*
X0003970000Y0001525000D03*
X0003880000Y0001525000D03*
X0003880000Y0001625000D03*
X0003970000Y0001625000D03*
G54D22*
X0001595000Y0000255000D03*
X0001405000Y0000255000D03*
X0001500000Y0000475000D03*
X0002325000Y0000250000D03*
X0002135000Y0000250000D03*
X0002230000Y0000470000D03*
X0002350000Y0000660000D03*
X0002255000Y0000880000D03*
X0002445000Y0000880000D03*
X0004050000Y0000940000D03*
X0004240000Y0000940000D03*
X0004145000Y0000720000D03*
G54D14*
X0000405000Y0000690000D03*
X0000405000Y0001310000D03*
G54D23*
X0002021020Y0000670000D03*
X0001927040Y0000670000D03*
X0001927040Y0000918920D03*
X0002115000Y0000670000D03*
X0002115000Y0000918920D03*
G54D24*
X0002700000Y0000950000D03*
X0002700000Y0000900000D03*
X0002700000Y0000850000D03*
X0002700000Y0000800000D03*
X0002700000Y0000750000D03*
X0002700000Y0000700000D03*
X0002700000Y0001250000D03*
X0002700000Y0001200000D03*
X0002700000Y0001150000D03*
X0002700000Y0001100000D03*
X0002700000Y0001050000D03*
X0002700000Y0001000000D03*
X0003390000Y0000700000D03*
X0003390000Y0000750000D03*
X0003390000Y0000800000D03*
X0003390000Y0000850000D03*
X0003390000Y0000900000D03*
X0003390000Y0000950000D03*
X0003390000Y0001000000D03*
X0003390000Y0001050000D03*
X0003390000Y0001100000D03*
X0003390000Y0001150000D03*
X0003390000Y0001200000D03*
X0003390000Y0001250000D03*
G54D15*
X0000640000Y0000310000D03*
X0000640000Y0000403980D03*
X0000640000Y0000497960D03*
X0000888920Y0000497960D03*
X0000888920Y0000310000D03*
X0001980000Y0000257040D03*
X0001731080Y0000257040D03*
X0001980000Y0000445000D03*
X0001980000Y0000351020D03*
X0001731080Y0000445000D03*
G54D25*
X0002770000Y0000630000D03*
X0002820000Y0000630000D03*
X0002870000Y0000630000D03*
X0002920000Y0000630000D03*
X0002970000Y0000630000D03*
X0003020000Y0000630000D03*
X0003020000Y0001320000D03*
X0002970000Y0001320000D03*
X0002920000Y0001320000D03*
X0002870000Y0001320000D03*
X0002820000Y0001320000D03*
X0002770000Y0001320000D03*
X0003070000Y0000630000D03*
X0003120000Y0000630000D03*
X0003170000Y0000630000D03*
X0003220000Y0000630000D03*
X0003270000Y0000630000D03*
X0003320000Y0000630000D03*
X0003320000Y0001320000D03*
X0003270000Y0001320000D03*
X0003220000Y0001320000D03*
X0003170000Y0001320000D03*
X0003120000Y0001320000D03*
X0003070000Y0001320000D03*
G54D16*
X0000417500Y0000870000D03*
X0000417500Y0000935000D03*
X0000417500Y0001130000D03*
X0000417500Y0001065000D03*
X0000417500Y0001000000D03*
G54D26*
X0003020000Y0001625000D03*
X0003020000Y0001485000D03*
X0002880000Y0001625000D03*
X0002880000Y0001485000D03*
X0003160000Y0001625000D03*
X0003160000Y0001485000D03*
G54D17*
X0000675000Y0001675000D03*
X0001030000Y0000310000D03*
X0001030000Y0000500000D03*
X0000895000Y0001580000D03*
X0000895000Y0001770000D03*
X0001250000Y0000405000D03*
G54D18*
X0000840000Y0000860000D03*
G54D27*
X0003705000Y0001105000D03*
X0003705000Y0001355000D03*
G54D19*
X0000670000Y0000860000D03*
X0000670000Y0001060000D03*
X0000860000Y0001060000D03*
M02*
