G04 ================== begin FILE IDENTIFICATION RECORD ==================*
G04 Layout Name:  transponderRC2_4-11.brd*
G04 Film Name:    3_INNER_LAYER_3*
G04 File Format:  Gerber RS274X*
G04 File Origin:  Cadence Allegro 17.2-S042*
G04 Origin Date:  Thu Jan 24 18:04:02 2019*
G04 *
G04 Layer:  VIA CLASS/INNER_LAYER_3*
G04 Layer:  PIN/INNER_LAYER_3*
G04 Layer:  ETCH/INNER_LAYER_3*
G04 *
G04 Offset:    (0.0000 0.0000)*
G04 Mirror:    No*
G04 Mode:      Positive*
G04 Rotation:  0*
G04 FullContactRelief:  No*
G04 UndefLineWidth:     0.1500*
G04 ================== end FILE IDENTIFICATION RECORD ====================*
%FSAX55Y55*MOMM*%
%IR0*IPPOS*OFA0.00000B0.00000*MIA0B0*SFA1.00000B1.00000*%
%ADD11C,.1*%
%ADD10C,.5*%
%ADD12C,1.2*%
%ADD13C,.15*%
%ADD14C,.8004*%
%ADD15C,1.5004*%
G75*
%LPD*%
G75*
G36*
G01X-0004329990Y0001879990D02*
X0000029990Y0001879990D01*
X0000029990Y-0000079990D01*
X-0004329990Y-0000079990D01*
X-0004329990Y0000020010D01*
X-0004133810Y0000020010D01*
G03X-0004126630Y0000022990I-0000000008J0000010159D01*
G02X-0004112260Y0000022990I0000007185J-0000007186D01*
G01X-0004101760Y0000012480D01*
X-0001908240Y0000012480D01*
X-0001862480Y0000058240D01*
X-0001862480Y0000265670D01*
X-0001788170Y0000339980D01*
X-0001778760Y0000339980D01*
G02X-0001774960Y0000331530I-0000000002J-0000005081D01*
G03X-0001785020Y0000305000I0000029952J-0000026530D01*
G03X-0001704980Y0000305000I0000040020J0D01*
G03X-0001705620Y0000312130I-0000040020J0000000001D01*
G02X-0001695620Y0000324100I0000009997J0000001810D01*
G01X-0001655450Y0000324100D01*
X-0001614440Y0000365110D01*
X-0001614440Y0000400810D01*
X-0001609870Y0000401270D01*
G03X-0001573890Y0000441090I-0000004045J0000039820D01*
G03X-0001653930Y0000441090I-0000040020J0D01*
G03X-0001653610Y0000436030I0000040021J-0000000009D01*
G01X-0001653290Y0000433550D01*
X-0001660600Y0000426250D01*
G03X-0001684460Y0000434140I-0000023860J-0000032132D01*
G03X-0001696740Y0000432210I0J-0000040032D01*
G02X-0001710010Y0000441500I-0000003117J0000009670D01*
G03X-0001741770Y0000479160I-0000039990J-0000001503D01*
G02X-0001746860Y0000496290I0000002092J0000009943D01*
G01X-0001725670Y0000517480D01*
X-0001683080Y0000517480D01*
G03X-0001650000Y0000499980I0000033080J0000022515D01*
G03X-0001650000Y0000580020I0J0000040020D01*
G03X-0001683080Y0000562520I0J-0000040015D01*
G01X-0001744330Y0000562520D01*
X-0001978810Y0000328040D01*
G02X-0001987480Y0000331630I-0000003591J0000003593D01*
G01X-0001987480Y0000335670D01*
X-0001727480Y0000595670D01*
X-0001727480Y0000666920D01*
G03X-0001709980Y0000700000I-0000022515J0000033080D01*
G03X-0001790020Y0000700000I-0000040020J0D01*
G03X-0001772520Y0000666920I0000040015J0D01*
G01X-0001772520Y0000614330D01*
X-0002032520Y0000354330D01*
X-0002032520Y0000164330D01*
X-0002034330Y0000162520D01*
X-0002175060Y0000162520D01*
G02X-0002184160Y0000177200I0J0000010161D01*
G03X-0002179980Y0000195000I-0000035838J0000017807D01*
G03X-0002260020Y0000195000I-0000040020J0D01*
G03X-0002255840Y0000177200I0000040018J0000000007D01*
G02X-0002264940Y0000162520I-0000009100J-0000004519D01*
G01X-0002461460Y0000162520D01*
G02X-0002468250Y0000180240I0000000001J0000010161D01*
G03X-0002454980Y0000210000I-0000026748J0000029765D01*
G03X-0002535020Y0000210000I-0000040020J0D01*
G03X-0002521750Y0000180240I0000040018J0000000005D01*
G02X-0002528540Y0000162520I-0000006791J-0000007559D01*
G01X-0002608980Y0000162520D01*
G02X-0002617360Y0000178420I0000000001J0000010159D01*
G03X-0002610370Y0000201020I-0000033040J0000022600D01*
G03X-0002690410Y0000201020I-0000040020J0D01*
G03X-0002683420Y0000178420I0000040030J0D01*
G02X-0002691800Y0000162520I-0000008381J-0000005741D01*
G01X-0002992910Y0000162520D01*
G02X-0003001430Y0000178210I0000000001J0000010159D01*
G03X-0002994980Y0000200000I-0000033582J0000021790D01*
G03X-0003075020Y0000200000I-0000040020J0D01*
G03X-0003068570Y0000178210I0000040032J0D01*
G02X-0003077090Y0000162520I-0000008521J-0000005531D01*
G01X-0003810060Y0000162520D01*
G02X-0003819160Y0000177200I0J0000010161D01*
G03X-0003814980Y0000195000I-0000035838J0000017807D01*
G03X-0003895020Y0000195000I-0000040020J0D01*
G03X-0003890840Y0000177200I0000040018J0000000007D01*
G02X-0003899940Y0000162520I-0000009100J-0000004519D01*
G01X-0003985670Y0000162520D01*
X-0004057480Y0000234330D01*
X-0004057480Y0000301250D01*
G02X-0004043810Y0000310790I0000010160J0000000005D01*
G03X-0004030000Y0000308330I0000013815J0000037559D01*
G03X-0004030000Y0000388370I0J0000040020D01*
G03X-0004043810Y0000385910I0000000005J-0000040019D01*
G02X-0004057480Y0000395450I-0000003510J0000009535D01*
G01X-0004057480Y0001265670D01*
X-0003872480Y0001450670D01*
X-0003872480Y0001550670D01*
X-0003850670Y0001572480D01*
X-0003839650Y0001572480D01*
X-0003838610Y0001571980D01*
G03X-0003833630Y0001569990I0000017307J0000036085D01*
G02X-0003828300Y0001554690I-0000003127J-0000009668D01*
G03X-0003835020Y0001532500I0000033298J-0000022196D01*
G03X-0003754980Y0001532500I0000040020J0D01*
G03X-0003782660Y0001570570I-0000040020J0D01*
G02X-0003787990Y0001585870I0000003127J0000009668D01*
G03X-0003781270Y0001608060I-0000033298J0000022196D01*
G03X-0003782920Y0001619430I-0000040020J-0000000003D01*
G02X-0003773180Y0001632480I0000009740J0000002890D01*
G01X-0003673080Y0001632480D01*
G03X-0003640000Y0001614980I0000033080J0000022515D01*
G03X-0003640000Y0001695020I0J0000040020D01*
G03X-0003673080Y0001677520I0J-0000040015D01*
G01X-0003765670Y0001677520D01*
X-0003789270Y0001701120D01*
G02X-0003787740Y0001716740I0000007185J0000007181D01*
G03X-0003769980Y0001750000I-0000022264J0000033260D01*
G03X-0003810000Y0001790020I-0000040020J0D01*
G03X-0003837480Y0001779100I-0000000006J-0000040022D01*
G02X-0003850270Y0001778160I-0000006972J0000007385D01*
G03X-0003856090Y0001779990I-0000005817J-0000008331D01*
G01X-0004329990Y0001779990D01*
X-0004329990Y0001879990D01*
G37*
%LPC*%
G75*
G36*
G01X-0000813530Y0000701110D02*
G03X-0000812540Y0000717270I-0000005627J0000008455D01*
G02X-0000826490Y0000747640I0000026084J0000030370D01*
G02X-0000746450Y0000747640I0000040020J0D01*
G02X-0000764310Y0000714310I-0000040030J0D01*
G03X-0000765300Y0000698150I0000005627J-0000008455D01*
G02X-0000751350Y0000667780I-0000026084J-0000030370D01*
G02X-0000831390Y0000667780I-0000040020J0D01*
G02X-0000813530Y0000701110I0000040030J0D01*
G37*
G36*
G01X-0001771830Y0000913540D02*
G03X-0001770670Y0000929700I-0000005538J0000008519D01*
G02X-0001784320Y0000959800I0000026362J0000030100D01*
G02X-0001704280Y0000959800I0000040020J0D01*
G02X-0001722470Y0000926260I-0000040017J0D01*
G03X-0001723630Y0000910100I0000005538J-0000008519D01*
G02X-0001709980Y0000880000I-0000026362J-0000030100D01*
G02X-0001790020Y0000880000I-0000040020J0D01*
G02X-0001771830Y0000913540I0000040017J0D01*
G37*
G36*
G01X-0003766620Y0000935120D02*
G03X-0003773380Y0000935120I-0000003380J-0000003795D01*
G02X-0003800000Y0000924980I-0000026620J0000029872D01*
G02X-0003800000Y0001005020I0J0000040020D01*
G02X-0003773380Y0000994880I0J-0000040012D01*
G03X-0003766620Y0000994880I0000003380J0000003795D01*
G02X-0003740000Y0001005020I0000026620J-0000029872D01*
G02X-0003740000Y0000924980I0J-0000040020D01*
G02X-0003766620Y0000935120I0J0000040012D01*
G37*
G36*
G01X-0000874200Y0000995010D02*
G03X-0000864730Y0001008150I-0000000241J0000010156D01*
G02X-0000866490Y0001019890I0000038260J0000011738D01*
G02X-0000786450Y0001019890I0000040020J0D01*
G02X-0000825540Y0000979880I-0000040021J0D01*
G03X-0000835010Y0000966740I0000000241J-0000010156D01*
G02X-0000833250Y0000955000I-0000038260J-0000011738D01*
G02X-0000913290Y0000955000I-0000040020J0D01*
G02X-0000874200Y0000995010I0000040021J0D01*
G37*
G36*
G01X-0000800630Y0001325740D02*
G03X-0000798370Y0001341780I-0000004946J0000008876D01*
G02X-0000810020Y0001370000I0000028368J0000028226D01*
G02X-0000729980Y0001370000I0000040020J0D01*
G02X-0000750520Y0001335040I-0000040022J0D01*
G03X-0000752780Y0001319000I0000004946J-0000008876D01*
G02X-0000741130Y0001290780I-0000028368J-0000028226D01*
G02X-0000821170Y0001290780I-0000040020J0D01*
G02X-0000800630Y0001325740I0000040022J0D01*
G37*
G36*
G01X-0002310990Y0001717490D02*
G03X-0002326880Y0001720630I-0000009134J-0000004447D01*
G02X-0002353490Y0001710500I-0000026610J0000029885D01*
G02X-0002353490Y0001790540I0J0000040020D01*
G02X-0002317500Y0001768030I0J-0000040026D01*
G03X-0002301610Y0001764890I0000009134J0000004447D01*
G02X-0002275000Y0001775020I0000026610J-0000029885D01*
G02X-0002275000Y0001694980I0J-0000040020D01*
G02X-0002310990Y0001717490I0J0000040026D01*
G37*
G36*
G01X-0001606080Y0000214190D02*
G02X-0001561080Y0000253900I0000004979J0000039710D01*
G02X-0001564230Y0000238340I-0000040019J0000000003D01*
G03X-0001556130Y0000224310I0000009361J-0000003949D01*
G02X-0001521090Y0000184600I-0000004981J-0000039710D01*
G02X-0001561110Y0000144580I-0000040020J0D01*
G02X-0001571320Y0000145900I-0000000016J0000040022D01*
G03X-0001583580Y0000132970I-0000002590J-0000009822D01*
G02X-0001579980Y0000110000I-0000071421J-0000022961D01*
G02X-0001655000Y0000185020I-0000075020J0D01*
G02X-0001616480Y0000174380I0000000007J-0000075022D01*
G03X-0001601110Y0000183400I0000005215J0000008718D01*
G02X-0001601130Y0000184600I0000039999J0000001267D01*
G02X-0001597980Y0000200160I0000040019J-0000000003D01*
G03X-0001606080Y0000214190I-0000009361J0000003949D01*
G37*
G36*
G01X-0001378480Y0000405270D02*
G02X-0001414600Y0000462520I-0000036120J0000017231D01*
G02X-0001387360Y0000451810I-0000000008J-0000040017D01*
G03X-0001371270Y0000454880I0000006918J0000007444D01*
G02X-0001335150Y0000477670I0000036120J-0000017228D01*
G02X-0001335150Y0000397630I0J-0000040020D01*
G02X-0001362390Y0000408340I0000000008J0000040017D01*
G03X-0001378480Y0000405270I-0000006918J-0000007444D01*
G37*
G36*
G01X-0003320910Y0000730820D02*
G02X-0003259980Y0000764940I0000020912J0000034120D01*
G02X-0003273100Y0000735310I-0000040018J0D01*
G03X-0003271590Y0000719120I0000006823J-0000007529D01*
G02X-0003252480Y0000685000I-0000020905J-0000034120D01*
G02X-0003332520Y0000685000I-0000040020J0D01*
G02X-0003319400Y0000714630I0000040018J0D01*
G03X-0003320910Y0000730820I-0000006823J0000007529D01*
G37*
G36*
G01X-0002078760Y0000831280D02*
G02X-0002038910Y0000794980I0000039850J0000003724D01*
G02X-0002059750Y0000800830I-0000000007J0000040022D01*
G03X-0002075150Y0000791220I-0000005286J-0000008674D01*
G02X-0002074980Y0000787500I-0000039852J-0000003685D01*
G02X-0002115000Y0000827520I-0000040020J0D01*
G02X-0002094160Y0000821670I0000000007J-0000040022D01*
G03X-0002078760Y0000831280I0000005286J0000008674D01*
G37*
G36*
G01X-0002527820Y0001115080D02*
G02X-0002484980Y0001155000I0000002820J0000039920D01*
G02X-0002490280Y0001135110I-0000040017J0000000012D01*
G03X-0002482180Y0001119920I0000008816J-0000005053D01*
G02X-0002444980Y0001080000I-0000002819J-0000039920D01*
G02X-0002485000Y0001039980I-0000040020J0D01*
G02X-0002494800Y0001041200I0000000006J0000040019D01*
G03X-0002507030Y0001028450I-0000002492J-0000009850D01*
G02X-0002500800Y0000996670I-0000162970J-0000048449D01*
G03X-0002487510Y0000988010I0000010113J0000000992D01*
G02X-0002475000Y0000990020I0000012523J-0000038008D01*
G02X-0002434980Y0000950000I0J-0000040020D01*
G02X-0002460850Y0000912570I-0000040013J0D01*
G03X-0002464900Y0000896370I0000003595J-0000009505D01*
G02X-0002454980Y0000870000I-0000030089J-0000026370D01*
G02X-0002495000Y0000829980I-0000040020J0D01*
G02X-0002532650Y0000856430I0J0000040021D01*
G03X-0002549410Y0000860140I-0000009554J-0000003450D01*
G02X-0002670000Y0000809980I-0000120584J0000119862D01*
G02X-0002670000Y0001150020I0J0000170020D01*
G02X-0002540190Y0001089800I0J-0000170019D01*
G03X-0002522830Y0001093050I0000007755J0000006565D01*
G02X-0002519720Y0001099890I0000037822J-0000013070D01*
G03X-0002527820Y0001115080I-0000008816J0000005053D01*
G37*
G36*
G01X-0003661090Y0001244650D02*
G02X-0003594980Y0001275000I0000026088J0000030350D01*
G02X-0003620870Y0001237560I-0000040016J0D01*
G03X-0003623910Y0001220350I0000003584J-0000009507D01*
G02X-0003609980Y0001190000I-0000026098J-0000030350D01*
G02X-0003631920Y0001154300I-0000040015J0D01*
G03X-0003634800Y0001138360I0000004596J-0000009061D01*
G02X-0003624250Y0001111280I-0000029480J-0000027080D01*
G02X-0003704290Y0001111280I-0000040020J0D01*
G02X-0003682350Y0001146980I0000040015J0D01*
G03X-0003679470Y0001162920I-0000004596J0000009061D01*
G02X-0003690020Y0001190000I0000029480J0000027080D01*
G02X-0003664130Y0001227440I0000040016J0D01*
G03X-0003661090Y0001244650I-0000003584J0000009507D01*
G37*
G36*
G01X-0002190650Y0001434910D02*
G02X-0002117870Y0001457890I0000032762J0000022980D01*
G02X-0002154100Y0001418050I-0000040020J0D01*
G03X-0002161460Y0001402100I0000000959J-0000010116D01*
G02X-0002154200Y0001379120I-0000032758J-0000022986D01*
G02X-0002234240Y0001379120I-0000040020J0D01*
G02X-0002198010Y0001418960I0000040020J0D01*
G03X-0002190650Y0001434910I-0000000959J0000010116D01*
G37*
G54D14*
X-0003655000Y0000620000D03*
X-0003632500Y0001023080D03*
X-0003645000Y0001390000D03*
X-0003355000Y0001350000D03*
X-0003095000Y0000300000D03*
X-0003297500Y0000545000D03*
X-0003084800Y0000847440D03*
X-0003067500Y0000617500D03*
X-0003245000Y0000990000D03*
X-0003120000Y0001415000D03*
X-0003330000Y0001510000D03*
X-0002937500Y0000617500D03*
X-0002880000Y0001115000D03*
X-0003010000Y0001375000D03*
X-0002795000Y0001622500D03*
X-0002328980Y0000481020D03*
X-0002595000Y0000520000D03*
X-0002027090Y0000440000D03*
X-0002030000Y0000535000D03*
X-0002322500Y0001377500D03*
X-0002125000Y0001610000D03*
X-0002260000Y0001575000D03*
X-0001890000Y0001425000D03*
X-0001314980Y0000177000D03*
X-0001545000Y0000635000D03*
X-0001540000Y0001110000D03*
X-0001375770Y0001309490D03*
X-0001555000Y0001545000D03*
X-0001535000Y0001685000D03*
X-0001028660Y0000417500D03*
X-0001075000Y0000645000D03*
X-0001075000Y0001105000D03*
X-0001105000Y0001525000D03*
X-0000993070Y0001318070D03*
X-0000714000Y0000330000D03*
X-0000873590Y0000798590D03*
X-0000795000Y0000570000D03*
X-0000545000Y0000385000D03*
X-0000495000Y0000850000D03*
X-0000490000Y0000710000D03*
X-0000305000Y0001005000D03*
X-0000380000Y0001175000D03*
X-0000540000Y0001525000D03*
X-0000534650Y0001390000D03*
X-0000380000Y0001590000D03*
X-0000295000Y0001750000D03*
X-0000065000Y0000230000D03*
X-0000242990Y0000427500D03*
X-0000247500Y0001112500D03*
X-0000243590Y0001283910D03*
G54D15*
X-0000365000Y0000110000D03*
%LPD*%
G75*
G54D10*
X-0004254610Y0000222500D03*
X-0004287500Y0001467500D03*
X-0004162500Y0001467500D03*
X-0004287500Y0001682500D03*
X-0003855000Y0000195000D03*
X-0004030000Y0000348350D03*
X-0003800000Y0000965000D03*
X-0003740000Y0000965000D03*
X-0004037500Y0001467500D03*
X-0003795000Y0001532500D03*
X-0003810000Y0001750000D03*
X-0003821290Y0001608060D03*
X-0003655000Y0000620000D03*
X-0003632500Y0001023080D03*
X-0003664270Y0001111280D03*
X-0003650000Y0001190000D03*
X-0003635000Y0001275000D03*
X-0003645000Y0001390000D03*
X-0003355000Y0001350000D03*
X-0003640000Y0001655000D03*
X-0003095000Y0000300000D03*
X-0003035000Y0000200000D03*
X-0003297500Y0000545000D03*
X-0003084800Y0000847440D03*
X-0003300000Y0000764940D03*
X-0003292500Y0000685000D03*
X-0003067500Y0000617500D03*
X-0003245000Y0000990000D03*
X-0003330000Y0001510000D03*
X-0003120000Y0001415000D03*
X-0003037340Y0001450190D03*
X-0003335000Y0001230000D03*
X-0002937500Y0000617500D03*
X-0002880000Y0001115000D03*
X-0003010000Y0001375000D03*
X-0002795000Y0001622500D03*
X-0002328980Y0000481020D03*
X-0002650390Y0000201020D03*
X-0002595000Y0000520000D03*
X-0002495000Y0000210000D03*
X-0002495000Y0000870000D03*
X-0002475000Y0000950000D03*
X-0002525000Y0001155000D03*
X-0002485000Y0001080000D03*
X-0002353490Y0001750520D03*
X-0002220000Y0000195000D03*
X-0002027090Y0000440000D03*
X-0002115000Y0000787500D03*
X-0002038910Y0000835000D03*
X-0002030000Y0000535000D03*
X-0002060000Y0001120000D03*
X-0002060000Y0000940000D03*
X-0002060000Y0001000000D03*
X-0002060000Y0001060000D03*
X-0002322500Y0001377500D03*
X-0002157890Y0001457890D03*
X-0002194220Y0001379120D03*
X-0002275000Y0001735000D03*
X-0002125000Y0001610000D03*
X-0002260000Y0001575000D03*
X-0001745000Y0000305000D03*
X-0001750000Y0000440000D03*
X-0001684460Y0000394120D03*
X-0001650000Y0000540000D03*
X-0001750000Y0000700000D03*
X-0001750000Y0000880000D03*
X-0001744300Y0000959800D03*
X-0001890000Y0001425000D03*
X-0001699780Y0001242230D03*
X-0001314980Y0000177000D03*
X-0001446000Y0000185000D03*
X-0001561110Y0000184600D03*
X-0001613910Y0000441090D03*
X-0001601100Y0000253900D03*
X-0001335150Y0000437650D03*
X-0001414600Y0000422500D03*
X-0001545000Y0000635000D03*
X-0001540000Y0001110000D03*
X-0001375770Y0001309490D03*
X-0001555000Y0001545000D03*
X-0001634610Y0001552970D03*
X-0001535000Y0001685000D03*
X-0001182500Y0000417500D03*
X-0001028660Y0000417500D03*
X-0001075000Y0000645000D03*
X-0001075000Y0001105000D03*
X-0001105000Y0001525000D03*
X-0001115000Y0001439500D03*
X-0000993070Y0001318070D03*
X-0000714000Y0000330000D03*
X-0000873590Y0000798590D03*
X-0000791370Y0000667780D03*
X-0000795000Y0000570000D03*
X-0000786470Y0000747640D03*
X-0000873270Y0000955000D03*
X-0000826470Y0001019890D03*
X-0000770000Y0001370000D03*
X-0000781150Y0001290780D03*
X-0000545000Y0000385000D03*
X-0000495000Y0000850000D03*
X-0000490000Y0000710000D03*
X-0000475000Y0000570000D03*
X-0000305000Y0001005000D03*
X-0000380000Y0001175000D03*
X-0000540000Y0001525000D03*
X-0000534650Y0001390000D03*
X-0000380000Y0001590000D03*
X-0000295000Y0001750000D03*
X-0000065000Y0000230000D03*
X-0000242990Y0000427500D03*
X-0000247500Y0001112500D03*
X-0000243590Y0001283910D03*
G54D11*
X-0002670000Y0000980000D03*
G54D12*
X-0001655000Y0000110000D03*
X-0000365000Y0000110000D03*
G54D13*
G01X-0001613910Y0000441090D02*
X-0001636960Y0000418040D01*
X-0001636960Y0000374440D01*
X-0001664780Y0000346620D01*
X-0001704140Y0000346620D01*
X-0001720020Y0000362500D01*
X-0001797500Y0000362500D01*
X-0001885000Y0000275000D01*
X-0001885000Y0000067570D01*
X-0001917570Y0000035000D01*
X-0004092430Y0000035000D01*
X-0004200000Y0000142570D01*
X-0004200000Y0001380000D01*
X-0004287500Y0001467500D01*
G01X-0001684460Y0000394120D02*
X-0001728700Y0000394120D01*
X-0001730320Y0000392500D01*
X-0001832500Y0000392500D01*
X-0001915000Y0000310000D01*
X-0001915000Y0000080000D01*
X-0001930000Y0000065000D01*
X-0004055000Y0000065000D01*
X-0004155000Y0000165000D01*
X-0004155000Y0001350000D01*
X-0004037500Y0001467500D01*
G01X-0004162500Y0001467500D02*
X-0004162500Y0001505000D01*
X-0004147500Y0001520000D01*
X-0003995000Y0001520000D01*
X-0003980000Y0001505000D01*
X-0003980000Y0001425000D01*
X-0004120000Y0001285000D01*
X-0004120000Y0000190000D01*
X-0004035000Y0000105000D01*
X-0001990000Y0000105000D01*
X-0001955000Y0000140000D01*
X-0001955000Y0000320000D01*
X-0001735000Y0000540000D01*
X-0001650000Y0000540000D01*
G01X-0001750000Y0000700000D02*
X-0001750000Y0000605000D01*
X-0002010000Y0000345000D01*
X-0002010000Y0000155000D01*
X-0002025000Y0000140000D01*
X-0003995000Y0000140000D01*
X-0004080000Y0000225000D01*
X-0004080000Y0001275000D01*
X-0003895000Y0001460000D01*
X-0003895000Y0001560000D01*
X-0003860000Y0001595000D01*
X-0003834350Y0001595000D01*
X-0003821290Y0001608060D01*
G01X-0004287500Y0001682500D02*
X-0004255000Y0001682500D01*
X-0004237500Y0001700000D01*
X-0003820000Y0001700000D01*
X-0003775000Y0001655000D01*
X-0003640000Y0001655000D01*
M02*
