M48
METRIC
T01C.3
T02C.6
T03C3.
;LEADER: 12 
;HEADER: 
;CODE  : ASCII 
;FILE  : transponderRC2_4-11-1-4.drl for board C:/USERS/KLO/DESKTOP/KUGLEN/MODELFLYVNING/TRANSPONDER 2.4GHZ/VERSION 11/HARDWARE/allegro/#Taaabiv09168.tmp ... layers TOP and BOTTOM
;T01 Holesize 1. = 0.300000 Tolerance = +0.050000/-0.050000 PLATED MM Quantity = 112
;T02 Holesize 2. = 0.600000 Tolerance = +0.080000/-0.080000 PLATED MM Quantity = 2
;T03 Holesize 3. = 3.000000 Tolerance = +0.100000/-0.100000 PLATED MM Quantity = 1
%
G90
T01
X-0000065000Y0000230000
X-0000242990Y0000427500
X-0000545000Y0000385000
X-0000714000Y0000330000
X-0001028660Y0000417500
X-0001182500Y0000417500
X-0001314980Y0000177000
X-0001335150Y0000437650
X-0001414600Y0000422500
X-0001446000Y0000185000
X-0001561110Y0000184600
X-0001601100Y0000253900
X-0001613910Y0000441090
X-0001684460Y0000394120
X-0001745000Y0000305000
X-0001750000Y0000440000
X-0002027090Y0000440000
X-0002220000Y0000195000
X-0002328980Y0000481020
X-0002495000Y0000210000
X-0002650390Y0000201020
X-0003035000Y0000200000
X-0003095000Y0000300000
X-0003855000Y0000195000
X-0004030000Y0000348350
X-0004254610Y0000222500
X-0003800000Y0000965000
X-0003740000Y0000965000
X-0003655000Y0000620000
X-0003300000Y0000764940
X-0003297500Y0000545000
X-0003292500Y0000685000
X-0003245000Y0000990000
X-0003084800Y0000847440
X-0003067500Y0000617500
X-0002937500Y0000617500
X-0002595000Y0000520000
X-0002495000Y0000870000
X-0002475000Y0000950000
X-0002115000Y0000787500
X-0002060000Y0000940000
X-0002060000Y0001000000
X-0002038910Y0000835000
X-0002030000Y0000535000
X-0001750000Y0000700000
X-0001750000Y0000880000
X-0001744300Y0000959800
X-0001650000Y0000540000
X-0001545000Y0000635000
X-0001075000Y0000645000
X-0000873590Y0000798590
X-0000873270Y0000955000
X-0000795000Y0000570000
X-0000791370Y0000667780
X-0000786470Y0000747640
X-0000495000Y0000850000
X-0000490000Y0000710000
X-0000475000Y0000570000
X-0000305000Y0001005000
X-0000243590Y0001283910
X-0000247500Y0001112500
X-0000380000Y0001175000
X-0000534650Y0001390000
X-0000770000Y0001370000
X-0000781150Y0001290780
X-0000826470Y0001019890
X-0000993070Y0001318070
X-0001075000Y0001105000
X-0001115000Y0001439500
X-0001375770Y0001309490
X-0001540000Y0001110000
X-0001699780Y0001242230
X-0001890000Y0001425000
X-0002060000Y0001120000
X-0002060000Y0001060000
X-0002157890Y0001457890
X-0002194220Y0001379120
X-0002322500Y0001377500
X-0002485000Y0001080000
X-0002525000Y0001155000
X-0002880000Y0001115000
X-0003010000Y0001375000
X-0003037340Y0001450190
X-0003120000Y0001415000
X-0003330000Y0001510000
X-0003335000Y0001230000
X-0003355000Y0001350000
X-0003632500Y0001023080
X-0003635000Y0001275000
X-0003645000Y0001390000
X-0003650000Y0001190000
X-0003664270Y0001111280
X-0004037500Y0001467500
R02X-0000125000
X-0004287500Y0001682500
X-0003821290Y0001608060
X-0003810000Y0001750000
X-0003795000Y0001532500
X-0003640000Y0001655000
X-0002795000Y0001622500
X-0002353490Y0001750520
X-0002275000Y0001735000
X-0002260000Y0001575000
X-0002125000Y0001610000
X-0001634610Y0001552970
X-0001555000Y0001545000
X-0001535000Y0001685000
X-0001105000Y0001525000
X-0000540000Y0001525000
X-0000380000Y0001590000
X-0000295000Y0001750000
T02
X-0000365000Y0000110000
X-0001655000Y0000110000
T03
X-0002670000Y0000980000
M30
