G04 ================== begin FILE IDENTIFICATION RECORD ==================*
G04 Layout Name:  transponderRC2_4-11.brd*
G04 Film Name:    Solderpaste_top*
G04 File Format:  Gerber RS274X*
G04 File Origin:  Cadence Allegro 17.2-S042*
G04 Origin Date:  Thu Jan 24 18:04:02 2019*
G04 *
G04 Layer:  PACKAGE GEOMETRY/PASTEMASK_TOP*
G04 Layer:  PIN/PASTEMASK_TOP*
G04 Layer:  VIA CLASS/PASTEMASK_TOP*
G04 *
G04 Offset:    (0.0000 0.0000)*
G04 Mirror:    No*
G04 Mode:      Positive*
G04 Rotation:  0*
G04 FullContactRelief:  No*
G04 UndefLineWidth:     0.1500*
G04 ================== end FILE IDENTIFICATION RECORD ====================*
%FSAX55Y55*MOMM*%
%IR0*IPPOS*OFA0.00000B0.00000*MIA0B0*SFA1.00000B1.00000*%
%ADD14R,.6X1.*%
%ADD13R,.9X2.*%
%ADD11R,1.8X.7*%
%ADD12R,2.X1.*%
%ADD10R,2.2X1.6*%
%LPD*%
G75*
G54D10*
X-0004125000Y0000102500D03*
X-0004125000Y0001697500D03*
G54D11*
X-0003795000Y0000337500D03*
X-0003795000Y0000462500D03*
X-0003795000Y0000837500D03*
X-0003795000Y0000712500D03*
X-0003795000Y0000587500D03*
X-0003795000Y0001212500D03*
X-0003795000Y0001087500D03*
X-0003795000Y0000962500D03*
X-0003795000Y0001462500D03*
X-0003795000Y0001337500D03*
G54D12*
X-0003490000Y0000225000D03*
X-0003490000Y0000375000D03*
X-0003490000Y0000525000D03*
X-0003490000Y0000675000D03*
X-0003490000Y0000825000D03*
X-0003490000Y0000975000D03*
X-0003490000Y0001125000D03*
X-0003490000Y0001275000D03*
X-0003490000Y0001425000D03*
X-0003490000Y0001575000D03*
X-0001890000Y0000525000D03*
X-0001890000Y0000375000D03*
X-0001890000Y0000225000D03*
X-0001890000Y0000825000D03*
X-0001890000Y0000675000D03*
X-0001890000Y0001125000D03*
X-0001890000Y0000975000D03*
X-0001890000Y0001575000D03*
X-0001890000Y0001425000D03*
X-0001890000Y0001275000D03*
G54D13*
X-0001319000Y0000185000D03*
X-0001446000Y0000185000D03*
X-0001446000Y0001685000D03*
X-0001319000Y0001685000D03*
X-0000938000Y0000185000D03*
X-0001065000Y0000185000D03*
X-0001192000Y0000185000D03*
X-0001192000Y0001685000D03*
X-0001065000Y0001685000D03*
X-0000938000Y0001685000D03*
X-0000684000Y0000185000D03*
X-0000811000Y0000185000D03*
X-0000811000Y0001685000D03*
X-0000684000Y0001685000D03*
X-0000557000Y0000185000D03*
X-0000557000Y0001685000D03*
G54D14*
X-0000065000Y0000080000D03*
X-0000205000Y0000080000D03*
M02*
