G04 ================== begin FILE IDENTIFICATION RECORD ==================*
G04 Layout Name:  transponderRC2_4-11.brd*
G04 Film Name:    1_TOP*
G04 File Format:  Gerber RS274X*
G04 File Origin:  Cadence Allegro 17.2-S042*
G04 Origin Date:  Thu Jan 24 18:04:02 2019*
G04 *
G04 Layer:  VIA CLASS/TOP*
G04 Layer:  PIN/TOP*
G04 Layer:  ETCH/TOP*
G04 *
G04 Offset:    (0.0000 0.0000)*
G04 Mirror:    No*
G04 Mode:      Positive*
G04 Rotation:  0*
G04 FullContactRelief:  No*
G04 UndefLineWidth:     0.1500*
G04 ================== end FILE IDENTIFICATION RECORD ====================*
%FSAX55Y55*MOMM*%
%IR0*IPPOS*OFA0.00000B0.00000*MIA0B0*SFA1.00000B1.00000*%
%ADD17R,.6X1.*%
%ADD16R,.9X2.*%
%ADD14C,.1*%
%ADD12R,1.8X.7*%
%ADD11C,.5*%
%ADD13R,2.X1.*%
%ADD10R,2.2X1.6*%
%ADD15C,1.2*%
%ADD18C,.3*%
%ADD19C,.15*%
G75*
%LPD*%
G75*
G54D10*
X-0004125000Y0000102500D03*
X-0004125000Y0001697500D03*
G54D11*
G01X-0004030000Y0000348350D02*
X-0003920850Y0000348350D01*
X-0003910000Y0000337500D01*
X-0003795000Y0000337500D01*
G01X-0003490000Y0001275000D02*
X-0003635000Y0001275000D01*
G01X-0003645000Y0001390000D02*
X-0003645000Y0001565000D01*
X-0003635000Y0001575000D01*
G01X-0003635000Y0001575000D02*
X-0003490000Y0001575000D01*
G01X-0003640000Y0001655000D02*
X-0003640000Y0001580000D01*
G01X-0003035000Y0000200000D02*
X-0002985000Y0000200000D01*
X-0002915000Y0000130000D01*
X-0002575000Y0000130000D01*
X-0002495000Y0000210000D01*
G01X-0002328980Y0000481020D02*
X-0002196020Y0000481020D01*
X-0002090000Y0000375000D01*
X-0001890000Y0000375000D01*
G01X-0001319000Y0000185000D02*
X-0001319000Y0000181020D01*
X-0001314980Y0000177000D01*
G01X-0001535000Y0001685000D02*
X-0001446000Y0001685000D01*
G01X-0000684000Y0001685000D02*
X-0000684000Y0001575000D01*
X-0000634000Y0001525000D01*
X-0000540000Y0001525000D01*
G01X-0000205000Y0000080000D02*
X-0000335000Y0000080000D01*
X-0000365000Y0000110000D01*
X-0004254610Y0000222500D03*
X-0004287500Y0001467500D03*
X-0004162500Y0001467500D03*
X-0004287500Y0001682500D03*
X-0003855000Y0000195000D03*
X-0004030000Y0000348350D03*
X-0003800000Y0000965000D03*
X-0003740000Y0000965000D03*
X-0004037500Y0001467500D03*
X-0003795000Y0001532500D03*
X-0003810000Y0001750000D03*
X-0003821290Y0001608060D03*
X-0003655000Y0000620000D03*
X-0003632500Y0001023080D03*
X-0003664270Y0001111280D03*
X-0003650000Y0001190000D03*
X-0003635000Y0001275000D03*
X-0003645000Y0001390000D03*
X-0003355000Y0001350000D03*
X-0003640000Y0001655000D03*
X-0003095000Y0000300000D03*
X-0003035000Y0000200000D03*
X-0003297500Y0000545000D03*
X-0003084800Y0000847440D03*
X-0003300000Y0000764940D03*
X-0003292500Y0000685000D03*
X-0003067500Y0000617500D03*
X-0003245000Y0000990000D03*
X-0003330000Y0001510000D03*
X-0003120000Y0001415000D03*
X-0003037340Y0001450190D03*
X-0003335000Y0001230000D03*
X-0002937500Y0000617500D03*
X-0002880000Y0001115000D03*
X-0003010000Y0001375000D03*
X-0002795000Y0001622500D03*
X-0002328980Y0000481020D03*
X-0002650390Y0000201020D03*
X-0002595000Y0000520000D03*
X-0002495000Y0000210000D03*
X-0002495000Y0000870000D03*
X-0002475000Y0000950000D03*
X-0002525000Y0001155000D03*
X-0002485000Y0001080000D03*
X-0002353490Y0001750520D03*
X-0002220000Y0000195000D03*
X-0002027090Y0000440000D03*
X-0002115000Y0000787500D03*
X-0002038910Y0000835000D03*
X-0002030000Y0000535000D03*
X-0002060000Y0001120000D03*
X-0002060000Y0000940000D03*
X-0002060000Y0001000000D03*
X-0002060000Y0001060000D03*
X-0002322500Y0001377500D03*
X-0002157890Y0001457890D03*
X-0002194220Y0001379120D03*
X-0002275000Y0001735000D03*
X-0002125000Y0001610000D03*
X-0002260000Y0001575000D03*
X-0001745000Y0000305000D03*
X-0001750000Y0000440000D03*
X-0001684460Y0000394120D03*
X-0001650000Y0000540000D03*
X-0001750000Y0000700000D03*
X-0001750000Y0000880000D03*
X-0001744300Y0000959800D03*
X-0001890000Y0001425000D03*
X-0001699780Y0001242230D03*
X-0001314980Y0000177000D03*
X-0001446000Y0000185000D03*
X-0001561110Y0000184600D03*
X-0001613910Y0000441090D03*
X-0001601100Y0000253900D03*
X-0001335150Y0000437650D03*
X-0001414600Y0000422500D03*
X-0001545000Y0000635000D03*
X-0001540000Y0001110000D03*
X-0001375770Y0001309490D03*
X-0001555000Y0001545000D03*
X-0001634610Y0001552970D03*
X-0001535000Y0001685000D03*
X-0001182500Y0000417500D03*
X-0001028660Y0000417500D03*
X-0001075000Y0000645000D03*
X-0001075000Y0001105000D03*
X-0001105000Y0001525000D03*
X-0001115000Y0001439500D03*
X-0000993070Y0001318070D03*
X-0000714000Y0000330000D03*
X-0000873590Y0000798590D03*
X-0000791370Y0000667780D03*
X-0000795000Y0000570000D03*
X-0000786470Y0000747640D03*
X-0000873270Y0000955000D03*
X-0000826470Y0001019890D03*
X-0000770000Y0001370000D03*
X-0000781150Y0001290780D03*
X-0000545000Y0000385000D03*
X-0000495000Y0000850000D03*
X-0000490000Y0000710000D03*
X-0000475000Y0000570000D03*
X-0000305000Y0001005000D03*
X-0000380000Y0001175000D03*
X-0000540000Y0001525000D03*
X-0000534650Y0001390000D03*
X-0000380000Y0001590000D03*
X-0000295000Y0001750000D03*
X-0000065000Y0000230000D03*
X-0000242990Y0000427500D03*
X-0000247500Y0001112500D03*
X-0000243590Y0001283910D03*
G54D12*
X-0003795000Y0000337500D03*
X-0003795000Y0000462500D03*
X-0003795000Y0000837500D03*
X-0003795000Y0000712500D03*
X-0003795000Y0000587500D03*
X-0003795000Y0001212500D03*
X-0003795000Y0001087500D03*
X-0003795000Y0000962500D03*
X-0003795000Y0001462500D03*
X-0003795000Y0001337500D03*
G54D13*
X-0003490000Y0000225000D03*
X-0003490000Y0000375000D03*
X-0003490000Y0000525000D03*
X-0003490000Y0000675000D03*
X-0003490000Y0000825000D03*
X-0003490000Y0000975000D03*
X-0003490000Y0001125000D03*
X-0003490000Y0001275000D03*
X-0003490000Y0001425000D03*
X-0003490000Y0001575000D03*
X-0001890000Y0000525000D03*
X-0001890000Y0000375000D03*
X-0001890000Y0000225000D03*
X-0001890000Y0000825000D03*
X-0001890000Y0000675000D03*
X-0001890000Y0001125000D03*
X-0001890000Y0000975000D03*
X-0001890000Y0001575000D03*
X-0001890000Y0001425000D03*
X-0001890000Y0001275000D03*
G54D14*
X-0002670000Y0000980000D03*
G54D15*
X-0001655000Y0000110000D03*
X-0000365000Y0000110000D03*
G54D16*
X-0001319000Y0000185000D03*
X-0001446000Y0000185000D03*
X-0001446000Y0001685000D03*
X-0001319000Y0001685000D03*
X-0000938000Y0000185000D03*
X-0001065000Y0000185000D03*
X-0001192000Y0000185000D03*
X-0001192000Y0001685000D03*
X-0001065000Y0001685000D03*
X-0000938000Y0001685000D03*
X-0000684000Y0000185000D03*
X-0000811000Y0000185000D03*
X-0000811000Y0001685000D03*
X-0000684000Y0001685000D03*
X-0000557000Y0000185000D03*
X-0000557000Y0001685000D03*
G54D17*
X-0000065000Y0000080000D03*
X-0000205000Y0000080000D03*
G54D18*
G01X-0003010000Y0001375000D02*
X-0002965000Y0001420000D01*
X-0002965000Y0001585000D01*
X-0003135000Y0001755000D01*
X-0003727210Y0001755000D01*
X-0003787210Y0001695000D01*
X-0003832790Y0001695000D01*
X-0003865000Y0001727210D01*
X-0003882790Y0001727210D01*
X-0003945000Y0001665000D01*
X-0003945000Y0001605000D01*
X-0003975000Y0001575000D01*
X-0004055000Y0001575000D01*
X-0004105000Y0001525000D01*
X-0004105000Y0000625000D01*
X-0003942500Y0000462500D01*
X-0003795000Y0000462500D01*
G01X-0003490000Y0000525000D02*
X-0003317500Y0000525000D01*
X-0003297500Y0000545000D01*
G01X-0003640000Y0001580000D02*
X-0003635000Y0001575000D01*
G01X-0003355000Y0001350000D02*
X-0003330000Y0001350000D01*
X-0003275000Y0001295000D01*
X-0003275000Y0001189990D01*
X-0003300000Y0001164990D01*
X-0003300000Y0000764940D01*
G01X-0003245000Y0000990000D02*
X-0003245000Y0000732500D01*
X-0003292500Y0000685000D01*
G01X-0001319000Y0000190000D02*
X-0001319000Y0000185000D01*
G01X-0001446000Y0000190000D02*
X-0001446000Y0000185000D01*
G01X-0001530000Y0001690000D02*
X-0001535000Y0001685000D01*
G01X-0000684000Y0000185000D02*
X-0000684000Y0000300000D01*
X-0000714000Y0000330000D01*
G01X-0000684000Y0001690000D02*
X-0000684000Y0001685000D01*
G01X-0000065000Y0000080000D02*
X-0000065000Y0000230000D01*
G54D19*
G01X-0004030000Y0000348350D02*
X-0004030000Y0000240000D01*
X-0003840000Y0000050000D01*
X-0001745000Y0000050000D01*
X-0001722500Y0000027500D01*
X-0001620820Y0000027500D01*
X-0001603320Y0000045000D01*
X-0001525250Y0000045000D01*
X-0001512750Y0000032500D01*
X-0001194570Y0000032500D01*
X-0001172070Y0000055000D01*
X-0000505000Y0000055000D01*
X-0000480000Y0000080000D01*
X-0000480000Y0000160000D01*
X-0000435000Y0000205000D01*
X-0000405000Y0000205000D01*
X-0000360000Y0000250000D01*
X-0000360000Y0001080000D01*
X-0000300000Y0001140000D01*
X-0000300000Y0001227500D01*
X-0000243590Y0001283910D01*
G01X-0003632500Y0001023080D02*
X-0003632500Y0000775000D01*
X-0003695000Y0000712500D01*
X-0003795000Y0000712500D01*
G01X-0003664270Y0001111280D02*
X-0003664270Y0001078780D01*
X-0003680000Y0001063050D01*
X-0003680000Y0000897500D01*
X-0003740000Y0000837500D01*
X-0003795000Y0000837500D01*
G01X-0003795000Y0000587500D02*
X-0003687500Y0000587500D01*
X-0003655000Y0000620000D01*
G01X-0003795000Y0001337500D02*
X-0003902500Y0001337500D01*
X-0003945000Y0001380000D01*
X-0003945000Y0001505000D01*
X-0003905000Y0001545000D01*
X-0003905000Y0001600830D01*
X-0003848330Y0001657500D01*
X-0003771670Y0001657500D01*
X-0003711670Y0001717500D01*
X-0003317500Y0001717500D01*
X-0003280000Y0001680000D01*
X-0003280000Y0001353040D01*
X-0003237500Y0001310540D01*
X-0003237500Y0001157500D01*
X-0003165000Y0001085000D01*
X-0003165000Y0000640000D01*
X-0002965000Y0000440000D01*
X-0002421480Y0000440000D01*
X-0002406480Y0000455000D01*
X-0002406480Y0000513130D01*
X-0002361090Y0000558520D01*
X-0002163910Y0000558520D01*
X-0002140390Y0000535000D01*
X-0002030000Y0000535000D01*
G01X-0003795000Y0001532500D02*
X-0003795000Y0001462500D01*
G01X-0003795000Y0001212500D02*
X-0003672500Y0001212500D01*
X-0003650000Y0001190000D01*
G01X-0001601100Y0000253900D02*
X-0001736100Y0000253900D01*
X-0001767500Y0000222500D01*
X-0001767500Y0000165680D01*
X-0001780680Y0000152500D01*
X-0001837500Y0000152500D01*
X-0001850000Y0000140000D01*
X-0002275000Y0000140000D01*
X-0002425000Y0000290000D01*
X-0002955000Y0000290000D01*
X-0003040000Y0000375000D01*
X-0003490000Y0000375000D01*
G01X-0001561110Y0000184600D02*
X-0001593610Y0000184600D01*
X-0001614010Y0000205000D01*
X-0001717500Y0000205000D01*
X-0001737500Y0000185000D01*
X-0001737500Y0000153250D01*
X-0001768250Y0000122500D01*
X-0001825070Y0000122500D01*
X-0001837570Y0000110000D01*
X-0002287430Y0000110000D01*
X-0002434930Y0000257500D01*
X-0003070320Y0000257500D01*
X-0003102820Y0000225000D01*
X-0003490000Y0000225000D01*
G01X-0002027090Y0000440000D02*
X-0002087820Y0000440000D01*
X-0002176340Y0000528520D01*
X-0002348660Y0000528520D01*
X-0002376480Y0000500700D01*
X-0002376480Y0000423940D01*
X-0002390420Y0000410000D01*
X-0002977430Y0000410000D01*
X-0003122430Y0000555000D01*
X-0003140000Y0000555000D01*
X-0003190000Y0000605000D01*
X-0003330000Y0000605000D01*
X-0003350000Y0000625000D01*
X-0003350000Y0001110000D01*
X-0003365000Y0001125000D01*
X-0003490000Y0001125000D01*
G01X-0002795000Y0001622500D02*
X-0002795000Y0001315000D01*
X-0003080000Y0001030000D01*
X-0003080000Y0000884740D01*
X-0003084800Y0000879940D01*
X-0003084800Y0000847440D01*
G01X-0000993070Y0001318070D02*
X-0001203070Y0001318070D01*
X-0001335000Y0001450000D01*
X-0001392820Y0001450000D01*
X-0001535320Y0001592500D01*
X-0001537500Y0001592500D01*
X-0001620000Y0001675000D01*
X-0002160000Y0001675000D01*
X-0002175000Y0001660000D01*
X-0002175000Y0001617560D01*
X-0002182500Y0001610060D01*
X-0002182500Y0001542890D01*
X-0002227890Y0001497500D01*
X-0002302430Y0001497500D01*
X-0002344930Y0001455000D01*
X-0002354610Y0001455000D01*
X-0002400000Y0001409610D01*
X-0002400000Y0001345390D01*
X-0002335000Y0001280390D01*
X-0002335000Y0000770000D01*
X-0002537500Y0000567500D01*
X-0002614680Y0000567500D01*
X-0002642500Y0000539680D01*
X-0002642500Y0000490610D01*
X-0002657500Y0000475610D01*
X-0002925610Y0000475610D01*
X-0003067500Y0000617500D01*
G01X-0002275000Y0001735000D02*
X-0002205000Y0001665000D01*
X-0002205000Y0001629990D01*
X-0002212500Y0001622490D01*
X-0002212500Y0001555320D01*
X-0002240320Y0001527500D01*
X-0002357490Y0001527500D01*
X-0002709990Y0001175000D01*
X-0002845000Y0001175000D01*
X-0002880000Y0001140000D01*
X-0002880000Y0001115000D01*
G01X-0002125000Y0001610000D02*
X-0002147990Y0001587010D01*
X-0002147990Y0001534970D01*
X-0002215460Y0001467500D01*
X-0002290000Y0001467500D01*
X-0002332500Y0001425000D01*
X-0002342180Y0001425000D01*
X-0002370000Y0001397180D01*
X-0002370000Y0001357820D01*
X-0002305000Y0001292820D01*
X-0002305000Y0000740010D01*
X-0002525010Y0000520000D01*
X-0002595000Y0000520000D01*
G01X-0002260000Y0001575000D02*
X-0002260000Y0001640010D01*
X-0002322500Y0001702510D01*
X-0002322500Y0001719530D01*
X-0002353490Y0001750520D01*
G01X-0002115000Y0000787500D02*
X-0002260000Y0000787500D01*
X-0002275000Y0000802500D01*
X-0002275000Y0001365530D01*
X-0002205630Y0001434900D01*
X-0002180880Y0001434900D01*
X-0002157890Y0001457890D01*
G01X-0002194220Y0001379120D02*
X-0002245000Y0001328340D01*
X-0002245000Y0000862500D01*
X-0002217500Y0000835000D01*
X-0002038910Y0000835000D01*
G01X-0000938000Y0000185000D02*
X-0000938000Y0000293500D01*
X-0000979500Y0000335000D01*
X-0001057430Y0000335000D01*
X-0001092430Y0000370000D01*
X-0001247570Y0000370000D01*
X-0001272570Y0000345000D01*
X-0001480000Y0000345000D01*
X-0001495000Y0000360000D01*
X-0001495000Y0000505010D01*
X-0001589990Y0000600000D01*
X-0001682500Y0000600000D01*
X-0001697500Y0000585000D01*
X-0001697500Y0000520320D01*
X-0001669680Y0000492500D01*
X-0001665320Y0000492500D01*
X-0001613910Y0000441090D01*
G01X-0001750000Y0000880000D02*
X-0001700000Y0000830000D01*
X-0001700000Y0000624930D01*
X-0001727500Y0000597430D01*
X-0001727500Y0000507890D01*
X-0001704810Y0000485190D01*
X-0001750000Y0000440000D01*
G01X-0001684460Y0000394120D02*
X-0001645340Y0000355000D01*
X-0001635010Y0000355000D01*
X-0001513500Y0000233490D01*
X-0001513500Y0000075680D01*
X-0001500320Y0000062500D01*
X-0001207000Y0000062500D01*
X-0001192000Y0000077500D01*
X-0001192000Y0000185000D01*
G01X-0000811000Y0000185000D02*
X-0000811000Y0000316000D01*
X-0000860000Y0000365000D01*
X-0001045000Y0000365000D01*
X-0001145000Y0000465000D01*
X-0001202180Y0000465000D01*
X-0001230000Y0000437180D01*
X-0001230000Y0000430000D01*
X-0001285000Y0000375000D01*
X-0001450000Y0000375000D01*
X-0001465000Y0000390000D01*
X-0001465000Y0000622180D01*
X-0001505000Y0000662180D01*
X-0001505000Y0000840000D01*
X-0001624800Y0000959800D01*
X-0001744300Y0000959800D01*
G01X-0001650000Y0000540000D02*
X-0001617500Y0000540000D01*
X-0001535000Y0000457500D01*
X-0001535000Y0000330000D01*
X-0001520000Y0000315000D01*
X-0001260140Y0000315000D01*
X-0001235140Y0000340000D01*
X-0001111500Y0000340000D01*
X-0001065000Y0000293500D01*
X-0001065000Y0000185000D01*
G01X-0001335150Y0000437650D02*
X-0001312160Y0000460640D01*
X-0001312160Y0000475020D01*
X-0000932180Y0000855000D01*
X-0000831150Y0000855000D01*
X-0000730000Y0000956150D01*
X-0000730000Y0001130020D01*
X-0000858650Y0001258670D01*
X-0000858650Y0001322890D01*
X-0000822990Y0001358550D01*
X-0000822990Y0001359440D01*
X-0000817500Y0001364930D01*
X-0000817500Y0001389680D01*
X-0000785000Y0001422180D01*
X-0000785000Y0001551500D01*
X-0000811000Y0001577500D01*
X-0000811000Y0001685000D01*
G01X-0001414600Y0000422500D02*
X-0001391610Y0000445490D01*
X-0001391610Y0000448370D01*
X-0000949980Y0000890000D01*
X-0000838580Y0000890000D01*
X-0000770000Y0000958580D01*
X-0000770000Y0001127590D01*
X-0000888650Y0001246240D01*
X-0000888650Y0001335320D01*
X-0000852990Y0001370980D01*
X-0000852990Y0001371870D01*
X-0000847500Y0001377360D01*
X-0000847500Y0001402110D01*
X-0000825000Y0001424610D01*
X-0000825000Y0001464500D01*
X-0000938000Y0001577500D01*
X-0000938000Y0001685000D01*
G01X-0000545000Y0000385000D02*
X-0000570610Y0000410610D01*
X-0000989270Y0000410610D01*
X-0000996160Y0000417500D01*
X-0001028660Y0000417500D01*
G01X-0000826470Y0001019890D02*
X-0000879890Y0001019890D01*
X-0000940000Y0001080000D01*
X-0000940000Y0001452500D01*
X-0001065000Y0001577500D01*
X-0001065000Y0001685000D01*
G01X-0000781150Y0001290780D02*
X-0000655000Y0001164630D01*
X-0000655000Y0000946290D01*
X-0000833970Y0000767320D01*
X-0000833970Y0000766030D01*
X-0000890000Y0000710000D01*
X-0000890000Y0000555000D01*
X-0000800000Y0000465000D01*
X-0000450000Y0000465000D01*
X-0000415000Y0000430000D01*
X-0000415000Y0000274500D01*
X-0000504500Y0000185000D01*
X-0000557000Y0000185000D01*
G01X-0000770000Y0001370000D02*
X-0000792990Y0001347010D01*
X-0000792990Y0001346120D01*
X-0000828650Y0001310460D01*
X-0000828650Y0001271100D01*
X-0000690000Y0001132450D01*
X-0000690000Y0000953720D01*
X-0000822140Y0000821580D01*
X-0000850600Y0000821580D01*
X-0000873590Y0000798590D01*
G01X-0000791370Y0000667780D02*
X-0000715000Y0000744150D01*
X-0000715000Y0000755000D01*
X-0000610000Y0000860000D01*
X-0000610000Y0000862430D01*
X-0000590000Y0000882430D01*
X-0000590000Y0001184490D01*
X-0000630000Y0001224490D01*
X-0000630000Y0001427500D01*
X-0000617500Y0001440000D01*
X-0000549750Y0001440000D01*
X-0000547250Y0001442500D01*
X-0000507890Y0001442500D01*
X-0000462500Y0001487890D01*
X-0000462500Y0001662500D01*
X-0000375000Y0001750000D01*
X-0000295000Y0001750000D01*
G01X-0000534650Y0001390000D02*
X-0000534650Y0000895350D01*
X-0000580000Y0000850000D01*
X-0000580000Y0000715000D01*
X-0000725000Y0000570000D01*
X-0000795000Y0000570000D01*
G01X-0000786470Y0000747640D02*
X-0000746680Y0000787430D01*
X-0000745000Y0000787430D01*
X-0000620000Y0000912430D01*
X-0000620000Y0001172060D01*
X-0000660000Y0001212060D01*
X-0000660000Y0001455000D01*
X-0000645000Y0001470000D01*
X-0000562180Y0001470000D01*
X-0000557180Y0001475000D01*
X-0000517820Y0001475000D01*
X-0000492500Y0001500320D01*
X-0000492500Y0001565500D01*
X-0000557000Y0001630000D01*
X-0000557000Y0001685000D01*
G01X-0000811000Y0001690000D02*
X-0000811000Y0001685000D01*
G01X-0000938000Y0001690000D02*
X-0000938000Y0001685000D01*
G01X-0000247500Y0001112500D02*
X-0000247500Y0001080000D01*
X-0000242990Y0001075490D01*
X-0000242990Y0000427500D01*
M02*
