G04 ================== begin FILE IDENTIFICATION RECORD ==================*
G04 Layout Name:  transponderRC2_4-11.brd*
G04 Film Name:    2_INNER_LAYER_2*
G04 File Format:  Gerber RS274X*
G04 File Origin:  Cadence Allegro 17.2-S042*
G04 Origin Date:  Thu Jan 24 18:04:02 2019*
G04 *
G04 Layer:  VIA CLASS/INNER_LAYER_2*
G04 Layer:  PIN/INNER_LAYER_2*
G04 Layer:  ETCH/INNER_LAYER_2*
G04 *
G04 Offset:    (0.0000 0.0000)*
G04 Mirror:    No*
G04 Mode:      Positive*
G04 Rotation:  0*
G04 FullContactRelief:  No*
G04 UndefLineWidth:     0.1500*
G04 ================== end FILE IDENTIFICATION RECORD ====================*
%FSAX55Y55*MOMM*%
%IR0*IPPOS*OFA0.00000B0.00000*MIA0B0*SFA1.00000B1.00000*%
%ADD11C,.1*%
%ADD10C,.5*%
%ADD12C,1.2*%
%ADD13C,.25*%
%ADD14C,.8004*%
%ADD16C,1.5004*%
%ADD15C,3.4004*%
G75*
%LPD*%
G75*
G36*
G01X-0004329990Y0001879990D02*
X0000029990Y0001879990D01*
X0000029990Y-0000079990D01*
X-0004329990Y-0000079990D01*
X-0004329990Y0001429120D01*
G02X-0004313280Y0001436890I0000010160J0000000004D01*
G03X-0004287500Y0001427480I0000025780J0000030609D01*
G03X-0004287500Y0001507520I0J0000040020D01*
G03X-0004313280Y0001498110I0J-0000040019D01*
G02X-0004329990Y0001505880I-0000006550J0000007766D01*
G01X-0004329990Y0001644120D01*
G02X-0004313280Y0001651890I0000010160J0000000004D01*
G03X-0004287500Y0001642480I0000025780J0000030609D01*
G03X-0004287500Y0001722520I0J0000040020D01*
G03X-0004313280Y0001713110I0J-0000040019D01*
G02X-0004329990Y0001720880I-0000006550J0000007766D01*
G01X-0004329990Y0001879990D01*
G37*
%LPC*%
G75*
G36*
G01X-0000813530Y0000701110D02*
G03X-0000812540Y0000717270I-0000005627J0000008455D01*
G02X-0000826490Y0000747640I0000026084J0000030370D01*
G02X-0000746450Y0000747640I0000040020J0D01*
G02X-0000764310Y0000714310I-0000040030J0D01*
G03X-0000765300Y0000698150I0000005627J-0000008455D01*
G02X-0000751350Y0000667780I-0000026084J-0000030370D01*
G02X-0000831390Y0000667780I-0000040020J0D01*
G02X-0000813530Y0000701110I0000040030J0D01*
G37*
G36*
G01X-0001771830Y0000913540D02*
G03X-0001770670Y0000929700I-0000005538J0000008519D01*
G02X-0001784320Y0000959800I0000026362J0000030100D01*
G02X-0001704280Y0000959800I0000040020J0D01*
G02X-0001722470Y0000926260I-0000040017J0D01*
G03X-0001723630Y0000910100I0000005538J-0000008519D01*
G02X-0001709980Y0000880000I-0000026362J-0000030100D01*
G02X-0001790020Y0000880000I-0000040020J0D01*
G02X-0001771830Y0000913540I0000040017J0D01*
G37*
G36*
G01X-0002089880Y0001086620D02*
G03X-0002089880Y0001093380I-0000003795J0000003380D01*
G02X-0002100020Y0001120000I0000029872J0000026620D01*
G02X-0002019980Y0001120000I0000040020J0D01*
G02X-0002030120Y0001093380I-0000040012J0D01*
G03X-0002030120Y0001086620I0000003795J-0000003380D01*
G02X-0002030120Y0001033380I-0000029872J-0000026620D01*
G03X-0002030120Y0001026620I0000003795J-0000003380D01*
G02X-0002030120Y0000973380I-0000029872J-0000026620D01*
G03X-0002030120Y0000966620I0000003795J-0000003380D01*
G02X-0002019980Y0000940000I-0000029872J-0000026620D01*
G02X-0002100020Y0000940000I-0000040020J0D01*
G02X-0002089880Y0000966620I0000040012J0D01*
G03X-0002089880Y0000973380I-0000003795J0000003380D01*
G02X-0002089880Y0001026620I0000029872J0000026620D01*
G03X-0002089880Y0001033380I-0000003795J0000003380D01*
G02X-0002089880Y0001086620I0000029872J0000026620D01*
G37*
G36*
G01X-0003682350Y0001146980D02*
G03X-0003679470Y0001162920I-0000004596J0000009061D01*
G02X-0003690020Y0001190000I0000029480J0000027080D01*
G02X-0003609980Y0001190000I0000040020J0D01*
G02X-0003631920Y0001154300I-0000040015J0D01*
G03X-0003634800Y0001138360I0000004596J-0000009061D01*
G02X-0003624250Y0001111280I-0000029480J-0000027080D01*
G02X-0003704290Y0001111280I-0000040020J0D01*
G02X-0003682350Y0001146980I0000040015J0D01*
G37*
G36*
G01X-0000800630Y0001325740D02*
G03X-0000798370Y0001341780I-0000004946J0000008876D01*
G02X-0000810020Y0001370000I0000028368J0000028226D01*
G02X-0000729980Y0001370000I0000040020J0D01*
G02X-0000750520Y0001335040I-0000040022J0D01*
G03X-0000752780Y0001319000I0000004946J-0000008876D01*
G02X-0000741130Y0001290780I-0000028368J-0000028226D01*
G02X-0000821170Y0001290780I-0000040020J0D01*
G02X-0000800630Y0001325740I0000040022J0D01*
G37*
G36*
G01X-0003043610Y0001396730D02*
G03X-0003049140Y0001411950I-0000008532J0000005515D01*
G02X-0003077360Y0001450190I0000011799J0000038240D01*
G02X-0002997320Y0001450190I0000040020J0D01*
G02X-0003003730Y0001428460I-0000040021J-0000000005D01*
G03X-0002998200Y0001413240I0000008532J-0000005515D01*
G02X-0002969980Y0001375000I-0000011799J-0000038240D01*
G02X-0003050020Y0001375000I-0000040020J0D01*
G02X-0003043610Y0001396730I0000040021J0000000005D01*
G37*
G36*
G01X-0003828300Y0001554690D02*
G03X-0003833630Y0001569990I-0000008457J0000005632D01*
G02X-0003861310Y0001608060I0000012340J0000038070D01*
G02X-0003781270Y0001608060I0000040020J0D01*
G02X-0003787990Y0001585870I-0000040018J0000000006D01*
G03X-0003782660Y0001570570I0000008457J-0000005632D01*
G02X-0003754980Y0001532500I-0000012340J-0000038070D01*
G02X-0003835020Y0001532500I-0000040020J0D01*
G02X-0003828300Y0001554690I0000040018J-0000000006D01*
G37*
G36*
G01X-0002310990Y0001717490D02*
G03X-0002326880Y0001720630I-0000009134J-0000004447D01*
G02X-0002353490Y0001710500I-0000026610J0000029885D01*
G02X-0002353490Y0001790540I0J0000040020D01*
G02X-0002317500Y0001768030I0J-0000040026D01*
G03X-0002301610Y0001764890I0000009134J0000004447D01*
G02X-0002275000Y0001775020I0000026610J-0000029885D01*
G02X-0002275000Y0001694980I0J-0000040020D01*
G02X-0002310990Y0001717490I0J0000040026D01*
G37*
G36*
G01X-0001606080Y0000214190D02*
G02X-0001561080Y0000253900I0000004979J0000039710D01*
G02X-0001564230Y0000238340I-0000040019J0000000003D01*
G03X-0001556130Y0000224310I0000009361J-0000003949D01*
G02X-0001521090Y0000184600I-0000004981J-0000039710D01*
G02X-0001561110Y0000144580I-0000040020J0D01*
G02X-0001571320Y0000145900I-0000000016J0000040022D01*
G03X-0001583580Y0000132970I-0000002590J-0000009822D01*
G02X-0001579980Y0000110000I-0000071421J-0000022961D01*
G02X-0001655000Y0000185020I-0000075020J0D01*
G02X-0001616480Y0000174380I0000000007J-0000075022D01*
G03X-0001601110Y0000183400I0000005215J0000008718D01*
G02X-0001601130Y0000184600I0000039999J0000001267D01*
G02X-0001597980Y0000200160I0000040019J-0000000003D01*
G03X-0001606080Y0000214190I-0000009361J0000003949D01*
G37*
G36*
G01X-0001378480Y0000405270D02*
G02X-0001414600Y0000462520I-0000036120J0000017231D01*
G02X-0001387360Y0000451810I-0000000008J-0000040017D01*
G03X-0001371270Y0000454880I0000006918J0000007444D01*
G02X-0001335150Y0000477670I0000036120J-0000017228D01*
G02X-0001335150Y0000397630I0J-0000040020D01*
G02X-0001362390Y0000408340I0000000008J0000040017D01*
G03X-0001378480Y0000405270I-0000006918J-0000007444D01*
G37*
G36*
G01X-0001653920Y0000440200D02*
G02X-0001613910Y0000401070I0000040010J0000000890D01*
G02X-0001630170Y0000404520I-0000000004J0000040021D01*
G03X-0001644450Y0000395010I-0000004123J-0000009285D01*
G02X-0001644440Y0000394120I-0000040010J-0000000895D01*
G02X-0001684460Y0000354100I-0000040020J0D01*
G02X-0001724450Y0000392620I0J0000040018D01*
G03X-0001737720Y0000401910I-0000010153J-0000000380D01*
G02X-0001750000Y0000399980I-0000012280J0000038102D01*
G02X-0001750000Y0000480020I0J0000040020D01*
G02X-0001710010Y0000441500I0J-0000040018D01*
G03X-0001696740Y0000432210I0000010153J0000000380D01*
G02X-0001684460Y0000434140I0000012280J-0000038102D01*
G02X-0001668200Y0000430690I0000000004J-0000040021D01*
G03X-0001653920Y0000440200I0000004123J0000009285D01*
G37*
G36*
G01X-0003320910Y0000730820D02*
G02X-0003259980Y0000764940I0000020912J0000034120D01*
G02X-0003273100Y0000735310I-0000040018J0D01*
G03X-0003271590Y0000719120I0000006823J-0000007529D01*
G02X-0003252480Y0000685000I-0000020905J-0000034120D01*
G02X-0003332520Y0000685000I-0000040020J0D01*
G02X-0003319400Y0000714630I0000040018J0D01*
G03X-0003320910Y0000730820I-0000006823J0000007529D01*
G37*
G36*
G01X-0002078760Y0000831280D02*
G02X-0002038910Y0000794980I0000039850J0000003724D01*
G02X-0002059750Y0000800830I-0000000007J0000040022D01*
G03X-0002075150Y0000791220I-0000005286J-0000008674D01*
G02X-0002074980Y0000787500I-0000039852J-0000003685D01*
G02X-0002115000Y0000827520I-0000040020J0D01*
G02X-0002094160Y0000821670I0000000007J-0000040022D01*
G03X-0002078760Y0000831280I0000005286J0000008674D01*
G37*
G36*
G01X-0002190650Y0001434910D02*
G02X-0002117870Y0001457890I0000032762J0000022980D01*
G02X-0002154100Y0001418050I-0000040020J0D01*
G03X-0002161460Y0001402100I0000000959J-0000010116D01*
G02X-0002154200Y0001379120I-0000032758J-0000022986D01*
G02X-0002234240Y0001379120I-0000040020J0D01*
G02X-0002198010Y0001418960I0000040020J0D01*
G03X-0002190650Y0001434910I-0000000959J0000010116D01*
G37*
G54D14*
X-0004162500Y0001467500D03*
X-0004030000Y0000348350D03*
X-0004037500Y0001467500D03*
X-0003655000Y0000620000D03*
X-0003632500Y0001023080D03*
X-0003645000Y0001390000D03*
X-0003355000Y0001350000D03*
X-0003640000Y0001655000D03*
X-0003035000Y0000200000D03*
X-0003084800Y0000847440D03*
X-0003067500Y0000617500D03*
X-0003245000Y0000990000D03*
X-0003335000Y0001230000D03*
X-0002880000Y0001115000D03*
X-0002795000Y0001622500D03*
X-0002595000Y0000520000D03*
X-0002495000Y0000210000D03*
X-0002027090Y0000440000D03*
X-0002030000Y0000535000D03*
X-0002125000Y0001610000D03*
X-0002260000Y0001575000D03*
X-0001750000Y0000700000D03*
X-0001650000Y0000540000D03*
X-0001699780Y0001242230D03*
X-0001446000Y0000185000D03*
X-0001634610Y0001552970D03*
X-0001182500Y0000417500D03*
X-0001028660Y0000417500D03*
X-0001115000Y0001439500D03*
X-0000993070Y0001318070D03*
X-0000873590Y0000798590D03*
X-0000795000Y0000570000D03*
X-0000826470Y0001019890D03*
X-0000545000Y0000385000D03*
X-0000475000Y0000570000D03*
X-0000534650Y0001390000D03*
X-0000295000Y0001750000D03*
X-0000065000Y0000230000D03*
X-0000242990Y0000427500D03*
X-0000247500Y0001112500D03*
X-0000243590Y0001283910D03*
G54D16*
X-0000365000Y0000110000D03*
G54D15*
X-0002670000Y0000980000D03*
%LPD*%
G75*
G54D10*
X-0004254610Y0000222500D03*
X-0004287500Y0001467500D03*
X-0004162500Y0001467500D03*
X-0004287500Y0001682500D03*
X-0003855000Y0000195000D03*
X-0004030000Y0000348350D03*
X-0003800000Y0000965000D03*
X-0003740000Y0000965000D03*
X-0004037500Y0001467500D03*
X-0003795000Y0001532500D03*
X-0003810000Y0001750000D03*
X-0003821290Y0001608060D03*
X-0003655000Y0000620000D03*
X-0003632500Y0001023080D03*
X-0003664270Y0001111280D03*
X-0003650000Y0001190000D03*
X-0003635000Y0001275000D03*
X-0003645000Y0001390000D03*
X-0003355000Y0001350000D03*
X-0003640000Y0001655000D03*
X-0003095000Y0000300000D03*
X-0003035000Y0000200000D03*
X-0003297500Y0000545000D03*
X-0003084800Y0000847440D03*
X-0003300000Y0000764940D03*
X-0003292500Y0000685000D03*
X-0003067500Y0000617500D03*
X-0003245000Y0000990000D03*
X-0003330000Y0001510000D03*
X-0003120000Y0001415000D03*
X-0003037340Y0001450190D03*
X-0003335000Y0001230000D03*
X-0002937500Y0000617500D03*
X-0002880000Y0001115000D03*
X-0003010000Y0001375000D03*
X-0002795000Y0001622500D03*
X-0002328980Y0000481020D03*
X-0002650390Y0000201020D03*
X-0002595000Y0000520000D03*
X-0002495000Y0000210000D03*
X-0002495000Y0000870000D03*
X-0002475000Y0000950000D03*
X-0002525000Y0001155000D03*
X-0002485000Y0001080000D03*
X-0002353490Y0001750520D03*
X-0002220000Y0000195000D03*
X-0002027090Y0000440000D03*
X-0002115000Y0000787500D03*
X-0002038910Y0000835000D03*
X-0002030000Y0000535000D03*
X-0002060000Y0001120000D03*
X-0002060000Y0000940000D03*
X-0002060000Y0001000000D03*
X-0002060000Y0001060000D03*
X-0002322500Y0001377500D03*
X-0002157890Y0001457890D03*
X-0002194220Y0001379120D03*
X-0002275000Y0001735000D03*
X-0002125000Y0001610000D03*
X-0002260000Y0001575000D03*
X-0001745000Y0000305000D03*
X-0001750000Y0000440000D03*
X-0001684460Y0000394120D03*
X-0001650000Y0000540000D03*
X-0001750000Y0000700000D03*
X-0001750000Y0000880000D03*
X-0001744300Y0000959800D03*
X-0001890000Y0001425000D03*
X-0001699780Y0001242230D03*
X-0001314980Y0000177000D03*
X-0001446000Y0000185000D03*
X-0001561110Y0000184600D03*
X-0001613910Y0000441090D03*
X-0001601100Y0000253900D03*
X-0001335150Y0000437650D03*
X-0001414600Y0000422500D03*
X-0001545000Y0000635000D03*
X-0001540000Y0001110000D03*
X-0001375770Y0001309490D03*
X-0001555000Y0001545000D03*
X-0001634610Y0001552970D03*
X-0001535000Y0001685000D03*
X-0001182500Y0000417500D03*
X-0001028660Y0000417500D03*
X-0001075000Y0000645000D03*
X-0001075000Y0001105000D03*
X-0001105000Y0001525000D03*
X-0001115000Y0001439500D03*
X-0000993070Y0001318070D03*
X-0000714000Y0000330000D03*
X-0000873590Y0000798590D03*
X-0000791370Y0000667780D03*
X-0000795000Y0000570000D03*
X-0000786470Y0000747640D03*
X-0000873270Y0000955000D03*
X-0000826470Y0001019890D03*
X-0000770000Y0001370000D03*
X-0000781150Y0001290780D03*
X-0000545000Y0000385000D03*
X-0000495000Y0000850000D03*
X-0000490000Y0000710000D03*
X-0000475000Y0000570000D03*
X-0000305000Y0001005000D03*
X-0000380000Y0001175000D03*
X-0000540000Y0001525000D03*
X-0000534650Y0001390000D03*
X-0000380000Y0001590000D03*
X-0000295000Y0001750000D03*
X-0000065000Y0000230000D03*
X-0000242990Y0000427500D03*
X-0000247500Y0001112500D03*
X-0000243590Y0001283910D03*
G54D11*
X-0002670000Y0000980000D03*
G54D12*
X-0001655000Y0000110000D03*
X-0000365000Y0000110000D03*
G54D13*
G01X-0000365000Y0000029900D02*
X-0000365000Y0000110000D01*
G01X-0000365000Y0000110000D02*
X-0000365000Y0000190100D01*
G01X-0000445100Y0000110000D02*
X-0000365000Y0000110000D01*
G01X-0000365000Y0000110000D02*
X-0000284900Y0000110000D01*
M02*
