G04 ================== begin FILE IDENTIFICATION RECORD ==================*
G04 Layout Name:  transponderRC2_4-11.brd*
G04 Film Name:    Solderpaste_bot*
G04 File Format:  Gerber RS274X*
G04 File Origin:  Cadence Allegro 17.2-S042*
G04 Origin Date:  Thu Jan 24 18:04:02 2019*
G04 *
G04 Layer:  PACKAGE GEOMETRY/PASTEMASK_BOTTOM*
G04 Layer:  PIN/PASTEMASK_BOTTOM*
G04 Layer:  VIA CLASS/PASTEMASK_BOTTOM*
G04 *
G04 Offset:    (0.0000 0.0000)*
G04 Mirror:    No*
G04 Mode:      Positive*
G04 Rotation:  0*
G04 FullContactRelief:  No*
G04 UndefLineWidth:     0.1500*
G04 ================== end FILE IDENTIFICATION RECORD ====================*
%FSAX55Y55*MOMM*%
%IR0*IPPOS*OFA0.00000B0.00000*MIA0B0*SFA1.00000B1.00000*%
%ADD18O,.6X1.1*%
%ADD17O,1.1X.6*%
%ADD22R,1.X.6*%
%ADD19R,.6X1.*%
%ADD16R,1.35X.4*%
%ADD23R,.3X1.55*%
%ADD24R,1.55X.3*%
%ADD13R,.55X1.05*%
%ADD14R,.6X.6*%
%ADD10R,1.0922X.6096*%
%ADD25R,.6096X1.0922*%
%ADD15R,1.6X2.1*%
%ADD29R,1.9X1.1*%
%ADD21R,.5X.6*%
%ADD11R,1.9X1.8*%
%ADD12R,1.9X1.9*%
%ADD28R,.3X.85*%
%ADD20R,.9X.6*%
%ADD27R,.85X.3*%
%ADD26R,1.3X1.3*%
G75*
%LPD*%
G75*
G36*
G01X-0001355000Y0000700000D02*
X-0001355000Y0000800000D01*
X-0001255000Y0000800000D01*
X-0001255000Y0000700000D01*
X-0001355000Y0000700000D01*
G37*
G36*
G01X-0001480000Y0000700000D02*
X-0001480000Y0000800000D01*
X-0001380000Y0000800000D01*
X-0001380000Y0000700000D01*
X-0001480000Y0000700000D01*
G37*
G36*
G01X-0001480000Y0000825000D02*
X-0001480000Y0000925000D01*
X-0001380000Y0000925000D01*
X-0001380000Y0000825000D01*
X-0001480000Y0000825000D01*
G37*
G36*
G01X-0001355000Y0000825000D02*
X-0001355000Y0000925000D01*
X-0001255000Y0000925000D01*
X-0001255000Y0000825000D01*
X-0001355000Y0000825000D01*
G37*
G36*
G01X-0001480000Y0000950000D02*
X-0001480000Y0001050000D01*
X-0001380000Y0001050000D01*
X-0001380000Y0000950000D01*
X-0001480000Y0000950000D01*
G37*
G36*
G01X-0001355000Y0000950000D02*
X-0001355000Y0001050000D01*
X-0001255000Y0001050000D01*
X-0001255000Y0000950000D01*
X-0001355000Y0000950000D01*
G37*
G36*
G01X-0001230000Y0000700000D02*
X-0001230000Y0000800000D01*
X-0001130000Y0000800000D01*
X-0001130000Y0000700000D01*
X-0001230000Y0000700000D01*
G37*
G36*
G01X-0001230000Y0000825000D02*
X-0001230000Y0000925000D01*
X-0001130000Y0000925000D01*
X-0001130000Y0000825000D01*
X-0001230000Y0000825000D01*
G37*
G36*
G01X-0001230000Y0000950000D02*
X-0001230000Y0001050000D01*
X-0001130000Y0001050000D01*
X-0001130000Y0000950000D01*
X-0001230000Y0000950000D01*
G37*
G54D10*
X-0004165000Y0000105000D03*
X-0004165000Y0000198980D03*
X-0004165000Y0000292960D03*
X-0003916080Y0000105000D03*
X-0003916080Y0000292960D03*
X-0002988920Y0000107040D03*
X-0002988920Y0000295000D03*
X-0002740000Y0000107040D03*
X-0002740000Y0000295000D03*
X-0002740000Y0000201020D03*
G54D20*
X-0003415000Y0000760000D03*
G54D11*
X-0004200000Y0000500000D03*
X-0004200000Y0001300000D03*
G54D12*
X-0004200000Y0000780000D03*
X-0004200000Y0001020000D03*
G54D21*
X-0003585000Y0000760000D03*
X-0003585000Y0000960000D03*
X-0003395000Y0000960000D03*
G54D13*
X-0004287500Y0001467500D03*
X-0004162500Y0001467500D03*
X-0004037500Y0001467500D03*
X-0004037500Y0001682500D03*
X-0004162500Y0001682500D03*
X-0004287500Y0001682500D03*
X-0003912500Y0001467500D03*
X-0003912500Y0001682500D03*
G54D22*
X-0003450000Y0001440000D03*
X-0003450000Y0001580000D03*
X-0001330000Y0001525000D03*
X-0001330000Y0001385000D03*
X-0001470000Y0001525000D03*
X-0001470000Y0001385000D03*
X-0001190000Y0001525000D03*
X-0001190000Y0001385000D03*
G54D14*
X-0003790000Y0000195000D03*
X-0003790000Y0000105000D03*
X-0003790000Y0000295000D03*
X-0003790000Y0000385000D03*
X-0003690000Y0001550000D03*
X-0003690000Y0001460000D03*
X-0003380000Y0000510000D03*
X-0003385000Y0000410000D03*
X-0003380000Y0000600000D03*
X-0003580000Y0001550000D03*
X-0003580000Y0001460000D03*
X-0003405000Y0001230000D03*
X-0003495000Y0001230000D03*
X-0003080000Y0000400000D03*
X-0003295000Y0000410000D03*
X-0003080000Y0000525000D03*
X-0003170000Y0000525000D03*
X-0003185000Y0001415000D03*
X-0003275000Y0001415000D03*
X-0002990000Y0000400000D03*
X-0002830000Y0000435000D03*
X-0002740000Y0000435000D03*
X-0002740000Y0000535000D03*
X-0002830000Y0000535000D03*
X-0002785000Y0000730000D03*
X-0002785000Y0000640000D03*
X-0002895000Y0001550000D03*
X-0002895000Y0001450000D03*
X-0002895000Y0001360000D03*
X-0002895000Y0001640000D03*
X-0002655000Y0001715000D03*
X-0002565000Y0001715000D03*
X-0002295000Y0000195000D03*
X-0002295000Y0000105000D03*
X-0002030000Y0000250000D03*
X-0002135000Y0000250000D03*
X-0002135000Y0000340000D03*
X-0002100000Y0000660000D03*
X-0002100000Y0000570000D03*
X-0001840000Y0000340000D03*
X-0001840000Y0000250000D03*
X-0001940000Y0000250000D03*
X-0001590000Y0001385000D03*
X-0001590000Y0001475000D03*
X-0000605000Y0001425000D03*
X-0000695000Y0001425000D03*
X-0000695000Y0001525000D03*
X-0000605000Y0001525000D03*
X-0000465000Y0001005000D03*
X-0000375000Y0001005000D03*
X-0000470000Y0001260000D03*
X-0000380000Y0001260000D03*
X-0000380000Y0001425000D03*
X-0000470000Y0001425000D03*
X-0000470000Y0001525000D03*
X-0000380000Y0001525000D03*
X-0000280000Y0001425000D03*
X-0000280000Y0001525000D03*
X-0000190000Y0001425000D03*
X-0000190000Y0001525000D03*
G54D23*
X-0003132500Y0000730000D03*
X-0003067500Y0000730000D03*
X-0003067500Y0001070000D03*
X-0003132500Y0001070000D03*
X-0003002500Y0000730000D03*
X-0002937500Y0000730000D03*
X-0002937500Y0001070000D03*
X-0003002500Y0001070000D03*
G54D15*
X-0003945000Y0000590000D03*
X-0003945000Y0001210000D03*
G54D24*
X-0002750000Y0001507500D03*
X-0002750000Y0001442500D03*
X-0002750000Y0001377500D03*
X-0002750000Y0001572500D03*
X-0002410000Y0001377500D03*
X-0002410000Y0001442500D03*
X-0002410000Y0001507500D03*
X-0002410000Y0001572500D03*
G54D25*
X-0002328980Y0000570000D03*
X-0002422960Y0000570000D03*
X-0002422960Y0000818920D03*
X-0002235000Y0000570000D03*
X-0002235000Y0000818920D03*
G54D16*
X-0003932500Y0000770000D03*
X-0003932500Y0000835000D03*
X-0003932500Y0001030000D03*
X-0003932500Y0000965000D03*
X-0003932500Y0000900000D03*
G54D26*
X-0002386680Y0001115000D03*
X-0002386680Y0000955000D03*
X-0002173320Y0001115000D03*
X-0002173320Y0000955000D03*
X-0000350000Y0000811680D03*
X-0000350000Y0000598320D03*
G54D17*
X-0003355000Y0000110000D03*
X-0003355000Y0000300000D03*
X-0003135000Y0000205000D03*
X-0003070000Y0001525000D03*
X-0003070000Y0001715000D03*
X-0003290000Y0001620000D03*
G54D27*
X-0001650000Y0000850000D03*
X-0001650000Y0000800000D03*
X-0001650000Y0000750000D03*
X-0001650000Y0000700000D03*
X-0001650000Y0000650000D03*
X-0001650000Y0000600000D03*
X-0001650000Y0001150000D03*
X-0001650000Y0001100000D03*
X-0001650000Y0001050000D03*
X-0001650000Y0001000000D03*
X-0001650000Y0000950000D03*
X-0001650000Y0000900000D03*
X-0000960000Y0000600000D03*
X-0000960000Y0000650000D03*
X-0000960000Y0000700000D03*
X-0000960000Y0000750000D03*
X-0000960000Y0000800000D03*
X-0000960000Y0000850000D03*
X-0000960000Y0000900000D03*
X-0000960000Y0000950000D03*
X-0000960000Y0001000000D03*
X-0000960000Y0001050000D03*
X-0000960000Y0001100000D03*
X-0000960000Y0001150000D03*
G54D18*
X-0003585000Y0000110000D03*
X-0003680000Y0000330000D03*
X-0003490000Y0000330000D03*
X-0002500000Y0000105000D03*
X-0002595000Y0000325000D03*
X-0002405000Y0000325000D03*
G54D28*
X-0001580000Y0000530000D03*
X-0001530000Y0000530000D03*
X-0001480000Y0000530000D03*
X-0001430000Y0000530000D03*
X-0001380000Y0000530000D03*
X-0001330000Y0000530000D03*
X-0001330000Y0001220000D03*
X-0001380000Y0001220000D03*
X-0001430000Y0001220000D03*
X-0001480000Y0001220000D03*
X-0001530000Y0001220000D03*
X-0001580000Y0001220000D03*
X-0001280000Y0000530000D03*
X-0001230000Y0000530000D03*
X-0001180000Y0000530000D03*
X-0001130000Y0000530000D03*
X-0001080000Y0000530000D03*
X-0001030000Y0000530000D03*
X-0001030000Y0001220000D03*
X-0001080000Y0001220000D03*
X-0001130000Y0001220000D03*
X-0001180000Y0001220000D03*
X-0001230000Y0001220000D03*
X-0001280000Y0001220000D03*
G54D19*
X-0003640000Y0000490000D03*
X-0003500000Y0000490000D03*
X-0001950000Y0001360000D03*
X-0001810000Y0001360000D03*
X-0001375000Y0000245000D03*
X-0001235000Y0000245000D03*
X-0000705000Y0000850000D03*
X-0000705000Y0000710000D03*
X-0000685000Y0000570000D03*
X-0000320000Y0000330000D03*
X-0000565000Y0000850000D03*
X-0000565000Y0000710000D03*
X-0000545000Y0000570000D03*
X-0000180000Y0000330000D03*
G54D29*
X-0000645000Y0001005000D03*
X-0000645000Y0001255000D03*
M02*
