G04 ================== begin FILE IDENTIFICATION RECORD ==================*
G04 Layout Name:  transponderRC2_4-11.brd*
G04 Film Name:    4_BOTTOM*
G04 File Format:  Gerber RS274X*
G04 File Origin:  Cadence Allegro 17.2-S042*
G04 Origin Date:  Thu Jan 24 18:04:02 2019*
G04 *
G04 Layer:  VIA CLASS/BOTTOM*
G04 Layer:  PIN/BOTTOM*
G04 Layer:  ETCH/BOTTOM*
G04 *
G04 Offset:    (0.0000 0.0000)*
G04 Mirror:    No*
G04 Mode:      Positive*
G04 Rotation:  0*
G04 FullContactRelief:  No*
G04 UndefLineWidth:     0.1500*
G04 ================== end FILE IDENTIFICATION RECORD ====================*
%FSAX55Y55*MOMM*%
%IR0*IPPOS*OFA0.00000B0.00000*MIA0B0*SFA1.00000B1.00000*%
%ADD19O,.6X1.1*%
%ADD18O,1.1X.6*%
%ADD23R,1.X.6*%
%ADD20R,.6X1.*%
%ADD17R,1.35X.4*%
%ADD24R,.3X1.55*%
%ADD26R,1.55X.3*%
%ADD25C,.1*%
%ADD14R,.55X1.05*%
%ADD12C,.5*%
%ADD15R,.6X.6*%
%ADD10R,1.0922X.6096*%
%ADD27R,.6096X1.0922*%
%ADD16R,1.6X2.1*%
%ADD34R,1.9X1.1*%
%ADD31C,1.*%
%ADD29C,1.2*%
%ADD22R,.5X.6*%
%ADD33R,5.4X5.4*%
%ADD11R,1.9X1.8*%
%ADD13R,1.9X1.9*%
%ADD32R,.3X.85*%
%ADD21R,.9X.6*%
%ADD30R,.85X.3*%
%ADD28R,1.3X1.3*%
%ADD35C,.3*%
%ADD36C,.4*%
%ADD37C,.15*%
%ADD38C,.25*%
G75*
%LPD*%
G75*
G36*
G01X-0002093300Y0001175000D02*
X-0001970000Y0001175000D01*
X-0001955000Y0001160000D01*
X-0001955000Y0000895000D01*
X-0001975000Y0000875000D01*
X-0002037720Y0000875000D01*
G03X-0002038910Y0000875020I-0000001267J-0000039999D01*
G03X-0002040100Y0000875000I0000000077J-0000040019D01*
G01X-0002083610Y0000875000D01*
G02X-0002093580Y0000887110I0J0000010159D01*
G03X-0002093300Y0000890000I-0000014740J0000002887D01*
G01X-0002093300Y0001020000D01*
G03X-0002096260Y0001028950I-0000015011J0D01*
G02X-0002096260Y0001041050I0000008164J0000006050D01*
G03X-0002093300Y0001050000I-0000012051J0000008950D01*
G01X-0002093300Y0001175000D01*
G37*
G54D10*
X-0004165000Y0000105000D03*
X-0004165000Y0000198980D03*
X-0004165000Y0000292960D03*
X-0003916080Y0000105000D03*
X-0003916080Y0000292960D03*
X-0002988920Y0000107040D03*
X-0002988920Y0000295000D03*
X-0002740000Y0000107040D03*
X-0002740000Y0000295000D03*
X-0002740000Y0000201020D03*
G54D11*
X-0004200000Y0000500000D03*
X-0004200000Y0001300000D03*
G54D20*
X-0003640000Y0000490000D03*
X-0003500000Y0000490000D03*
X-0001950000Y0001360000D03*
X-0001810000Y0001360000D03*
X-0001375000Y0000245000D03*
X-0001235000Y0000245000D03*
X-0000705000Y0000850000D03*
X-0000705000Y0000710000D03*
X-0000685000Y0000570000D03*
X-0000320000Y0000330000D03*
X-0000565000Y0000850000D03*
X-0000565000Y0000710000D03*
X-0000545000Y0000570000D03*
X-0000180000Y0000330000D03*
G54D30*
X-0001650000Y0000850000D03*
X-0001650000Y0000800000D03*
X-0001650000Y0000750000D03*
X-0001650000Y0000700000D03*
X-0001650000Y0000650000D03*
X-0001650000Y0000600000D03*
X-0001650000Y0001150000D03*
X-0001650000Y0001100000D03*
X-0001650000Y0001050000D03*
X-0001650000Y0001000000D03*
X-0001650000Y0000950000D03*
X-0001650000Y0000900000D03*
X-0000960000Y0000600000D03*
X-0000960000Y0000650000D03*
X-0000960000Y0000700000D03*
X-0000960000Y0000750000D03*
X-0000960000Y0000800000D03*
X-0000960000Y0000850000D03*
X-0000960000Y0000900000D03*
X-0000960000Y0000950000D03*
X-0000960000Y0001000000D03*
X-0000960000Y0001050000D03*
X-0000960000Y0001100000D03*
X-0000960000Y0001150000D03*
G54D21*
X-0003415000Y0000760000D03*
G54D12*
G01X-0004030000Y0000348350D02*
X-0004030000Y0000145000D01*
X-0004070000Y0000105000D01*
X-0004165000Y0000105000D01*
G01X-0004165000Y0000198980D02*
X-0004196500Y0000198980D01*
X-0004220000Y0000222480D01*
X-0004236180Y0000222480D01*
X-0004236200Y0000222500D01*
X-0004254610Y0000222500D01*
G01X-0004165000Y0000292960D02*
X-0004085390Y0000292960D01*
X-0004030000Y0000348350D01*
G01X-0003916080Y0000105000D02*
X-0003790000Y0000105000D01*
G01X-0003790000Y0000105000D02*
X-0003645000Y0000105000D01*
X-0003640000Y0000110000D01*
X-0003585000Y0000110000D01*
G01X-0003790000Y0000195000D02*
X-0003855000Y0000195000D01*
G01X-0003790000Y0000195000D02*
X-0003790000Y0000295000D01*
G01X-0003810000Y0001065000D02*
X-0003810000Y0001210000D01*
X-0003745000Y0001275000D01*
X-0003635000Y0001275000D01*
G01X-0003585000Y0000110000D02*
X-0003355000Y0000110000D01*
G01X-0003355000Y0000110000D02*
X-0003330000Y0000110000D01*
G01X-0003385000Y0000410000D02*
X-0003385000Y0000505000D01*
X-0003380000Y0000510000D01*
G01X-0003355000Y0000300000D02*
X-0003430000Y0000300000D01*
X-0003460000Y0000330000D01*
X-0003490000Y0000330000D01*
G01X-0003290000Y0001620000D02*
X-0003315000Y0001620000D01*
X-0003370000Y0001675000D01*
X-0003620000Y0001675000D01*
X-0003640000Y0001655000D01*
G01X-0003295000Y0000410000D02*
X-0003247320Y0000362320D01*
X-0003247320Y0000192680D01*
X-0003330000Y0000110000D01*
G01X-0003330000Y0000110000D02*
X-0003071490Y0000110000D01*
X-0003068530Y0000107040D01*
X-0002988920Y0000107040D01*
G01X-0003135000Y0000205000D02*
X-0003040000Y0000205000D01*
X-0003035000Y0000200000D01*
G01X-0003185000Y0001415000D02*
X-0003120000Y0001415000D01*
G01X-0003290000Y0001620000D02*
X-0003290000Y0001562790D01*
X-0003275000Y0001547790D01*
X-0003275000Y0001546930D01*
X-0003265000Y0001536930D01*
X-0003265000Y0001470000D01*
X-0003275000Y0001460000D01*
X-0003275000Y0001415000D01*
G01X-0002740000Y0000107040D02*
X-0002547040Y0000107040D01*
X-0002545000Y0000105000D01*
X-0002500000Y0000105000D01*
G01X-0002988920Y0000107040D02*
X-0002964790Y0000107040D01*
X-0002916630Y0000155200D01*
X-0002916630Y0000197980D01*
X-0002819610Y0000295000D01*
X-0002740000Y0000295000D01*
G01X-0002740000Y0000201020D02*
X-0002650390Y0000201020D01*
G01X-0002740000Y0000295000D02*
X-0002670000Y0000295000D01*
X-0002640000Y0000325000D01*
X-0002595000Y0000325000D01*
G01X-0002500000Y0000105000D02*
X-0002295000Y0000105000D01*
G01X-0002328980Y0000570000D02*
X-0002328980Y0000481020D01*
G01X-0002235000Y0000570000D02*
X-0002235000Y0000385000D01*
X-0002295000Y0000325000D01*
X-0002405000Y0000325000D01*
G01X-0002405000Y0000325000D02*
X-0002405000Y0000300000D01*
X-0002495000Y0000210000D01*
G01X-0002495000Y0000870000D02*
X-0002493440Y0000871560D01*
X-0002493440Y0000890100D01*
X-0002475000Y0000908540D01*
X-0002475000Y0000950000D01*
G01X-0002386680Y0000955000D02*
X-0002470000Y0000955000D01*
X-0002475000Y0000950000D01*
G01X-0002450000Y0001115000D02*
X-0002485000Y0001080000D01*
G01X-0002450000Y0001115000D02*
X-0002485000Y0001115000D01*
X-0002525000Y0001155000D01*
G01X-0002386680Y0001115000D02*
X-0002450000Y0001115000D01*
G01X-0002386680Y0000955000D02*
X-0002386680Y0001115000D01*
G01X-0002295000Y0000105000D02*
X-0001660000Y0000105000D01*
X-0001655000Y0000110000D01*
G01X-0002173320Y0000955000D02*
X-0002173320Y0000880600D01*
X-0002235000Y0000818920D01*
G01X-0002235000Y0000570000D02*
X-0002100000Y0000570000D01*
G01X-0002173320Y0000955000D02*
X-0002173320Y0001115000D01*
G01X-0002060000Y0000940000D02*
X-0002075000Y0000955000D01*
G01X-0002060000Y0001120000D02*
X-0002065000Y0001115000D01*
G01X-0002075000Y0000955000D02*
X-0002173320Y0000955000D01*
G01X-0002065000Y0001115000D02*
X-0002173320Y0001115000D01*
G01X-0001950000Y0001360000D02*
X-0001950000Y0001365000D01*
X-0001890000Y0001425000D01*
G01X-0001810000Y0001360000D02*
X-0001810000Y0001340000D01*
X-0001762320Y0001292320D01*
X-0001749870Y0001292320D01*
X-0001699780Y0001242230D01*
G01X-0000350000Y0000811680D02*
X-0000456680Y0000811680D01*
X-0000495000Y0000850000D01*
G01X-0000350000Y0000598320D02*
X-0000446680Y0000598320D01*
X-0000475000Y0000570000D01*
X-0004254610Y0000222500D03*
X-0004287500Y0001467500D03*
X-0004162500Y0001467500D03*
X-0004287500Y0001682500D03*
X-0003855000Y0000195000D03*
X-0004030000Y0000348350D03*
X-0003800000Y0000965000D03*
X-0003740000Y0000965000D03*
X-0004037500Y0001467500D03*
X-0003795000Y0001532500D03*
X-0003810000Y0001750000D03*
X-0003821290Y0001608060D03*
X-0003655000Y0000620000D03*
X-0003632500Y0001023080D03*
X-0003664270Y0001111280D03*
X-0003650000Y0001190000D03*
X-0003635000Y0001275000D03*
X-0003645000Y0001390000D03*
X-0003355000Y0001350000D03*
X-0003640000Y0001655000D03*
X-0003095000Y0000300000D03*
X-0003035000Y0000200000D03*
X-0003297500Y0000545000D03*
X-0003084800Y0000847440D03*
X-0003300000Y0000764940D03*
X-0003292500Y0000685000D03*
X-0003067500Y0000617500D03*
X-0003245000Y0000990000D03*
X-0003330000Y0001510000D03*
X-0003120000Y0001415000D03*
X-0003037340Y0001450190D03*
X-0003335000Y0001230000D03*
X-0002937500Y0000617500D03*
X-0002880000Y0001115000D03*
X-0003010000Y0001375000D03*
X-0002795000Y0001622500D03*
X-0002328980Y0000481020D03*
X-0002650390Y0000201020D03*
X-0002595000Y0000520000D03*
X-0002495000Y0000210000D03*
X-0002495000Y0000870000D03*
X-0002475000Y0000950000D03*
X-0002525000Y0001155000D03*
X-0002485000Y0001080000D03*
X-0002353490Y0001750520D03*
X-0002220000Y0000195000D03*
X-0002027090Y0000440000D03*
X-0002115000Y0000787500D03*
X-0002038910Y0000835000D03*
X-0002030000Y0000535000D03*
X-0002060000Y0001120000D03*
X-0002060000Y0000940000D03*
X-0002060000Y0001000000D03*
X-0002060000Y0001060000D03*
X-0002322500Y0001377500D03*
X-0002157890Y0001457890D03*
X-0002194220Y0001379120D03*
X-0002275000Y0001735000D03*
X-0002125000Y0001610000D03*
X-0002260000Y0001575000D03*
X-0001745000Y0000305000D03*
X-0001750000Y0000440000D03*
X-0001684460Y0000394120D03*
X-0001650000Y0000540000D03*
X-0001750000Y0000700000D03*
X-0001750000Y0000880000D03*
X-0001744300Y0000959800D03*
X-0001890000Y0001425000D03*
X-0001699780Y0001242230D03*
X-0001314980Y0000177000D03*
X-0001446000Y0000185000D03*
X-0001561110Y0000184600D03*
X-0001613910Y0000441090D03*
X-0001601100Y0000253900D03*
X-0001335150Y0000437650D03*
X-0001414600Y0000422500D03*
X-0001545000Y0000635000D03*
X-0001540000Y0001110000D03*
X-0001375770Y0001309490D03*
X-0001555000Y0001545000D03*
X-0001634610Y0001552970D03*
X-0001535000Y0001685000D03*
X-0001182500Y0000417500D03*
X-0001028660Y0000417500D03*
X-0001075000Y0000645000D03*
X-0001075000Y0001105000D03*
X-0001105000Y0001525000D03*
X-0001115000Y0001439500D03*
X-0000993070Y0001318070D03*
X-0000714000Y0000330000D03*
X-0000873590Y0000798590D03*
X-0000791370Y0000667780D03*
X-0000795000Y0000570000D03*
X-0000786470Y0000747640D03*
X-0000873270Y0000955000D03*
X-0000826470Y0001019890D03*
X-0000770000Y0001370000D03*
X-0000781150Y0001290780D03*
X-0000545000Y0000385000D03*
X-0000495000Y0000850000D03*
X-0000490000Y0000710000D03*
X-0000475000Y0000570000D03*
X-0000305000Y0001005000D03*
X-0000380000Y0001175000D03*
X-0000540000Y0001525000D03*
X-0000534650Y0001390000D03*
X-0000380000Y0001590000D03*
X-0000295000Y0001750000D03*
X-0000065000Y0000230000D03*
X-0000242990Y0000427500D03*
X-0000247500Y0001112500D03*
X-0000243590Y0001283910D03*
G54D13*
X-0004200000Y0000780000D03*
X-0004200000Y0001020000D03*
G54D22*
X-0003585000Y0000760000D03*
X-0003585000Y0000960000D03*
X-0003395000Y0000960000D03*
G54D31*
X-0001730000Y0001585000D03*
X-0001015000Y0001540000D03*
X-0000855000Y0001485000D03*
G54D32*
X-0001580000Y0000530000D03*
X-0001530000Y0000530000D03*
X-0001480000Y0000530000D03*
X-0001430000Y0000530000D03*
X-0001380000Y0000530000D03*
X-0001330000Y0000530000D03*
X-0001330000Y0001220000D03*
X-0001380000Y0001220000D03*
X-0001430000Y0001220000D03*
X-0001480000Y0001220000D03*
X-0001530000Y0001220000D03*
X-0001580000Y0001220000D03*
X-0001280000Y0000530000D03*
X-0001230000Y0000530000D03*
X-0001180000Y0000530000D03*
X-0001130000Y0000530000D03*
X-0001080000Y0000530000D03*
X-0001030000Y0000530000D03*
X-0001030000Y0001220000D03*
X-0001080000Y0001220000D03*
X-0001130000Y0001220000D03*
X-0001180000Y0001220000D03*
X-0001230000Y0001220000D03*
X-0001280000Y0001220000D03*
G54D14*
X-0004287500Y0001467500D03*
X-0004162500Y0001467500D03*
X-0004037500Y0001467500D03*
X-0004037500Y0001682500D03*
X-0004162500Y0001682500D03*
X-0004287500Y0001682500D03*
X-0003912500Y0001467500D03*
X-0003912500Y0001682500D03*
G54D23*
X-0003450000Y0001440000D03*
X-0003450000Y0001580000D03*
X-0001330000Y0001525000D03*
X-0001330000Y0001385000D03*
X-0001470000Y0001525000D03*
X-0001470000Y0001385000D03*
X-0001190000Y0001525000D03*
X-0001190000Y0001385000D03*
G54D33*
X-0001305000Y0000875000D03*
G54D15*
X-0003790000Y0000195000D03*
X-0003790000Y0000105000D03*
X-0003790000Y0000295000D03*
X-0003790000Y0000385000D03*
X-0003690000Y0001550000D03*
X-0003690000Y0001460000D03*
X-0003380000Y0000510000D03*
X-0003385000Y0000410000D03*
X-0003380000Y0000600000D03*
X-0003580000Y0001550000D03*
X-0003580000Y0001460000D03*
X-0003405000Y0001230000D03*
X-0003495000Y0001230000D03*
X-0003080000Y0000400000D03*
X-0003295000Y0000410000D03*
X-0003080000Y0000525000D03*
X-0003170000Y0000525000D03*
X-0003185000Y0001415000D03*
X-0003275000Y0001415000D03*
X-0002990000Y0000400000D03*
X-0002830000Y0000435000D03*
X-0002740000Y0000435000D03*
X-0002740000Y0000535000D03*
X-0002830000Y0000535000D03*
X-0002785000Y0000730000D03*
X-0002785000Y0000640000D03*
X-0002895000Y0001550000D03*
X-0002895000Y0001450000D03*
X-0002895000Y0001360000D03*
X-0002895000Y0001640000D03*
X-0002655000Y0001715000D03*
X-0002565000Y0001715000D03*
X-0002295000Y0000195000D03*
X-0002295000Y0000105000D03*
X-0002030000Y0000250000D03*
X-0002135000Y0000250000D03*
X-0002135000Y0000340000D03*
X-0002100000Y0000660000D03*
X-0002100000Y0000570000D03*
X-0001840000Y0000340000D03*
X-0001840000Y0000250000D03*
X-0001940000Y0000250000D03*
X-0001590000Y0001385000D03*
X-0001590000Y0001475000D03*
X-0000605000Y0001425000D03*
X-0000695000Y0001425000D03*
X-0000695000Y0001525000D03*
X-0000605000Y0001525000D03*
X-0000465000Y0001005000D03*
X-0000375000Y0001005000D03*
X-0000470000Y0001260000D03*
X-0000380000Y0001260000D03*
X-0000380000Y0001425000D03*
X-0000470000Y0001425000D03*
X-0000470000Y0001525000D03*
X-0000380000Y0001525000D03*
X-0000280000Y0001425000D03*
X-0000280000Y0001525000D03*
X-0000190000Y0001425000D03*
X-0000190000Y0001525000D03*
G54D24*
X-0003132500Y0000730000D03*
X-0003067500Y0000730000D03*
X-0003067500Y0001070000D03*
X-0003132500Y0001070000D03*
X-0003002500Y0000730000D03*
X-0002937500Y0000730000D03*
X-0002937500Y0001070000D03*
X-0003002500Y0001070000D03*
G54D34*
X-0000645000Y0001005000D03*
X-0000645000Y0001255000D03*
G54D16*
X-0003945000Y0000590000D03*
X-0003945000Y0001210000D03*
G54D25*
X-0002670000Y0000980000D03*
G54D35*
G01X-0003790000Y0000460000D02*
X-0003790000Y0000705000D01*
X-0003855000Y0000770000D01*
X-0003932500Y0000770000D01*
G01X-0003790000Y0000460000D02*
X-0003790000Y0000385000D01*
G01X-0003640000Y0000490000D02*
X-0003760000Y0000490000D01*
X-0003790000Y0000460000D01*
G01X-0003355000Y0001350000D02*
X-0003395000Y0001350000D01*
X-0003410000Y0001335000D01*
X-0003720000Y0001335000D01*
X-0003745000Y0001360000D01*
X-0003915000Y0001360000D01*
X-0003945000Y0001330000D01*
X-0003945000Y0001210000D01*
G01X-0003380000Y0000510000D02*
X-0003332500Y0000510000D01*
X-0003297500Y0000545000D01*
G01X-0003490000Y0000330000D02*
X-0003490000Y0000415000D01*
X-0003500000Y0000425000D01*
X-0003500000Y0000490000D01*
G01X-0003500000Y0000490000D02*
X-0003500000Y0000555000D01*
X-0003455000Y0000600000D01*
X-0003380000Y0000600000D01*
G01X-0003292500Y0000685000D02*
X-0003465000Y0000685000D01*
X-0003640000Y0000510000D01*
X-0003640000Y0000490000D01*
G01X-0003415000Y0000760000D02*
X-0003344940Y0000760000D01*
X-0003340000Y0000764940D01*
X-0003300000Y0000764940D01*
G01X-0003395000Y0000960000D02*
X-0003275000Y0000960000D01*
X-0003245000Y0000990000D01*
G01X-0003650000Y0001190000D02*
X-0003580000Y0001190000D01*
X-0003540000Y0001230000D01*
X-0003495000Y0001230000D01*
G01X-0003450000Y0001580000D02*
X-0003525000Y0001580000D01*
X-0003555000Y0001550000D01*
X-0003580000Y0001550000D01*
G01X-0003405000Y0001230000D02*
X-0003335000Y0001230000D01*
G01X-0003690000Y0001460000D02*
X-0003690000Y0001435000D01*
X-0003645000Y0001390000D01*
G01X-0003580000Y0001460000D02*
X-0003535000Y0001460000D01*
X-0003515000Y0001440000D01*
X-0003450000Y0001440000D01*
G01X-0003355000Y0001350000D02*
X-0003383290Y0001378290D01*
X-0003383290Y0001393290D01*
X-0003430000Y0001440000D01*
X-0003450000Y0001440000D01*
G01X-0003690000Y0001550000D02*
X-0003580000Y0001550000D01*
G01X-0003450000Y0001580000D02*
X-0003385000Y0001580000D01*
X-0003330000Y0001525000D01*
X-0003330000Y0001510000D01*
G01X-0003080000Y0000400000D02*
X-0003080000Y0000315000D01*
X-0003095000Y0000300000D01*
G01X-0003037340Y0001450190D02*
X-0003037340Y0001492340D01*
X-0003070000Y0001525000D01*
G01X-0002988920Y0000295000D02*
X-0002988920Y0000353920D01*
X-0002990000Y0000355000D01*
X-0002990000Y0000400000D01*
G01X-0002740000Y0000435000D02*
X-0002740000Y0000295000D01*
G01X-0002830000Y0000435000D02*
X-0002830000Y0000535000D01*
G01X-0002328980Y0000481020D02*
X-0002431020Y0000481020D01*
X-0002435390Y0000485390D01*
X-0002465870Y0000485390D01*
X-0002483440Y0000502960D01*
X-0002483440Y0000533440D01*
X-0002550000Y0000600000D01*
X-0002675000Y0000600000D01*
X-0002740000Y0000535000D01*
G01X-0002830000Y0000535000D02*
X-0002830000Y0000610000D01*
X-0002800000Y0000640000D01*
X-0002785000Y0000640000D01*
G01X-0002785000Y0000640000D02*
X-0002740000Y0000640000D01*
X-0002725000Y0000655000D01*
X-0002507960Y0000655000D01*
X-0002488180Y0000635220D01*
X-0002464050Y0000635220D01*
X-0002422960Y0000594130D01*
X-0002422960Y0000570000D01*
G01X-0003010000Y0001375000D02*
X-0002955000Y0001375000D01*
X-0002940000Y0001360000D01*
X-0002895000Y0001360000D01*
G01X-0003010000Y0001375000D02*
X-0002975000Y0001410000D01*
X-0002975000Y0001620000D01*
X-0002955000Y0001640000D01*
X-0002895000Y0001640000D01*
G01X-0002750000Y0001442500D02*
X-0002842500Y0001442500D01*
X-0002850000Y0001450000D01*
X-0002895000Y0001450000D01*
G01X-0002750000Y0001507500D02*
X-0002837500Y0001507500D01*
X-0002880000Y0001550000D01*
X-0002895000Y0001550000D01*
G01X-0002100000Y0000660000D02*
X-0002305000Y0000660000D01*
X-0002335000Y0000630000D01*
X-0002335000Y0000576020D01*
X-0002328980Y0000570000D01*
G01X-0002295000Y0000195000D02*
X-0002220000Y0000195000D01*
G01X-0001950000Y0001360000D02*
X-0001950000Y0001295000D01*
X-0001920000Y0001265000D01*
X-0001850000Y0001265000D01*
X-0001735000Y0001150000D01*
X-0001735000Y0001127500D01*
X-0001707500Y0001100000D01*
X-0001650000Y0001100000D01*
G01X-0001699780Y0001242230D02*
X-0001650000Y0001192450D01*
X-0001650000Y0001150000D01*
G01X-0001375000Y0000245000D02*
X-0001375000Y0000310000D01*
X-0001280000Y0000405000D01*
X-0001280000Y0000530000D01*
G01X-0000960000Y0000950000D02*
X-0001230000Y0000950000D01*
X-0001305000Y0000875000D01*
G01X-0001280000Y0000530000D02*
X-0001280000Y0000850000D01*
X-0001305000Y0000875000D01*
G01X-0001540000Y0001110000D02*
X-0001590000Y0001110000D01*
X-0001600000Y0001100000D01*
X-0001650000Y0001100000D01*
G01X-0001330000Y0001045000D02*
X-0001330000Y0001220000D01*
G01X-0001330000Y0001525000D02*
X-0001470000Y0001525000D01*
G01X-0001330000Y0001525000D02*
X-0001190000Y0001525000D01*
G01X-0001375770Y0001309490D02*
X-0001366280Y0001300000D01*
X-0001353640Y0001300000D01*
X-0001330000Y0001276360D01*
X-0001330000Y0001220000D01*
G01X-0001555000Y0001545000D02*
X-0001543720Y0001556280D01*
X-0001501280Y0001556280D01*
X-0001470000Y0001525000D01*
G01X-0001590000Y0001475000D02*
X-0001590000Y0001502210D01*
X-0001610000Y0001522210D01*
X-0001610000Y0001528360D01*
X-0001634610Y0001552970D01*
G01X-0001280000Y0001220000D02*
X-0001280000Y0001290000D01*
X-0001330000Y0001340000D01*
X-0001330000Y0001385000D01*
G01X-0001430000Y0001220000D02*
X-0001430000Y0001295000D01*
X-0001470000Y0001335000D01*
X-0001470000Y0001385000D01*
G01X-0001590000Y0001385000D02*
X-0001470000Y0001385000D01*
G01X-0001235000Y0000245000D02*
X-0001235000Y0000365000D01*
X-0001230000Y0000370000D01*
G01X-0001230000Y0000370000D02*
X-0001230000Y0000530000D01*
G01X-0001230000Y0000370000D02*
X-0001182500Y0000417500D01*
G01X-0001190000Y0001525000D02*
X-0001105000Y0001525000D01*
G01X-0001230000Y0001220000D02*
X-0001230000Y0001300000D01*
X-0001190000Y0001340000D01*
X-0001190000Y0001385000D01*
G01X-0001190000Y0001385000D02*
X-0001145000Y0001385000D01*
X-0001115000Y0001415000D01*
X-0001115000Y0001439500D01*
G01X-0000705000Y0000710000D02*
X-0000705000Y0000850000D01*
G01X-0000685000Y0000570000D02*
X-0000685000Y0000690000D01*
X-0000705000Y0000710000D01*
G01X-0000960000Y0000900000D02*
X-0000800000Y0000900000D01*
X-0000750000Y0000850000D01*
X-0000705000Y0000850000D01*
G01X-0000960000Y0000950000D02*
X-0000878270Y0000950000D01*
X-0000873270Y0000955000D01*
G01X-0000565000Y0000850000D02*
X-0000495000Y0000850000D01*
G01X-0000565000Y0000710000D02*
X-0000490000Y0000710000D01*
G01X-0000545000Y0000570000D02*
X-0000475000Y0000570000D01*
G01X-0000375000Y0001005000D02*
X-0000305000Y0001005000D01*
G01X-0000380000Y0001260000D02*
X-0000380000Y0001175000D01*
G01X-0000180000Y0000330000D02*
X-0000110000Y0000330000D01*
X-0000065000Y0000285000D01*
X-0000065000Y0000230000D01*
G54D26*
X-0002750000Y0001507500D03*
X-0002750000Y0001442500D03*
X-0002750000Y0001377500D03*
X-0002750000Y0001572500D03*
X-0002410000Y0001377500D03*
X-0002410000Y0001442500D03*
X-0002410000Y0001507500D03*
X-0002410000Y0001572500D03*
G54D17*
X-0003932500Y0000770000D03*
X-0003932500Y0000835000D03*
X-0003932500Y0001030000D03*
X-0003932500Y0000965000D03*
X-0003932500Y0000900000D03*
G54D36*
G01X-0003932500Y0001030000D02*
X-0003845000Y0001030000D01*
X-0003810000Y0001065000D01*
G54D27*
X-0002328980Y0000570000D03*
X-0002422960Y0000570000D03*
X-0002422960Y0000818920D03*
X-0002235000Y0000570000D03*
X-0002235000Y0000818920D03*
G54D18*
X-0003355000Y0000110000D03*
X-0003355000Y0000300000D03*
X-0003135000Y0000205000D03*
X-0003070000Y0001525000D03*
X-0003070000Y0001715000D03*
X-0003290000Y0001620000D03*
G54D37*
G01X-0004162500Y0001682500D02*
X-0004037500Y0001682500D01*
G01X-0003585000Y0000790000D02*
X-0003630000Y0000835000D01*
X-0003932500Y0000835000D01*
G01X-0003585000Y0000960000D02*
X-0003585000Y0000932570D01*
X-0003617570Y0000900000D01*
X-0003932500Y0000900000D01*
G01X-0003795000Y0001532500D02*
X-0003795000Y0001567170D01*
X-0003773790Y0001588380D01*
X-0003773790Y0001646210D01*
X-0003650000Y0001770000D01*
X-0002405470Y0001770000D01*
X-0002385990Y0001750520D01*
X-0002353490Y0001750520D01*
G01X-0003821290Y0001608060D02*
X-0003844280Y0001585070D01*
X-0003844280Y0001480720D01*
X-0003857500Y0001467500D01*
X-0003912500Y0001467500D01*
G01X-0003810000Y0001750000D02*
X-0003842500Y0001750000D01*
X-0003857500Y0001765000D01*
X-0004022500Y0001765000D01*
X-0004037500Y0001750000D01*
X-0004037500Y0001682500D01*
G01X-0003585000Y0000760000D02*
X-0003585000Y0000790000D01*
G01X-0003585000Y0000790000D02*
X-0003585000Y0000817990D01*
X-0003535000Y0000867990D01*
X-0003535000Y0000997560D01*
X-0003502560Y0001030000D01*
X-0003310010Y0001030000D01*
X-0003130010Y0001210000D01*
X-0001967430Y0001210000D01*
X-0001767430Y0001010000D01*
X-0001715000Y0001010000D01*
X-0001705000Y0001000000D01*
X-0001650000Y0001000000D01*
G01X-0003655000Y0000620000D02*
X-0003632010Y0000642990D01*
X-0003587010Y0000642990D01*
X-0003510000Y0000720000D01*
X-0003510000Y0000775490D01*
X-0003425000Y0000860490D01*
X-0003294510Y0000860490D01*
G01X-0003585000Y0000960000D02*
X-0003585000Y0000989990D01*
X-0003514990Y0001060000D01*
X-0003322440Y0001060000D01*
X-0003142440Y0001240000D01*
X-0001955000Y0001240000D01*
X-0001755000Y0001040000D01*
X-0001715000Y0001040000D01*
X-0001705000Y0001050000D01*
X-0001650000Y0001050000D01*
G01X-0003632500Y0001023080D02*
X-0003632500Y0001067500D01*
X-0003595730Y0001104270D01*
X-0003338300Y0001104270D01*
X-0003332570Y0001110000D01*
X-0003330010Y0001110000D01*
X-0003165010Y0001275000D01*
X-0002122580Y0001275000D01*
X-0002107580Y0001290000D01*
X-0002067890Y0001290000D01*
X-0002010000Y0001347890D01*
X-0002010000Y0001447500D01*
X-0001977500Y0001480000D01*
X-0001812400Y0001480000D01*
X-0001784900Y0001452500D01*
X-0001750000Y0001452500D01*
X-0001732500Y0001435000D01*
X-0001732500Y0001362710D01*
X-0001702500Y0001332710D01*
X-0001702500Y0001320820D01*
X-0001654180Y0001272500D01*
X-0001605000Y0001272500D01*
X-0001580000Y0001247500D01*
X-0001580000Y0001220000D01*
G01X-0001530000Y0001220000D02*
X-0001530000Y0001277570D01*
X-0001554930Y0001302500D01*
X-0001641750Y0001302500D01*
X-0001672500Y0001333250D01*
X-0001672500Y0001345140D01*
X-0001702500Y0001375140D01*
X-0001702500Y0001462570D01*
X-0001722430Y0001482500D01*
X-0001772470Y0001482500D01*
X-0001799970Y0001510000D01*
X-0002007500Y0001510000D01*
X-0002052500Y0001465000D01*
X-0002052500Y0001347820D01*
X-0002080320Y0001320000D01*
X-0002120010Y0001320000D01*
X-0002135010Y0001305000D01*
X-0003180000Y0001305000D01*
X-0003350730Y0001134270D01*
X-0003641280Y0001134270D01*
X-0003664270Y0001111280D01*
G01X-0003080000Y0000525000D02*
X-0003080000Y0000400000D01*
G01X-0003132500Y0000730000D02*
X-0003132500Y0000832240D01*
X-0003117300Y0000847440D01*
X-0003084800Y0000847440D01*
G01X-0003067500Y0000730000D02*
X-0003067500Y0000617500D01*
G01X-0003170000Y0000525000D02*
X-0003245000Y0000600000D01*
X-0003245000Y0000810980D01*
X-0003294510Y0000860490D01*
G01X-0002880000Y0001115000D02*
X-0002880000Y0001160000D01*
X-0002895000Y0001175000D01*
X-0003112500Y0001175000D01*
X-0003132500Y0001155000D01*
X-0003132500Y0001070000D01*
G01X-0003294510Y0000860490D02*
X-0003225000Y0000930000D01*
X-0003095000Y0000930000D01*
X-0003067500Y0000957500D01*
X-0003067500Y0001070000D01*
G01X-0003290000Y0001620000D02*
X-0003065750Y0001620000D01*
X-0002980750Y0001705000D01*
X-0002845000Y0001705000D01*
X-0002795000Y0001655000D01*
X-0002795000Y0001622500D01*
G01X-0002655000Y0001715000D02*
X-0002692500Y0001715000D01*
X-0002717500Y0001740000D01*
X-0002990000Y0001740000D01*
X-0003015000Y0001715000D01*
X-0003070000Y0001715000D01*
G01X-0002937500Y0000730000D02*
X-0002937500Y0000617500D01*
G01X-0003002500Y0000730000D02*
X-0003002500Y0000667500D01*
X-0002982190Y0000647190D01*
X-0002967190Y0000647190D01*
X-0002937500Y0000617500D01*
G01X-0002937500Y0000730000D02*
X-0002937500Y0001070000D01*
G01X-0001750000Y0000440000D02*
X-0001755000Y0000440000D01*
X-0001770000Y0000455000D01*
X-0001770000Y0000475000D01*
X-0002035000Y0000740000D01*
X-0002170000Y0000740000D01*
X-0002205000Y0000705000D01*
X-0002722500Y0000705000D01*
X-0002747500Y0000730000D01*
X-0002785000Y0000730000D01*
G01X-0002785000Y0001377500D02*
X-0002750000Y0001377500D01*
G01X-0002410000Y0001572500D02*
X-0002512500Y0001572500D01*
X-0002600000Y0001485000D01*
X-0002600000Y0001415000D01*
X-0002637500Y0001377500D01*
X-0002750000Y0001377500D01*
G01X-0002795000Y0001622500D02*
X-0002762500Y0001622500D01*
X-0002750000Y0001610000D01*
X-0002750000Y0001572500D01*
G01X-0002595000Y0000325000D02*
X-0002595000Y0000520000D01*
G01X-0002410000Y0001377500D02*
X-0002322500Y0001377500D01*
G01X-0002445000Y0001377500D02*
X-0002410000Y0001377500D01*
G01X-0002445000Y0001507500D02*
X-0002410000Y0001507500D01*
G01X-0002410000Y0001507500D02*
X-0002175000Y0001507500D01*
X-0002157890Y0001490390D01*
X-0002157890Y0001457890D01*
G01X-0002445000Y0001442500D02*
X-0002410000Y0001442500D01*
G01X-0002194220Y0001379120D02*
X-0002202500Y0001387400D01*
X-0002202500Y0001387500D01*
X-0002204790Y0001389790D01*
X-0002204790Y0001399790D01*
X-0002247500Y0001442500D01*
X-0002410000Y0001442500D01*
G01X-0000545000Y0000385000D02*
X-0000425000Y0000505000D01*
X-0000130000Y0000505000D01*
X-0000090000Y0000545000D01*
X-0000090000Y0001392570D01*
X-0000087500Y0001395070D01*
X-0000087500Y0001627500D01*
X-0000130000Y0001670000D01*
X-0000337570Y0001670000D01*
X-0000343180Y0001675610D01*
X-0001426820Y0001675610D01*
X-0001432430Y0001670000D01*
X-0001440000Y0001670000D01*
X-0001475000Y0001635000D01*
X-0001575000Y0001635000D01*
X-0001635000Y0001695000D01*
X-0002130000Y0001695000D01*
X-0002195000Y0001630000D01*
X-0002290000Y0001630000D01*
X-0002347500Y0001572500D01*
X-0002410000Y0001572500D01*
G01X-0002565000Y0001715000D02*
X-0002415000Y0001715000D01*
X-0002380000Y0001680000D01*
X-0002250010Y0001680000D01*
X-0002190010Y0001740000D01*
X-0001522820Y0001740000D01*
X-0001492820Y0001710000D01*
X-0000322180Y0001710000D01*
X-0000314680Y0001702500D01*
X-0000275320Y0001702500D01*
X-0000267820Y0001710000D01*
X-0000127570Y0001710000D01*
X-0000045000Y0001627430D01*
X-0000045000Y0000515000D01*
X-0000085000Y0000475000D01*
X-0000412570Y0000475000D01*
X-0000497500Y0000390070D01*
X-0000497500Y0000365320D01*
X-0000525320Y0000337500D01*
X-0000647500Y0000337500D01*
X-0000845000Y0000535000D01*
X-0000845000Y0000580000D01*
X-0000915000Y0000650000D01*
X-0000960000Y0000650000D01*
G01X-0002220000Y0000195000D02*
X-0002220000Y0000315000D01*
X-0002195000Y0000340000D01*
X-0002135000Y0000340000D01*
G01X-0001580000Y0000530000D02*
X-0001580000Y0000474360D01*
X-0001566410Y0000460770D01*
X-0001566410Y0000421410D01*
X-0001594230Y0000393590D01*
X-0001617810Y0000393590D01*
X-0001664780Y0000346620D01*
X-0001704140Y0000346620D01*
X-0001750020Y0000392500D01*
X-0001769680Y0000392500D01*
X-0001772180Y0000395000D01*
X-0001980000Y0000395000D01*
X-0002002010Y0000417010D01*
X-0002004100Y0000417010D01*
X-0002027090Y0000440000D01*
G01X-0002135000Y0000250000D02*
X-0002030000Y0000250000D01*
G01X-0002030000Y0000535000D02*
X-0002099390Y0000465610D01*
X-0002099390Y0000444390D01*
X-0002050000Y0000395000D01*
X-0002050000Y0000270000D01*
X-0002030000Y0000250000D01*
G01X-0002115000Y0000787500D02*
X-0001712500Y0000787500D01*
X-0001700000Y0000800000D01*
X-0001650000Y0000800000D01*
G01X-0001650000Y0000850000D02*
X-0001700000Y0000850000D01*
X-0001725000Y0000825000D01*
X-0001996410Y0000825000D01*
X-0002006410Y0000835000D01*
X-0002038910Y0000835000D01*
G01X-0002260000Y0001575000D02*
X-0002180000Y0001575000D01*
X-0002145000Y0001540000D01*
X-0001787540Y0001540000D01*
X-0001760040Y0001512500D01*
X-0001710000Y0001512500D01*
X-0001672500Y0001475000D01*
X-0001672500Y0001387570D01*
X-0001642500Y0001357570D01*
X-0001642500Y0001345680D01*
X-0001629320Y0001332500D01*
X-0001542500Y0001332500D01*
X-0001480000Y0001270000D01*
X-0001480000Y0001220000D01*
G01X-0000295000Y0001750000D02*
X-0001470000Y0001750000D01*
X-0001490000Y0001770000D01*
X-0002240000Y0001770000D01*
X-0002275000Y0001735000D01*
G01X-0002125000Y0001610000D02*
X-0002070000Y0001665000D01*
X-0001647430Y0001665000D01*
X-0001587430Y0001605000D01*
X-0001462570Y0001605000D01*
X-0001427570Y0001640000D01*
X-0001420000Y0001640000D01*
X-0001414390Y0001645610D01*
X-0000355610Y0001645610D01*
X-0000345000Y0001635000D01*
X-0000160000Y0001635000D01*
X-0000117500Y0001592500D01*
X-0000117500Y0001407500D01*
X-0000134390Y0001390610D01*
X-0000155610Y0001390610D01*
X-0000190000Y0001425000D01*
G01X-0001840000Y0000340000D02*
X-0001780000Y0000340000D01*
X-0001745000Y0000305000D01*
G01X-0001613910Y0000441090D02*
X-0001665320Y0000492500D01*
X-0001669680Y0000492500D01*
X-0001697500Y0000520320D01*
X-0001697500Y0000524680D01*
X-0001705000Y0000532180D01*
X-0001705000Y0000560000D01*
X-0001717500Y0000572500D01*
X-0001717500Y0000572970D01*
X-0001734890Y0000590360D01*
X-0001734890Y0000635000D01*
X-0001719890Y0000650000D01*
X-0001650000Y0000650000D01*
G01X-0001650000Y0000750000D02*
X-0001810000Y0000750000D01*
X-0001825000Y0000735000D01*
X-0001825000Y0000638040D01*
X-0001747500Y0000560540D01*
X-0001747500Y0000514680D01*
X-0001692500Y0000459680D01*
X-0001692500Y0000434660D01*
X-0001684460Y0000426620D01*
X-0001684460Y0000394120D01*
G01X-0001940000Y0000250000D02*
X-0001840000Y0000250000D01*
G01X-0001430000Y0000530000D02*
X-0001430000Y0000475000D01*
X-0001450000Y0000455000D01*
X-0001450000Y0000454280D01*
X-0001462100Y0000442180D01*
X-0001462100Y0000335000D01*
X-0001477100Y0000320000D01*
X-0001640000Y0000320000D01*
X-0001710000Y0000250000D01*
X-0001840000Y0000250000D01*
G01X-0001650000Y0000700000D02*
X-0001750000Y0000700000D01*
G01X-0001750000Y0000880000D02*
X-0001727010Y0000902990D01*
X-0001702990Y0000902990D01*
X-0001700000Y0000900000D01*
X-0001650000Y0000900000D01*
G01X-0001744300Y0000959800D02*
X-0001711800Y0000959800D01*
X-0001706510Y0000954510D01*
X-0001704510Y0000954510D01*
X-0001700000Y0000950000D01*
X-0001650000Y0000950000D01*
G01X-0001730000Y0001585000D02*
X-0001689340Y0001544340D01*
X-0001689340Y0001540520D01*
X-0001642500Y0001493680D01*
X-0001642500Y0001400000D01*
X-0001627500Y0001385000D01*
X-0001590000Y0001385000D01*
G01X-0001601100Y0000253900D02*
X-0001525080Y0000253900D01*
X-0001493500Y0000222320D01*
X-0001493500Y0000165320D01*
X-0001465680Y0000137500D01*
X-0001392490Y0000137500D01*
X-0001384490Y0000129500D01*
X-0000990000Y0000129500D01*
X-0000975000Y0000144500D01*
X-0000975000Y0000450000D01*
X-0000990000Y0000465000D01*
X-0001065000Y0000465000D01*
X-0001080000Y0000480000D01*
X-0001080000Y0000530000D01*
G01X-0001561110Y0000184600D02*
X-0001538120Y0000161610D01*
X-0001538120Y0000135730D01*
X-0001501890Y0000099500D01*
X-0000960500Y0000099500D01*
X-0000940000Y0000120000D01*
X-0000940000Y0000462500D01*
X-0001007500Y0000530000D01*
X-0001030000Y0000530000D01*
G01X-0001655000Y0000110000D02*
X-0001554820Y0000110000D01*
X-0001514320Y0000069500D01*
X-0000948070Y0000069500D01*
X-0000932570Y0000085000D01*
X-0000530000Y0000085000D01*
X-0000400000Y0000215000D01*
X-0000265000Y0000215000D01*
X-0000242990Y0000237010D01*
X-0000242990Y0000427500D01*
G01X-0001330000Y0000530000D02*
X-0001330000Y0000475300D01*
X-0001335150Y0000470150D01*
X-0001335150Y0000437650D01*
G01X-0001414600Y0000422500D02*
X-0001391610Y0000445490D01*
X-0001391610Y0000448370D01*
X-0001380000Y0000459980D01*
X-0001380000Y0000530000D01*
G01X-0001650000Y0000540000D02*
X-0001650000Y0000600000D01*
G01X-0001028660Y0000417500D02*
X-0001061160Y0000417500D01*
X-0001061770Y0000418110D01*
X-0001068110Y0000418110D01*
X-0001130000Y0000480000D01*
X-0001130000Y0000530000D01*
G01X-0001080000Y0001220000D02*
X-0001080000Y0001250000D01*
X-0001067500Y0001262500D01*
X-0001067500Y0001310820D01*
X-0000965820Y0001412500D01*
X-0000824960Y0001412500D01*
X-0000822460Y0001415000D01*
X-0000800000Y0001415000D01*
X-0000765000Y0001450000D01*
X-0000765000Y0001515000D01*
X-0000755000Y0001525000D01*
X-0000695000Y0001525000D01*
G01X-0000855000Y0001485000D02*
X-0000935750Y0001485000D01*
X-0001130000Y0001290750D01*
X-0001130000Y0001220000D01*
G01X-0001015000Y0001540000D02*
X-0001015000Y0001450000D01*
X-0001117500Y0001347500D01*
X-0001117500Y0001345680D01*
X-0001180000Y0001283180D01*
X-0001180000Y0001220000D01*
G01X-0000770000Y0001370000D02*
X-0000955000Y0001370000D01*
X-0000970080Y0001354920D01*
X-0000970080Y0001341060D01*
X-0000993070Y0001318070D01*
G01X-0000781150Y0001290780D02*
X-0000813650Y0001290780D01*
X-0000814120Y0001290310D01*
X-0000834290Y0001290310D01*
X-0000839600Y0001285000D01*
X-0000855000Y0001285000D01*
X-0000920000Y0001220000D01*
X-0001030000Y0001220000D01*
G01X-0000320000Y0000330000D02*
X-0000320000Y0000310000D01*
X-0000360000Y0000270000D01*
X-0000785000Y0000270000D01*
X-0000825000Y0000310000D01*
X-0000825000Y0000435000D01*
X-0000960000Y0000570000D01*
X-0000960000Y0000600000D01*
G01X-0000960000Y0000800000D02*
X-0000907500Y0000800000D01*
X-0000906090Y0000798590D01*
X-0000873590Y0000798590D01*
G01X-0000791370Y0000667780D02*
X-0000853590Y0000730000D01*
X-0000882430Y0000730000D01*
X-0000902430Y0000750000D01*
X-0000960000Y0000750000D01*
G01X-0000795000Y0000570000D02*
X-0000795000Y0000602500D01*
X-0000892500Y0000700000D01*
X-0000960000Y0000700000D01*
G01X-0000786470Y0000747640D02*
X-0000786470Y0000810000D01*
X-0000826470Y0000850000D01*
X-0000960000Y0000850000D01*
G01X-0000960000Y0001100000D02*
X-0000780000Y0001100000D01*
X-0000685000Y0001005000D01*
X-0000645000Y0001005000D01*
G01X-0000645000Y0001005000D02*
X-0000465000Y0001005000D01*
G01X-0000960000Y0001150000D02*
X-0000852500Y0001150000D01*
X-0000747500Y0001255000D01*
X-0000645000Y0001255000D01*
G01X-0000826470Y0001019890D02*
X-0000875560Y0001019890D01*
X-0000895450Y0001000000D01*
X-0000960000Y0001000000D01*
G01X-0000280000Y0001425000D02*
X-0000280000Y0001387500D01*
X-0000195000Y0001302500D01*
X-0000195000Y0001005000D01*
X-0000272500Y0000927500D01*
X-0000749320Y0000927500D01*
X-0000762500Y0000940680D01*
X-0000762500Y0001027500D01*
X-0000805000Y0001070000D01*
X-0000890000Y0001070000D01*
X-0000910000Y0001050000D01*
X-0000960000Y0001050000D01*
G01X-0000695000Y0001425000D02*
X-0000695000Y0001525000D01*
G01X-0000470000Y0001260000D02*
X-0000537500Y0001260000D01*
X-0000542500Y0001255000D01*
X-0000645000Y0001255000D01*
G01X-0000247500Y0001112500D02*
X-0000300000Y0001165000D01*
X-0000300000Y0001295000D01*
X-0000345000Y0001340000D01*
X-0000590000Y0001340000D01*
X-0000605000Y0001355000D01*
X-0000605000Y0001425000D01*
G01X-0000540000Y0001525000D02*
X-0000605000Y0001525000D01*
G01X-0000380000Y0001525000D02*
X-0000380000Y0001590000D01*
G01X-0000243590Y0001283910D02*
X-0000266580Y0001306900D01*
X-0000266580Y0001311580D01*
X-0000380000Y0001425000D01*
G01X-0000470000Y0001425000D02*
X-0000470000Y0001525000D01*
G01X-0000470000Y0001425000D02*
X-0000505000Y0001390000D01*
X-0000534650Y0001390000D01*
G01X-0000380000Y0001590000D02*
X-0000205000Y0001590000D01*
X-0000190000Y0001575000D01*
X-0000190000Y0001525000D01*
G01X-0000280000Y0001525000D02*
X-0000280000Y0001425000D01*
G54D28*
X-0002386680Y0001115000D03*
X-0002386680Y0000955000D03*
X-0002173320Y0001115000D03*
X-0002173320Y0000955000D03*
X-0000350000Y0000811680D03*
X-0000350000Y0000598320D03*
G54D19*
X-0003585000Y0000110000D03*
X-0003680000Y0000330000D03*
X-0003490000Y0000330000D03*
X-0002500000Y0000105000D03*
X-0002595000Y0000325000D03*
X-0002405000Y0000325000D03*
G54D38*
G01X-0002173320Y0000955000D02*
X-0002088220Y0001040100D01*
G01X-0002173320Y0000955000D02*
X-0002088220Y0000997550D01*
G01X-0002173320Y0001115000D02*
X-0002088220Y0001029900D01*
G01X-0002173320Y0001115000D02*
X-0002088220Y0001157550D01*
G54D29*
X-0001655000Y0000110000D03*
X-0000365000Y0000110000D03*
M02*
