G04 ================== begin FILE IDENTIFICATION RECORD ==================*
G04 Layout Name:  transponderRC2_4-11.brd*
G04 Film Name:    Silkscreen_top*
G04 File Format:  Gerber RS274X*
G04 File Origin:  Cadence Allegro 17.2-S042*
G04 Origin Date:  Thu Jan 24 18:04:02 2019*
G04 *
G04 Layer:  PACKAGE GEOMETRY/SILKSCREEN_TOP*
G04 Layer:  BOARD GEOMETRY/SILKSCREEN_TOP*
G04 Layer:  REF DES/SILKSCREEN_TOP*
G04 *
G04 Offset:    (0.0000 0.0000)*
G04 Mirror:    No*
G04 Mode:      Positive*
G04 Rotation:  0*
G04 FullContactRelief:  No*
G04 UndefLineWidth:     0.1500*
G04 ================== end FILE IDENTIFICATION RECORD ====================*
%FSAX55Y55*MOMM*%
%IR0*IPPOS*OFA0.00000B0.00000*MIA0B0*SFA1.00000B1.00000*%
%ADD10C,.1*%
%ADD11C,.15*%
G75*
%LPD*%
G75*
G54D10*
G01X-0004265000Y0000100000D02*
X-0004345000Y0000100000D01*
X-0004345000Y0001700000D01*
X-0004265000Y0001700000D01*
G01X-0003845000Y0000280000D02*
X-0003845000Y0000100000D01*
X-0003985000Y0000100000D01*
G01X-0003845000Y0001530000D02*
X-0003845000Y0001700000D01*
X-0003985000Y0001700000D01*
G01X-0001770000Y0000100000D02*
X-0001830000Y0000100000D01*
G01X-0001800000Y0000130000D02*
X-0001800000Y0000065000D01*
G01X-0001715000Y0000185000D02*
X-0001715000Y0001685000D01*
X0000935000Y0001685000D01*
X0000935000Y0000185000D01*
X-0001715000Y0000185000D01*
G01X-0000325000Y0000030000D02*
X-0000395000Y0000030000D01*
G01X-0000005000Y0000010000D02*
X-0000265000Y0000010000D01*
X-0000265000Y0000150000D01*
X-0000005000Y0000150000D01*
X-0000005000Y0000010000D01*
G01X0000935000Y0001685000D02*
X0000935000Y0000185000D01*
G54D11*
G01X-0004263900Y0000443460D02*
X-0004258490Y0000438170D01*
X-0004252390Y0000435000D01*
X-0004246970Y0000435000D01*
X-0004241550Y0000438170D01*
X-0004237490Y0000443460D01*
X-0004235460Y0000450880D01*
X-0004236810Y0000458280D01*
X-0004240200Y0000464630D01*
X-0004246290Y0000468870D01*
X-0004254420Y0000470980D01*
X-0004259160Y0000475220D01*
X-0004261200Y0000482620D01*
X-0004259840Y0000490030D01*
X-0004256450Y0000495320D01*
X-0004251710Y0000498500D01*
X-0004246970Y0000498500D01*
X-0004242230Y0000496380D01*
X-0004238160Y0000491090D01*
G01X-0004193800Y0000432880D02*
X-0004195150Y0000433940D01*
X-0004195150Y0000436060D01*
X-0004193800Y0000437120D01*
X-0004192450Y0000436060D01*
X-0004192450Y0000433940D01*
X-0004193800Y0000432880D01*
G01X-0004150110Y0000413830D02*
X-0004150110Y0000477330D01*
G01X-0004150110Y0000467810D02*
X-0004146730Y0000473100D01*
X-0004143340Y0000476270D01*
X-0004137920Y0000477330D01*
X-0004133180Y0000476270D01*
X-0004128440Y0000470980D01*
X-0004126400Y0000463570D01*
X-0004125730Y0000456170D01*
X-0004126400Y0000448760D01*
X-0004128440Y0000441350D01*
X-0004132500Y0000437120D01*
X-0004137920Y0000435000D01*
X-0004142660Y0000436060D01*
X-0004147400Y0000439230D01*
X-0004150110Y0000443460D01*
G01X-0004082040Y0000435000D02*
X-0004086100Y0000436060D01*
X-0004090170Y0000440290D01*
X-0004092880Y0000447700D01*
X-0004094230Y0000456170D01*
X-0004092880Y0000464630D01*
X-0004090170Y0000472040D01*
X-0004086100Y0000476270D01*
X-0004082040Y0000477330D01*
X-0004077980Y0000476270D01*
X-0004073910Y0000472040D01*
X-0004071200Y0000464630D01*
X-0004070520Y0000456170D01*
X-0004071200Y0000447700D01*
X-0004073910Y0000440290D01*
X-0004077980Y0000436060D01*
X-0004082040Y0000435000D01*
G01X-0004035640Y0000435000D02*
X-0004035640Y0000477330D01*
G01X-0004035640Y0000468870D02*
X-0004032260Y0000473100D01*
X-0004028870Y0000476270D01*
X-0004024130Y0000477330D01*
X-0004020740Y0000476270D01*
X-0004016680Y0000473100D01*
G01X-0003970280Y0000498500D02*
X-0003970280Y0000435000D01*
G01X-0003979760Y0000477330D02*
X-0003960800Y0000477330D01*
G01X-0004163230Y0000565000D02*
X-0004163230Y0000628500D01*
X-0004146290Y0000628500D01*
X-0004140870Y0000625320D01*
X-0004137490Y0000621090D01*
X-0004136130Y0000612620D01*
X-0004137490Y0000604160D01*
X-0004141550Y0000598870D01*
X-0004146290Y0000595690D01*
X-0004163230Y0000595690D01*
G01X-0004146290Y0000595690D02*
X-0004136130Y0000565000D01*
G01X-0004078900Y0000623210D02*
X-0004082960Y0000626380D01*
X-0004087700Y0000628500D01*
X-0004093120Y0000628500D01*
X-0004099220Y0000625320D01*
X-0004103960Y0000620030D01*
X-0004107350Y0000613680D01*
X-0004110060Y0000603100D01*
X-0004110730Y0000593570D01*
X-0004109380Y0000584050D01*
X-0004107350Y0000577700D01*
X-0004103280Y0000571350D01*
X-0004098540Y0000567120D01*
X-0004093800Y0000565000D01*
X-0004089060Y0000565000D01*
X-0004084320Y0000567120D01*
X-0004080250Y0000570290D01*
X-0004076870Y0000574520D01*
G01X-0004037920Y0000607330D02*
X-0004037920Y0000565000D01*
G01X-0004037920Y0000624270D02*
X-0004039270Y0000625320D01*
X-0004039270Y0000627440D01*
X-0004037920Y0000628500D01*
X-0004036570Y0000627440D01*
X-0004036570Y0000625320D01*
X-0004037920Y0000624270D01*
G01X-0003993560Y0000565000D02*
X-0003993560Y0000607330D01*
G01X-0003993560Y0000596750D02*
X-0003990850Y0000602040D01*
X-0003986780Y0000606270D01*
X-0003981360Y0000607330D01*
X-0003976620Y0000606270D01*
X-0003972560Y0000602040D01*
X-0003970520Y0000594630D01*
X-0003970520Y0000565000D01*
G01X-0004049680Y0000753500D02*
X-0004049680Y0000690000D01*
G01X-0004065260Y0000753500D02*
X-0004034100Y0000753500D01*
G01X-0004008020Y0000690000D02*
X-0003979580Y0000753500D01*
G01X-0004008020Y0000753500D02*
X-0003979580Y0000690000D01*
G01X-0004063230Y0000805000D02*
X-0004063230Y0000868500D01*
X-0004046290Y0000868500D01*
X-0004040870Y0000865320D01*
X-0004037490Y0000861090D01*
X-0004036130Y0000852620D01*
X-0004037490Y0000844160D01*
X-0004041550Y0000838870D01*
X-0004046290Y0000835690D01*
X-0004063230Y0000835690D01*
G01X-0004046290Y0000835690D02*
X-0004036130Y0000805000D01*
G01X-0004008020Y0000805000D02*
X-0003979580Y0000868500D01*
G01X-0004008020Y0000868500D02*
X-0003979580Y0000805000D01*
G01X-0004090620Y0000961750D02*
X-0004077070Y0000961750D01*
X-0004077070Y0000942700D01*
X-0004081130Y0000936350D01*
X-0004085870Y0000932120D01*
X-0004092650Y0000930000D01*
X-0004099420Y0000932120D01*
X-0004104160Y0000936350D01*
X-0004108230Y0000942700D01*
X-0004110940Y0000950110D01*
X-0004112290Y0000958570D01*
X-0004112290Y0000965980D01*
X-0004110940Y0000972330D01*
X-0004108230Y0000979740D01*
X-0004104160Y0000986090D01*
X-0004100100Y0000990320D01*
X-0004094680Y0000993500D01*
X-0004089940Y0000993500D01*
X-0004084520Y0000991380D01*
X-0004080460Y0000987150D01*
G01X-0004054380Y0000930000D02*
X-0004054380Y0000993500D01*
X-0004023220Y0000930000D01*
X-0004023220Y0000993500D01*
G01X-0003997820Y0000930000D02*
X-0003997820Y0000993500D01*
X-0003984270Y0000993500D01*
X-0003978860Y0000990320D01*
X-0003974790Y0000986090D01*
X-0003971400Y0000979740D01*
X-0003968700Y0000972330D01*
X-0003968020Y0000961750D01*
X-0003968700Y0000951170D01*
X-0003971400Y0000943760D01*
X-0003974790Y0000937410D01*
X-0003978860Y0000933170D01*
X-0003984270Y0000930000D01*
X-0003997820Y0000930000D01*
G01X-0004217130Y0001206170D02*
X-0004200870Y0001206170D01*
G01X-0004209680Y0001219930D02*
X-0004209680Y0001192410D01*
G01X-0004168700Y0001197700D02*
X-0004164640Y0001190290D01*
X-0004159220Y0001186060D01*
X-0004153120Y0001185000D01*
X-0004147700Y0001186060D01*
X-0004142280Y0001191350D01*
X-0004138900Y0001197700D01*
X-0004138220Y0001204050D01*
X-0004139580Y0001211460D01*
X-0004144320Y0001216750D01*
X-0004149060Y0001218870D01*
X-0004155150Y0001218870D01*
G01X-0004149060Y0001218870D02*
X-0004144990Y0001222040D01*
X-0004141610Y0001227330D01*
X-0004140250Y0001233680D01*
X-0004141610Y0001240030D01*
X-0004144990Y0001245320D01*
X-0004151090Y0001248500D01*
X-0004157190Y0001247440D01*
X-0004163280Y0001243210D01*
G01X-0004097920Y0001182880D02*
X-0004099270Y0001183940D01*
X-0004099270Y0001186060D01*
X-0004097920Y0001187120D01*
X-0004096570Y0001186060D01*
X-0004096570Y0001183940D01*
X-0004097920Y0001182880D01*
G01X-0004056940Y0001197700D02*
X-0004052880Y0001190290D01*
X-0004047460Y0001186060D01*
X-0004041360Y0001185000D01*
X-0004035940Y0001186060D01*
X-0004030520Y0001191350D01*
X-0004027140Y0001197700D01*
X-0004026460Y0001204050D01*
X-0004027820Y0001211460D01*
X-0004032560Y0001216750D01*
X-0004037300Y0001218870D01*
X-0004043390Y0001218870D01*
G01X-0004037300Y0001218870D02*
X-0004033230Y0001222040D01*
X-0004029850Y0001227330D01*
X-0004028490Y0001233680D01*
X-0004029850Y0001240030D01*
X-0004033230Y0001245320D01*
X-0004039330Y0001248500D01*
X-0004045430Y0001247440D01*
X-0004051520Y0001243210D01*
G01X-0004003090Y0001248500D02*
X-0003986160Y0001185000D01*
X-0003969230Y0001248500D01*
G01X-0003910130Y0000093740D02*
X-0003885790Y0000015000D01*
X-0003861450Y0000093740D01*
G01X-0003821650Y0000050430D02*
X-0003790500Y0000050430D01*
X-0003793420Y0000059620D01*
X-0003798290Y0000064870D01*
X-0003805100Y0000067490D01*
X-0003811920Y0000066180D01*
X-0003817760Y0000062240D01*
X-0003821650Y0000053060D01*
X-0003823600Y0000045180D01*
X-0003823600Y0000037310D01*
X-0003821650Y0000029430D01*
X-0003816790Y0000021560D01*
X-0003810940Y0000016310D01*
X-0003804130Y0000015000D01*
X-0003797310Y0000017620D01*
X-0003790500Y0000025500D01*
G01X-0003741940Y0000015000D02*
X-0003741940Y0000067490D01*
G01X-0003741940Y0000057000D02*
X-0003737070Y0000062240D01*
X-0003732200Y0000066180D01*
X-0003725390Y0000067490D01*
X-0003720520Y0000066180D01*
X-0003714680Y0000062240D01*
G01X-0003649570Y0000012380D02*
X-0003651520Y0000013690D01*
X-0003651520Y0000016310D01*
X-0003649570Y0000017620D01*
X-0003647620Y0000016310D01*
X-0003647620Y0000013690D01*
X-0003649570Y0000012380D01*
G01X-0003492090Y0000015000D02*
X-0003492090Y0000093740D01*
X-0003503770Y0000077990D01*
G01X-0003503770Y0000015000D02*
X-0003480410Y0000015000D01*
G01X-0003413350Y0000015000D02*
X-0003413350Y0000093740D01*
X-0003425030Y0000077990D01*
G01X-0003425030Y0000015000D02*
X-0003401670Y0000015000D01*
G01X-0003796610Y0000258500D02*
X-0003779680Y0000195000D01*
X-0003762750Y0000258500D01*
G01X-0003723800Y0000237330D02*
X-0003723800Y0000195000D01*
G01X-0003723800Y0000254270D02*
X-0003725150Y0000255320D01*
X-0003725150Y0000257440D01*
X-0003723800Y0000258500D01*
X-0003722450Y0000257440D01*
X-0003722450Y0000255320D01*
X-0003723800Y0000254270D01*
G01X-0003679440Y0000195000D02*
X-0003679440Y0000237330D01*
G01X-0003679440Y0000226750D02*
X-0003676730Y0000232040D01*
X-0003672660Y0000236270D01*
X-0003667240Y0000237330D01*
X-0003662500Y0000236270D01*
X-0003658440Y0000232040D01*
X-0003656400Y0000224630D01*
X-0003656400Y0000195000D01*
G01X-0004053900Y0001318460D02*
X-0004048490Y0001313170D01*
X-0004042390Y0001310000D01*
X-0004036970Y0001310000D01*
X-0004031550Y0001313170D01*
X-0004027490Y0001318460D01*
X-0004025460Y0001325880D01*
X-0004026810Y0001333280D01*
X-0004030200Y0001339630D01*
X-0004036290Y0001343870D01*
X-0004044420Y0001345980D01*
X-0004049160Y0001350220D01*
X-0004051200Y0001357620D01*
X-0004049840Y0001365030D01*
X-0004046450Y0001370320D01*
X-0004041710Y0001373500D01*
X-0004036970Y0001373500D01*
X-0004032230Y0001371380D01*
X-0004028160Y0001366090D01*
G01X-0004000730Y0001352330D02*
X-0003992610Y0001310000D01*
X-0003983800Y0001352330D01*
X-0003974990Y0001310000D01*
X-0003966870Y0001352330D01*
G01X-0004053230Y0001583500D02*
X-0004053230Y0001520000D01*
X-0004026130Y0001520000D01*
G01X-0003993960Y0001548570D02*
X-0003972280Y0001548570D01*
X-0003974320Y0001555980D01*
X-0003977700Y0001560220D01*
X-0003982450Y0001562330D01*
X-0003987190Y0001561270D01*
X-0003991250Y0001558100D01*
X-0003993960Y0001550690D01*
X-0003995320Y0001544340D01*
X-0003995320Y0001537990D01*
X-0003993960Y0001531640D01*
X-0003990570Y0001525290D01*
X-0003986510Y0001521060D01*
X-0003981770Y0001520000D01*
X-0003977030Y0001522120D01*
X-0003972280Y0001528460D01*
G01X-0003915730Y0001583500D02*
X-0003915730Y0001520000D01*
G01X-0003915730Y0001529520D02*
X-0003918440Y0001524230D01*
X-0003922500Y0001521060D01*
X-0003927240Y0001520000D01*
X-0003932660Y0001522120D01*
X-0003936730Y0001527410D01*
X-0003939440Y0001533760D01*
X-0003940110Y0001541170D01*
X-0003939440Y0001548570D01*
X-0003936730Y0001554930D01*
X-0003932660Y0001560220D01*
X-0003927240Y0001562330D01*
X-0003922500Y0001561270D01*
X-0003919110Y0001559160D01*
X-0003915730Y0001554930D01*
G01X-0003963230Y0001737700D02*
X-0003959840Y0001731350D01*
X-0003955780Y0001727120D01*
X-0003951030Y0001725000D01*
X-0003945620Y0001727120D01*
X-0003941550Y0001731350D01*
X-0003937490Y0001737700D01*
X-0003936130Y0001746170D01*
X-0003936130Y0001788500D01*
G01X-0003893800Y0001725000D02*
X-0003893800Y0001788500D01*
X-0003901930Y0001775800D01*
G01X-0003901930Y0001725000D02*
X-0003885670Y0001725000D01*
G01X-0003290000Y0000100000D02*
X-0002090000Y0000100000D01*
X-0002090000Y0001700000D01*
X-0003290000Y0001700000D01*
X-0003290000Y0000100000D01*
G01X-0003274580Y0001783500D02*
X-0003274580Y0001737990D01*
X-0003271870Y0001728460D01*
X-0003266450Y0001722120D01*
X-0003259680Y0001720000D01*
X-0003252910Y0001722120D01*
X-0003247490Y0001728460D01*
X-0003244780Y0001737990D01*
X-0003244780Y0001783500D01*
G01X-0003203800Y0001720000D02*
X-0003203800Y0001783500D01*
X-0003211930Y0001770800D01*
G01X-0003211930Y0001720000D02*
X-0003195670Y0001720000D01*
G01X-0003147920Y0001783500D02*
X-0003153340Y0001781380D01*
X-0003157400Y0001776090D01*
X-0003160110Y0001769740D01*
X-0003162140Y0001761270D01*
X-0003162820Y0001751750D01*
X-0003162140Y0001742220D01*
X-0003160110Y0001733760D01*
X-0003157400Y0001727410D01*
X-0003153340Y0001722120D01*
X-0003147920Y0001720000D01*
X-0003142500Y0001722120D01*
X-0003138440Y0001727410D01*
X-0003135730Y0001733760D01*
X-0003133700Y0001742220D01*
X-0003133020Y0001751750D01*
X-0003133700Y0001761270D01*
X-0003135730Y0001769740D01*
X-0003138440Y0001776090D01*
X-0003142500Y0001781380D01*
X-0003147920Y0001783500D01*
G01X-0001699580Y0001763500D02*
X-0001699580Y0001717990D01*
X-0001696870Y0001708460D01*
X-0001691450Y0001702120D01*
X-0001684680Y0001700000D01*
X-0001677910Y0001702120D01*
X-0001672490Y0001708460D01*
X-0001669780Y0001717990D01*
X-0001669780Y0001763500D01*
G01X-0001628800Y0001700000D02*
X-0001624060Y0001701060D01*
X-0001618640Y0001704230D01*
X-0001615250Y0001709520D01*
X-0001613900Y0001716930D01*
X-0001615250Y0001724340D01*
X-0001619320Y0001730690D01*
X-0001625410Y0001733870D01*
X-0001632190Y0001733870D01*
X-0001636250Y0001735980D01*
X-0001639640Y0001741270D01*
X-0001640990Y0001748680D01*
X-0001638960Y0001756090D01*
X-0001634220Y0001761380D01*
X-0001628800Y0001763500D01*
X-0001623380Y0001761380D01*
X-0001618640Y0001756090D01*
X-0001616610Y0001748680D01*
X-0001617960Y0001741270D01*
X-0001621350Y0001735980D01*
X-0001625410Y0001733870D01*
X-0001632190Y0001733870D01*
X-0001638280Y0001730690D01*
X-0001642350Y0001724340D01*
X-0001643700Y0001716930D01*
X-0001642350Y0001709520D01*
X-0001638960Y0001704230D01*
X-0001633540Y0001701060D01*
X-0001628800Y0001700000D01*
G01X-0000504580Y0000025000D02*
X-0000504580Y0000088500D01*
X-0000491030Y0000088500D01*
X-0000485620Y0000085320D01*
X-0000481550Y0000081090D01*
X-0000478160Y0000074740D01*
X-0000475460Y0000067330D01*
X-0000474780Y0000056750D01*
X-0000475460Y0000046170D01*
X-0000478160Y0000038760D01*
X-0000481550Y0000032410D01*
X-0000485620Y0000028170D01*
X-0000491030Y0000025000D01*
X-0000504580Y0000025000D01*
G01X-0000425670Y0000025000D02*
X-0000425670Y0000088500D01*
X-0000450730Y0000042990D01*
X-0000416870Y0000042990D01*
M02*
