G04 ================== begin FILE IDENTIFICATION RECORD ==================*
G04 Layout Name:  RC-TranponderV12.brd*
G04 Film Name:    Soldermask_bot*
G04 File Format:  Gerber RS274X*
G04 File Origin:  Cadence Allegro 17.2-S042*
G04 Origin Date:  Fri Apr 26 16:06:40 2019*
G04 *
G04 Layer:  PACKAGE GEOMETRY/SOLDERMASK_BOTTOM*
G04 Layer:  BOARD GEOMETRY/SOLDERMASK_BOTTOM*
G04 Layer:  PIN/SOLDERMASK_BOTTOM*
G04 Layer:  VIA CLASS/SOLDERMASK_BOTTOM*
G04 *
G04 Offset:    (0.0000 0.0000)*
G04 Mirror:    No*
G04 Mode:      Positive*
G04 Rotation:  0*
G04 FullContactRelief:  No*
G04 UndefLineWidth:     0.1500*
G04 ================== end FILE IDENTIFICATION RECORD ====================*
%FSAX55Y55*MOMM*%
%IR0*IPPOS*OFA0.00000B0.00000*MIA0B0*SFA1.00000B1.00000*%
%ADD31R,1.X.7*%
%ADD20O,.8X1.3*%
%ADD16R,.7X1.1*%
%ADD18O,1.3X.8*%
%ADD19R,1.2X.8*%
%ADD34R,.8X1.2*%
%ADD27R,.5X1.45*%
%ADD13R,.45X1.7*%
%ADD37R,1.15X.65*%
%ADD10R,.75X.75*%
%ADD21R,1.0922X.6096*%
%ADD25R,.6096X1.0922*%
%ADD23R,2.X2.1*%
%ADD35R,2.1X1.3*%
%ADD24R,2.1X2.1*%
%ADD22R,2.3X1.8*%
%ADD15C,2.*%
%ADD11R,1.82X1.22*%
%ADD36R,1.75X1.05*%
%ADD28R,.6X.7*%
%ADD17R,.45X.6*%
%ADD12R,.5X.55*%
%ADD33R,5.5X5.5*%
%ADD14C,1.15*%
%ADD32R,.4X.95*%
%ADD29C,1.35*%
%ADD30R,.95X.4*%
%ADD26R,1.45X1.45*%
%LPD*%
G75*
G54D10*
X-0004180000Y0000105000D03*
X-0004090000Y0000105000D03*
X-0004175000Y0000845000D03*
X-0004175000Y0000655000D03*
X-0004175000Y0000745000D03*
X-0004175000Y0000935000D03*
X-0003780000Y0000145000D03*
X-0003780000Y0000055000D03*
X-0003745000Y0000525000D03*
X-0003745000Y0000435000D03*
X-0003780000Y0000335000D03*
X-0003780000Y0000245000D03*
X-0003685000Y0001010000D03*
X-0003685000Y0001375000D03*
X-0003770000Y0001480000D03*
X-0003770000Y0001585000D03*
X-0003635000Y0000435000D03*
X-0003635000Y0000525000D03*
X-0003625000Y0000305000D03*
X-0003625000Y0000215000D03*
X-0003635000Y0000625000D03*
X-0003635000Y0000715000D03*
X-0003595000Y0001010000D03*
X-0003595000Y0001375000D03*
X-0003680000Y0001480000D03*
X-0003680000Y0001585000D03*
X-0003150000Y0000125000D03*
X-0003240000Y0000125000D03*
X-0003240000Y0000230000D03*
X-0003150000Y0000230000D03*
X-0003115000Y0000395000D03*
X-0003025000Y0000395000D03*
X-0003025000Y0000815000D03*
X-0003115000Y0000815000D03*
X-0003000000Y0000920000D03*
X-0003190000Y0000975000D03*
X-0003190000Y0001065000D03*
X-0003275000Y0001260000D03*
X-0003185000Y0001260000D03*
X-0002925000Y0000395000D03*
X-0002835000Y0000395000D03*
X-0002910000Y0000920000D03*
X-0002370000Y0000400000D03*
X-0002470000Y0000400000D03*
X-0002560000Y0000400000D03*
X-0002295000Y0000195000D03*
X-0002295000Y0000105000D03*
X-0002280000Y0000400000D03*
X-0002030000Y0000250000D03*
X-0002135000Y0000250000D03*
X-0002135000Y0000340000D03*
X-0002000000Y0000470000D03*
X-0002090000Y0000470000D03*
X-0002235000Y0000570000D03*
X-0002235000Y0000660000D03*
X-0001840000Y0000340000D03*
X-0001840000Y0000250000D03*
X-0001940000Y0000250000D03*
X-0001900000Y0000470000D03*
X-0001810000Y0000470000D03*
X-0001970000Y0001325000D03*
X-0001970000Y0001235000D03*
X-0001815000Y0001375000D03*
X-0001725000Y0001375000D03*
X-0001620000Y0000405000D03*
X-0001530000Y0000405000D03*
X-0001590000Y0001385000D03*
X-0001590000Y0001475000D03*
X-0001470000Y0001500000D03*
X-0001470000Y0001410000D03*
X-0001330000Y0001500000D03*
X-0001330000Y0001410000D03*
X-0001280000Y0000360000D03*
X-0001190000Y0000360000D03*
X-0001190000Y0001500000D03*
X-0001190000Y0001410000D03*
X-0000610000Y0000440000D03*
X-0000700000Y0000440000D03*
X-0000680000Y0000850000D03*
X-0000605000Y0001425000D03*
X-0000695000Y0001425000D03*
X-0000695000Y0001525000D03*
X-0000605000Y0001525000D03*
X-0000590000Y0000850000D03*
X-0000465000Y0001005000D03*
X-0000375000Y0001005000D03*
X-0000470000Y0001260000D03*
X-0000380000Y0001260000D03*
X-0000380000Y0001425000D03*
X-0000470000Y0001425000D03*
X-0000470000Y0001525000D03*
X-0000380000Y0001525000D03*
X-0000280000Y0001425000D03*
X-0000280000Y0001525000D03*
X-0000190000Y0001425000D03*
X-0000190000Y0001525000D03*
G54D11*
X-0004155000Y0000295000D03*
G54D20*
X-0003470000Y0001495000D03*
X-0003565000Y0001715000D03*
X-0003375000Y0001715000D03*
X-0003165000Y0001495000D03*
X-0003260000Y0001715000D03*
X-0003070000Y0001715000D03*
G54D30*
X-0001650000Y0000850000D03*
X-0001650000Y0000800000D03*
X-0001650000Y0000750000D03*
X-0001650000Y0000700000D03*
X-0001650000Y0000650000D03*
X-0001650000Y0000600000D03*
X-0001650000Y0001150000D03*
X-0001650000Y0001100000D03*
X-0001650000Y0001050000D03*
X-0001650000Y0001000000D03*
X-0001650000Y0000950000D03*
X-0001650000Y0000900000D03*
X-0000960000Y0000600000D03*
X-0000960000Y0000650000D03*
X-0000960000Y0000700000D03*
X-0000960000Y0000750000D03*
X-0000960000Y0000800000D03*
X-0000960000Y0000850000D03*
X-0000960000Y0000900000D03*
X-0000960000Y0000950000D03*
X-0000960000Y0001000000D03*
X-0000960000Y0001050000D03*
X-0000960000Y0001100000D03*
X-0000960000Y0001150000D03*
G54D12*
X-0004090000Y0000387500D03*
X-0004155000Y0000387500D03*
X-0004220000Y0000387500D03*
X-0004220000Y0000202500D03*
X-0004155000Y0000202500D03*
X-0004090000Y0000202500D03*
G54D21*
X-0003043920Y0000072040D03*
X-0003043920Y0000260000D03*
X-0002795000Y0000166020D03*
X-0002795000Y0000072040D03*
X-0002795000Y0000260000D03*
X-0002128920Y0000607040D03*
X-0002128920Y0000795000D03*
X-0001880000Y0000795000D03*
X-0001880000Y0000701020D03*
X-0001880000Y0000607040D03*
G54D22*
X-0002795000Y0001425000D03*
X-0002175000Y0001425000D03*
G54D13*
X-0004237500Y0001355000D03*
X-0004172500Y0001355000D03*
X-0004107500Y0001355000D03*
X-0004042500Y0001355000D03*
X-0004042500Y0001695000D03*
X-0004107500Y0001695000D03*
X-0004172500Y0001695000D03*
X-0004237500Y0001695000D03*
G54D31*
X-0001850000Y0000935000D03*
G54D32*
X-0001580000Y0000530000D03*
X-0001530000Y0000530000D03*
X-0001480000Y0000530000D03*
X-0001430000Y0000530000D03*
X-0001380000Y0000530000D03*
X-0001330000Y0000530000D03*
X-0001330000Y0001220000D03*
X-0001380000Y0001220000D03*
X-0001430000Y0001220000D03*
X-0001480000Y0001220000D03*
X-0001530000Y0001220000D03*
X-0001580000Y0001220000D03*
X-0001280000Y0000530000D03*
X-0001230000Y0000530000D03*
X-0001180000Y0000530000D03*
X-0001130000Y0000530000D03*
X-0001080000Y0000530000D03*
X-0001030000Y0000530000D03*
X-0001030000Y0001220000D03*
X-0001080000Y0001220000D03*
X-0001130000Y0001220000D03*
X-0001180000Y0001220000D03*
X-0001230000Y0001220000D03*
X-0001280000Y0001220000D03*
G54D14*
X-0003900000Y0000115000D03*
X-0003900000Y0000365000D03*
X-0003900000Y0000240000D03*
X-0003900000Y0001560000D03*
X-0003900000Y0001435000D03*
X-0003900000Y0001685000D03*
G54D23*
X-0002885000Y0001680000D03*
X-0002085000Y0001680000D03*
G54D33*
X-0001305000Y0000875000D03*
G54D15*
X-0003946000Y0000900000D03*
X-0003946000Y0000646000D03*
X-0003946000Y0001154000D03*
G54D24*
X-0002605000Y0001680000D03*
X-0002365000Y0001680000D03*
G54D25*
X-0002375000Y0000555000D03*
X-0002468980Y0000555000D03*
X-0002562960Y0000555000D03*
X-0002562960Y0000803920D03*
X-0002375000Y0000803920D03*
G54D34*
X-0000705000Y0000710000D03*
X-0000685000Y0000570000D03*
X-0000320000Y0000330000D03*
X-0000565000Y0000710000D03*
X-0000545000Y0000570000D03*
X-0000180000Y0000330000D03*
G54D16*
X-0003447500Y0000145000D03*
X-0003447500Y0001010000D03*
X-0003342500Y0000145000D03*
X-0003342500Y0001010000D03*
G54D26*
X-0002551680Y0001140000D03*
X-0002338320Y0001140000D03*
X-0002551680Y0000960000D03*
X-0002338320Y0000960000D03*
X-0000350000Y0000811680D03*
X-0000350000Y0000598320D03*
G54D17*
X-0003460000Y0000055000D03*
X-0003395000Y0000055000D03*
X-0003395000Y0000235000D03*
X-0003460000Y0000235000D03*
X-0003460000Y0000920000D03*
X-0003395000Y0000920000D03*
X-0003395000Y0001100000D03*
X-0003460000Y0001100000D03*
X-0003330000Y0000055000D03*
X-0003330000Y0000235000D03*
X-0003330000Y0000920000D03*
X-0003330000Y0001100000D03*
G54D35*
X-0000645000Y0001005000D03*
X-0000645000Y0001255000D03*
G54D36*
X0000116000Y0000615000D03*
X0000116000Y0001185000D03*
G54D27*
X-0002615000Y0001412500D03*
X-0002355000Y0001412500D03*
X-0002550000Y0001412500D03*
X-0002420000Y0001412500D03*
X-0002485000Y0001412500D03*
G54D18*
X-0003500000Y0000325000D03*
X-0003500000Y0000515000D03*
X-0003500000Y0000625000D03*
X-0003500000Y0000815000D03*
X-0003280000Y0000420000D03*
X-0003115000Y0000505000D03*
X-0003280000Y0000720000D03*
X-0003115000Y0000695000D03*
X-0003060000Y0001125000D03*
X-0002895000Y0000600000D03*
X-0002840000Y0001220000D03*
X-0002840000Y0001030000D03*
X-0002625000Y0000045000D03*
X-0002405000Y0000140000D03*
X-0002625000Y0000235000D03*
G54D28*
X-0002020000Y0000935000D03*
X-0002020000Y0001135000D03*
X-0001830000Y0001135000D03*
G54D37*
X-0000076000Y0000740000D03*
X-0000076000Y0000820000D03*
X-0000076000Y0000900000D03*
X-0000076000Y0000980000D03*
X-0000076000Y0001060000D03*
G54D19*
X-0003620000Y0001125000D03*
X-0003620000Y0001265000D03*
X-0001895000Y0001535000D03*
X-0001895000Y0001675000D03*
G54D29*
X-0001655000Y0000110000D03*
X-0000365000Y0000110000D03*
M02*
