M48
METRIC
T01C.3
T02C.6
T03C.6
T04C1.1
;LEADER: 12 
;HEADER: 
;CODE  : ASCII 
;FILE  : RC-TranponderV12-1-4.drl for board C:/Users/klo/Desktop/Kuglen/Modelflyvning/Transponder 2.4Ghz/Version 12/allegro/#Taaaaji13604.tmp ... layers TOP and BOTTOM
;T01 Holesize 1. = 0.300000 Tolerance = +0.050000/-0.050000 PLATED MM Quantity = 106
;T02 Holesize 2. = 0.600000 Tolerance = +0.003000/-0.003000 PLATED MM Quantity = 6
;T03 Holesize 3. = 0.600000 Tolerance = +0.080000/-0.080000 PLATED MM Quantity = 2
;T04 Holesize 4. = 1.100000 Tolerance = +0.050000/-0.050000 PLATED MM Quantity = 3
%
G90
T01
X-0004237500Y0001462500
X-0004280000Y0000295000
X-0004250000Y0000105000
X-0003814030Y0000494030
X-0003745000Y0000875000
X-0003770000Y0001065000
X-0003780000Y0001155000
X-0003787610Y0001302500
X-0003760000Y0001405000
X-0003805000Y0001755000
X-0003200000Y0001715000
X-0003500000Y0001715000
X-0003375000Y0001610000
X-0003070000Y0001605000
X-0003075000Y0001495000
X-0003250000Y0001495000
X-0003340000Y0001260000
X-0003453000Y0001248000
X-0003060000Y0001220000
X-0003260000Y0001145000
X-0003115000Y0000895000
X-0003340000Y0000570000
X-0003510000Y0000400000
X-0003240000Y0000295000
X-0003545000Y0000110000
X-0003265000Y0000055000
X-0002890000Y0000187500
X-0002690000Y0000315000
X-0002925000Y0000475000
X-0002695540Y0000990380
X-0002935000Y0001030000
X-0002695540Y0001090380
X-0002935000Y0001110000
X-0002695540Y0001190380
X-0002615000Y0001520000
X-0002355000Y0001515000
X-0002205540Y0001155380
R02Y-0000100000
X-0002470000Y0000315000
X-0002220000Y0000195000
X-0002030000Y0000170000
X-0001785000Y0000170000
X-0001750000Y0000255000
X-0001535660Y0000265860
X-0001698790Y0000317780
X-0001711430Y0000416590
X-0001805000Y0000535000
X-0001715730Y0000541590
X-0001738510Y0000618290
X-0001545000Y0000635000
X-0001990000Y0000654000
X-0001733560Y0000698140
X-0001783310Y0000789760
X-0001745000Y0000860000
X-0001740550Y0000962220
X-0001929190Y0000972500
X-0001540000Y0001110000
X-0001930000Y0001165000
X-0001699780Y0001242230
X-0001780000Y0001265000
X-0001652000Y0001309490
X-0001557030Y0001314210
X-0001885000Y0001413090
X-0001725000Y0001445000
X-0002005000Y0001468090
X-0001555000Y0001545000
X-0001634610Y0001552970
X-0001800000Y0001675000
X-0001535000Y0001685000
X-0001815000Y0001775000
X-0001105000Y0001525000
X-0001100000Y0001435000
X-0001472500Y0001340000
X-0001375770Y0001309490
X-0001075000Y0001105000
X-0001075000Y0000645000
X-0001314990Y0000452500
X-0001394990Y0000452500
X-0001319000Y0000145000
X-0001450000Y0000130000
X-0000714000Y0000330000
X-0000610000Y0000335000
X-0001015000Y0000360000
X-0000795000Y0000570000
X-0000786470Y0000747640
X-0000873590Y0000798590
X-0000873270Y0000955000
X-0000826470Y0001019890
X-0000781150Y0001290780
X-0000534650Y0001390000
X-0000540000Y0001525000
X-0000100000Y0001775000
X-0000380000Y0001590000
X-0000095000Y0001425000
X-0000277500Y0001250000
X-0000380000Y0001175000
X-0000300000Y0001130000
X-0000305000Y0001005000
X-0000495000Y0000850000
X-0000490000Y0000710000
X-0000180000Y0000705000
X-0000475000Y0000570000
X-0000495000Y0000440000
X-0000242990Y0000427500
X-0000065000Y0000230000
T02
X-0003900000Y0000115000
R02Y0000125000
X-0003900000Y0001435000
R02Y0000125000
T03
X-0000365000Y0000110000
X-0001655000Y0000110000
T04
X-0003946000Y0000646000
R02Y0000254000
M30
