G04 ================== begin FILE IDENTIFICATION RECORD ==================*
G04 Layout Name:  RC-TranponderV12.brd*
G04 Film Name:    2_INNER_LAYER_2*
G04 File Format:  Gerber RS274X*
G04 File Origin:  Cadence Allegro 17.2-S042*
G04 Origin Date:  Fri Apr 26 16:06:40 2019*
G04 *
G04 Layer:  VIA CLASS/INNER_LAYER_2*
G04 Layer:  PIN/INNER_LAYER_2*
G04 Layer:  ETCH/INNER_LAYER_2*
G04 *
G04 Offset:    (0.0000 0.0000)*
G04 Mirror:    No*
G04 Mode:      Positive*
G04 Rotation:  0*
G04 FullContactRelief:  No*
G04 UndefLineWidth:     0.1500*
G04 ================== end FILE IDENTIFICATION RECORD ====================*
%FSAX55Y55*MOMM*%
%IR0*IPPOS*OFA0.00000B0.00000*MIA0B0*SFA1.00000B1.00000*%
%ADD10C,.5*%
%ADD11C,1.*%
%ADD13C,1.2*%
%ADD12C,1.8*%
%ADD14C,.25*%
%ADD16C,.8004*%
%ADD17C,2.1004*%
%ADD18C,1.5004*%
%ADD15C,2.5004*%
G75*
%LPD*%
G75*
G36*
G01X-0000056390Y0001809990D02*
X-0000020010Y0001809990D01*
X-0000020010Y0001665990D01*
X0000079990Y0001665990D01*
X0000079990Y0000205010D01*
X-0000020010Y0000205010D01*
X-0000020010Y-0000009990D01*
X-0004329990Y-0000009990D01*
X-0004329990Y0001809990D01*
X-0001858610Y0001809990D01*
G02X-0001849780Y0001794800I0000000004J-0000010159D01*
G03X-0001855020Y0001775000I0000034788J-0000019800D01*
G03X-0001774980Y0001775000I0000040020J0D01*
G03X-0001780220Y0001794800I-0000040028J0D01*
G02X-0001771390Y0001809990I0000008826J0000005031D01*
G01X-0000143610Y0001809990D01*
G02X-0000134780Y0001794800I0000000004J-0000010159D01*
G03X-0000140020Y0001775000I0000034788J-0000019800D01*
G03X-0000059980Y0001775000I0000040020J0D01*
G03X-0000065220Y0001794800I-0000040028J0D01*
G02X-0000056390Y0001809990I0000008826J0000005031D01*
G37*
%LPC*%
G75*
G36*
G01X-0003936140Y0000294050D02*
G03X-0003936140Y0000310950I-0000005642J0000008450D01*
G02X-0003965020Y0000365000I0000036138J0000054050D01*
G02X-0003834980Y0000365000I0000065020J0D01*
G02X-0003863860Y0000310950I-0000065018J0D01*
G03X-0003863860Y0000294050I0000005642J-0000008450D01*
G02X-0003863860Y0000185950I-0000036138J-0000054050D01*
G03X-0003863860Y0000169050I0000005642J-0000008450D01*
G02X-0003834980Y0000115000I-0000036138J-0000054050D01*
G02X-0003965020Y0000115000I-0000065020J0D01*
G02X-0003936140Y0000169050I0000065018J0D01*
G03X-0003936140Y0000185950I-0000005642J0000008450D01*
G02X-0003936140Y0000294050I0000036138J0000054050D01*
G37*
G36*
G01X-0001346890Y0000428340D02*
G03X-0001363090Y0000428340I-0000008100J-0000006139D01*
G02X-0001394990Y0000412480I-0000031900J0000024151D01*
G02X-0001394990Y0000492520I0J0000040020D01*
G02X-0001363090Y0000476660I0J-0000040011D01*
G03X-0001346890Y0000476660I0000008100J0000006139D01*
G02X-0001314990Y0000492520I0000031900J-0000024151D01*
G02X-0001314990Y0000412480I0J-0000040020D01*
G02X-0001346890Y0000428340I0J0000040011D01*
G37*
G36*
G01X-0001789240Y0000829340D02*
G03X-0001781490Y0000843560I-0000001511J0000010045D01*
G02X-0001785020Y0000860000I0000036491J0000016434D01*
G02X-0001704980Y0000860000I0000040020J0D01*
G02X-0001739070Y0000820420I-0000040022J0D01*
G03X-0001746820Y0000806200I0000001511J-0000010045D01*
G02X-0001743290Y0000789760I-0000036491J-0000016434D01*
G02X-0001823330Y0000789760I-0000040020J0D01*
G02X-0001789240Y0000829340I0000040022J0D01*
G37*
G36*
G01X-0002959160Y0001061900D02*
G03X-0002959160Y0001078100I-0000006139J0000008100D01*
G02X-0002975020Y0001110000I0000024151J0000031900D01*
G02X-0002894980Y0001110000I0000040020J0D01*
G02X-0002910840Y0001078100I-0000040011J0D01*
G03X-0002910840Y0001061900I0000006139J-0000008100D01*
G02X-0002894980Y0001030000I-0000024151J-0000031900D01*
G02X-0002975020Y0001030000I-0000040020J0D01*
G02X-0002959160Y0001061900I0000040011J0D01*
G37*
G36*
G01X-0003936140Y0001614050D02*
G03X-0003936140Y0001630950I-0000005642J0000008450D01*
G02X-0003965020Y0001685000I0000036138J0000054050D01*
G02X-0003834980Y0001685000I0000065020J0D01*
G02X-0003863860Y0001630950I-0000065018J0D01*
G03X-0003863860Y0001614050I0000005642J-0000008450D01*
G02X-0003863860Y0001505950I-0000036138J-0000054050D01*
G03X-0003863860Y0001489050I0000005642J-0000008450D01*
G02X-0003834980Y0001435000I-0000036138J-0000054050D01*
G02X-0003965020Y0001435000I-0000065020J0D01*
G02X-0003936140Y0001489050I0000065018J0D01*
G03X-0003936140Y0001505950I-0000005642J0000008450D01*
G02X-0003936140Y0001614050I0000036138J0000054050D01*
G37*
G36*
G01X-0001737510Y0000307670D02*
G02X-0001698790Y0000277760I0000038720J0000010107D01*
G02X-0001700910Y0000277820I0000000072J0000040018D01*
G03X-0001711280Y0000265110I-0000000537J-0000010147D01*
G02X-0001709980Y0000255000I-0000038719J-0000010117D01*
G02X-0001750000Y0000295020I-0000040020J0D01*
G02X-0001747880Y0000294960I-0000000072J-0000040018D01*
G03X-0001737510Y0000307670I0000000537J0000010147D01*
G37*
G36*
G01X-0001759650Y0000667790D02*
G02X-0001693540Y0000698140I0000026088J0000030350D01*
G02X-0001711420Y0000664800I-0000040024J0D01*
G03X-0001712420Y0000648640I0000005625J-0000008459D01*
G02X-0001698490Y0000618290I-0000026098J-0000030350D01*
G02X-0001706270Y0000594580I-0000040019J0D01*
G03X-0001701660Y0000579050I0000008187J-0000006019D01*
G02X-0001675710Y0000541590I-0000014063J-0000037460D01*
G02X-0001715730Y0000501570I-0000040020J0D01*
G02X-0001750000Y0000520910I0J0000040033D01*
G03X-0001768070Y0000519580I-0000008698J-0000005247D01*
G02X-0001805000Y0000494980I-0000036930J0000015420D01*
G02X-0001805000Y0000575020I0J0000040020D01*
G02X-0001770730Y0000555680I0J-0000040033D01*
G03X-0001752660Y0000557010I0000008698J0000005247D01*
G02X-0001747970Y0000565300I0000036930J-0000015421D01*
G03X-0001752580Y0000580830I-0000008187J0000006019D01*
G02X-0001778530Y0000618290I0000014063J0000037460D01*
G02X-0001760650Y0000651630I0000040024J0D01*
G03X-0001759650Y0000667790I-0000005625J0000008459D01*
G37*
G36*
G01X-0001689630Y0001295870D02*
G02X-0001652000Y0001269470I0000037630J0000013619D01*
G01X-0001652480Y0001269470D01*
G03X-0001662150Y0001255850I-0000000119J-0000010158D01*
G02X-0001659760Y0001242230I-0000037630J-0000013623D01*
G02X-0001699780Y0001282250I-0000040020J0D01*
G01X-0001699300Y0001282250D01*
G03X-0001689630Y0001295870I0000000119J0000010158D01*
G37*
G36*
G01X-0001511740Y0001347850D02*
G02X-0001472500Y0001299980I0000039240J-0000007852D01*
G02X-0001500670Y0001311580I0000000005J0000040018D01*
G03X-0001517790Y0001306360I-0000007156J-0000007215D01*
G02X-0001557030Y0001274190I-0000039240J0000007847D01*
G02X-0001557030Y0001354230I0J0000040020D01*
G02X-0001528860Y0001342630I-0000000005J-0000040018D01*
G03X-0001511740Y0001347850I0000007156J0000007215D01*
G37*
G54D16*
X-0004237500Y0001462500D03*
X-0003814030Y0000494030D03*
X-0003780000Y0001155000D03*
X-0003745000Y0000875000D03*
X-0003770000Y0001065000D03*
X-0003787610Y0001302500D03*
X-0003805000Y0001755000D03*
X-0003545000Y0000110000D03*
X-0003453000Y0001248000D03*
X-0003375000Y0001610000D03*
X-0003265000Y0000055000D03*
X-0003115000Y0000895000D03*
X-0003260000Y0001145000D03*
X-0003075000Y0001495000D03*
X-0003250000Y0001495000D03*
X-0003060000Y0001220000D03*
X-0003070000Y0001605000D03*
X-0002690000Y0000315000D03*
X-0002615000Y0001520000D03*
X-0002030000Y0000170000D03*
X-0002205540Y0000955380D03*
X-0002205540Y0001155380D03*
X-0002205540Y0001055380D03*
X-0001785000Y0000170000D03*
X-0001711430Y0000416590D03*
X-0001930000Y0001165000D03*
X-0001929190Y0000972500D03*
X-0001740550Y0000962220D03*
X-0001725000Y0001445000D03*
X-0001885000Y0001413090D03*
X-0001450000Y0000130000D03*
X-0001535660Y0000265860D03*
X-0001634610Y0001552970D03*
X-0001015000Y0000360000D03*
X-0001100000Y0001435000D03*
X-0000795000Y0000570000D03*
X-0000786470Y0000747640D03*
X-0000873590Y0000798590D03*
X-0000826470Y0001019890D03*
X-0000781150Y0001290780D03*
X-0000495000Y0000440000D03*
X-0000610000Y0000335000D03*
X-0000475000Y0000570000D03*
X-0000300000Y0001130000D03*
X-0000277500Y0001250000D03*
X-0000534650Y0001390000D03*
X-0000065000Y0000230000D03*
X-0000242990Y0000427500D03*
X-0000095000Y0001425000D03*
G54D17*
X-0003946000Y0000900000D03*
X-0003946000Y0000646000D03*
X-0003946000Y0001154000D03*
G54D18*
X-0001655000Y0000110000D03*
X-0000365000Y0000110000D03*
G54D15*
X-0002740000Y0000832000D03*
%LPD*%
G75*
G54D10*
X-0004250000Y0000105000D03*
X-0004280000Y0000295000D03*
X-0004237500Y0001462500D03*
X-0003814030Y0000494030D03*
X-0003745000Y0000875000D03*
X-0003770000Y0001065000D03*
X-0003780000Y0001155000D03*
X-0003760000Y0001405000D03*
X-0003787610Y0001302500D03*
X-0003805000Y0001755000D03*
X-0003545000Y0000110000D03*
X-0003510000Y0000400000D03*
X-0003453000Y0001248000D03*
X-0003500000Y0001715000D03*
X-0003375000Y0001610000D03*
X-0003265000Y0000055000D03*
X-0003240000Y0000295000D03*
X-0003340000Y0000570000D03*
X-0003260000Y0001145000D03*
X-0003115000Y0000895000D03*
X-0003340000Y0001260000D03*
X-0003060000Y0001220000D03*
X-0003075000Y0001495000D03*
X-0003250000Y0001495000D03*
X-0003200000Y0001715000D03*
X-0003070000Y0001605000D03*
X-0002925000Y0000475000D03*
X-0002890000Y0000187500D03*
X-0002690000Y0000315000D03*
X-0002695540Y0001190380D03*
X-0002695540Y0001090380D03*
X-0002695540Y0000990380D03*
X-0002935000Y0001030000D03*
X-0002935000Y0001110000D03*
X-0002470000Y0000315000D03*
X-0002355000Y0001515000D03*
X-0002615000Y0001520000D03*
X-0002030000Y0000170000D03*
X-0002220000Y0000195000D03*
X-0001990000Y0000654000D03*
X-0002205540Y0000955380D03*
X-0002205540Y0001055380D03*
X-0002205540Y0001155380D03*
X-0002005000Y0001468090D03*
X-0001785000Y0000170000D03*
X-0001750000Y0000255000D03*
X-0001698790Y0000317780D03*
X-0001711430Y0000416590D03*
X-0001733560Y0000698140D03*
X-0001715730Y0000541590D03*
X-0001738510Y0000618290D03*
X-0001783310Y0000789760D03*
X-0001745000Y0000860000D03*
X-0001805000Y0000535000D03*
X-0001740550Y0000962220D03*
X-0001929190Y0000972500D03*
X-0001930000Y0001165000D03*
X-0001780000Y0001265000D03*
X-0001699780Y0001242230D03*
X-0001725000Y0001445000D03*
X-0001885000Y0001413090D03*
X-0001652000Y0001309490D03*
X-0001800000Y0001675000D03*
X-0001815000Y0001775000D03*
X-0001319000Y0000145000D03*
X-0001450000Y0000130000D03*
X-0001535660Y0000265860D03*
X-0001314990Y0000452500D03*
X-0001394990Y0000452500D03*
X-0001545000Y0000635000D03*
X-0001540000Y0001110000D03*
X-0001375770Y0001309490D03*
X-0001555000Y0001545000D03*
X-0001634610Y0001552970D03*
X-0001472500Y0001340000D03*
X-0001557030Y0001314210D03*
X-0001535000Y0001685000D03*
X-0001015000Y0000360000D03*
X-0001075000Y0000645000D03*
X-0001075000Y0001105000D03*
X-0001105000Y0001525000D03*
X-0001100000Y0001435000D03*
X-0000714000Y0000330000D03*
X-0000795000Y0000570000D03*
X-0000786470Y0000747640D03*
X-0000873590Y0000798590D03*
X-0000873270Y0000955000D03*
X-0000826470Y0001019890D03*
X-0000781150Y0001290780D03*
X-0000495000Y0000440000D03*
X-0000610000Y0000335000D03*
X-0000495000Y0000850000D03*
X-0000490000Y0000710000D03*
X-0000475000Y0000570000D03*
X-0000305000Y0001005000D03*
X-0000380000Y0001175000D03*
X-0000300000Y0001130000D03*
X-0000540000Y0001525000D03*
X-0000277500Y0001250000D03*
X-0000534650Y0001390000D03*
X-0000380000Y0001590000D03*
X-0000065000Y0000230000D03*
X-0000242990Y0000427500D03*
X-0000180000Y0000705000D03*
X-0000095000Y0001425000D03*
X-0000100000Y0001775000D03*
G54D11*
X-0003900000Y0000115000D03*
X-0003900000Y0000365000D03*
X-0003900000Y0000240000D03*
X-0003900000Y0001560000D03*
X-0003900000Y0001435000D03*
X-0003900000Y0001685000D03*
G54D12*
X-0003946000Y0000900000D03*
X-0003946000Y0000646000D03*
X-0003946000Y0001154000D03*
G54D13*
X-0001655000Y0000110000D03*
X-0000365000Y0000110000D03*
G54D14*
G01X-0004056100Y0001154000D02*
X-0003946000Y0001154000D01*
G01X-0003946000Y0001043900D02*
X-0003946000Y0001154000D01*
G01X-0003946000Y0001154000D02*
X-0003946000Y0001264100D01*
G01X-0003946000Y0001154000D02*
X-0003835900Y0001154000D01*
G01X-0003900000Y0001685000D02*
X-0003900000Y0001755100D01*
G01X-0003970100Y0001685000D02*
X-0003900000Y0001685000D01*
G01X-0003900000Y0001685000D02*
X-0003829900Y0001685000D01*
G01X-0000365000Y0000029900D02*
X-0000365000Y0000110000D01*
G01X-0000365000Y0000110000D02*
X-0000365000Y0000190100D01*
G01X-0000445100Y0000110000D02*
X-0000365000Y0000110000D01*
G01X-0000365000Y0000110000D02*
X-0000284900Y0000110000D01*
M02*
